<svg width="60" height="60" viewBox="0 0 60 60" fill="none" xmlns="http://www.w3.org/2000/svg">
<g clip-path="url(#clip0)">
<path fill-rule="evenodd" clip-rule="evenodd" d="M33.8523 39.8173C33.6961 39.9735 33.4428 39.9735 33.2866 39.8173L18.296 24.8266C18.1398 24.6704 18.1398 24.4172 18.296 24.261L23.0288 19.5281C25.9916 16.5653 30.4786 16.099 33.6182 21.0009C33.7075 21.1404 33.8724 21.2152 34.0367 21.1946C39.1015 20.5571 46.0113 27.6583 40.5915 33.0781L33.8523 39.8173ZM28.0288 26.973C27.8726 27.1292 27.6194 27.1292 27.4632 26.973L25.9547 25.4645C25.7984 25.3083 25.7984 25.0551 25.9547 24.8988L27.1765 23.677C28.1797 22.6738 30.2539 24.748 29.2507 25.7512L28.0288 26.973ZM33.2143 32.1585C33.0581 32.3147 32.8048 32.3147 32.6486 32.1585L31.1401 30.65C30.9839 30.4938 30.9839 30.2405 31.1401 30.0843L34.3683 26.8561C35.3714 25.853 37.4456 27.9272 36.4424 28.9303L33.2143 32.1585Z" fill="#7E96B8"/>
<path d="M20.4365 30.9808L31.2788 41.8231C31.435 41.9793 31.435 42.2326 31.2788 42.3888L29.8382 43.8294C29.682 43.9856 29.4288 43.9856 29.2725 43.8294L18.4302 32.9871C18.274 32.8309 18.274 32.5776 18.4302 32.4214L19.8708 30.9808C20.0271 30.8246 20.2803 30.8246 20.4365 30.9808Z" fill="#5D7598"/>
</g>
<defs>
<clipPath id="clip0">
<rect width="32" height="32" fill="white" transform="translate(14 14)"/>
</clipPath>
</defs>
</svg>
