<svg width="60" height="60" viewBox="0 0 60 60" fill="none" xmlns="http://www.w3.org/2000/svg">
<circle cx="30" cy="30" r="30" fill="white"/>
<circle cx="29.5" cy="30.5" r="23.5" fill="#71AFAC"/>
<path fill-rule="evenodd" clip-rule="evenodd" d="M30 22C30.5523 22 31 22.4477 31 23L31 37C31 37.5523 30.5523 38 30 38C29.4477 38 29 37.5523 29 37L29 23C29 22.4477 29.4477 22 30 22Z" fill="white"/>
<path fill-rule="evenodd" clip-rule="evenodd" d="M22 30C22 29.4477 22.4477 29 23 29H37C37.5523 29 38 29.4477 38 30C38 30.5523 37.5523 31 37 31H23C22.4477 31 22 30.5523 22 30Z" fill="white"/>
</svg>
