<svg width="16" height="16" viewBox="0 0 16 16" fill="none" xmlns="http://www.w3.org/2000/svg">
<path d="M8.0013 2.6665C7.63311 2.6665 7.33464 2.96498 7.33464 3.33317V7.33317H3.33464C2.96645 7.33317 2.66797 7.63165 2.66797 7.99984C2.66797 8.36803 2.96645 8.6665 3.33464 8.6665H7.33463V12.6665C7.33463 13.0347 7.63311 13.3332 8.0013 13.3332C8.36949 13.3332 8.66797 13.0347 8.66797 12.6665V8.6665H12.668C13.0362 8.6665 13.3346 8.36803 13.3346 7.99984C13.3346 7.63165 13.0362 7.33317 12.668 7.33317H8.66797V3.33317C8.66797 2.96498 8.36949 2.6665 8.0013 2.6665Z" fill="#71AFAC"/>
</svg>
