<svg width="38" height="38" viewBox="0 0 38 38" fill="none" xmlns="http://www.w3.org/2000/svg">
<path fill-rule="evenodd" clip-rule="evenodd" d="M19.0013 0.666504C29.1265 0.666504 37.3346 8.87462 37.3346 18.9998C37.3346 29.1251 29.1265 37.3332 19.0013 37.3332C8.87608 37.3332 0.667969 29.1251 0.667969 18.9998C0.667969 8.87462 8.87608 0.666504 19.0013 0.666504ZM19.0013 9.83317C18.0611 9.83317 17.2862 10.5409 17.1803 11.4527L17.168 11.6665V17.1665H11.668C10.6554 17.1665 9.83463 17.9873 9.83463 18.9998C9.83463 19.94 10.5424 20.7149 11.4542 20.8208L11.668 20.8332H17.168V26.3332C17.168 27.3457 17.9888 28.1665 19.0013 28.1665C19.9415 28.1665 20.7164 27.4588 20.8223 26.547L20.8346 26.3332V20.8332H26.3346C27.3472 20.8332 28.168 20.0124 28.168 18.9998C28.168 18.0596 27.4602 17.2847 26.5484 17.1788L26.3346 17.1665H20.8346V11.6665C20.8346 10.654 20.0138 9.83317 19.0013 9.83317Z" fill="#71AFAC"/>
</svg>
