<svg width="22" height="27" viewBox="0 0 22 27" fill="none" xmlns="http://www.w3.org/2000/svg">
<path d="M17.5352 14.5776C17.5352 11.336 20.169 9.71517 20.3716 9.61387C18.8521 7.38524 16.4209 7.08133 15.6105 7.08133C13.5844 6.87873 11.6597 8.29695 10.6467 8.29695C9.63368 8.29695 8.01286 7.08133 6.39204 7.18264C4.26471 7.18264 2.23868 8.49955 1.12437 10.4243C-1.20556 14.375 0.51656 20.2505 2.74519 23.4922C3.8595 25.113 5.17642 26.8351 6.79724 26.7338C8.41807 26.6325 9.02587 25.7208 11.0519 25.7208C12.9766 25.7208 13.5844 26.7338 15.3066 26.7338C17.0287 26.7338 18.143 25.113 19.2573 23.5935C20.5742 21.77 21.0807 20.0479 21.0807 19.9466C20.9794 19.744 17.6365 18.4271 17.5352 14.5776Z" fill="#1D1E2C"/>
<path d="M14.2907 4.95414C15.2024 3.83982 15.8102 2.3203 15.6076 0.800781C14.2907 0.902083 12.7712 1.71249 11.7581 2.72551C10.9477 3.63722 10.2386 5.25804 10.4412 6.67626C11.9607 6.87886 13.379 6.06845 14.2907 4.95414Z" fill="#1D1E2C"/>
</svg>
