<svg width="1728" height="1706" viewBox="0 0 1728 1706" fill="none" xmlns="http://www.w3.org/2000/svg">
<mask id="mask0_9_5149" style="mask-type:alpha" maskUnits="userSpaceOnUse" x="-641" y="-1" width="2788" height="1708">
<path d="M2146.6 1706L-640.338 1706L-640.337 -0.999877L2146.6 -0.999634L2146.6 1706Z" fill="url(#paint0_linear_9_5149)"/>
</mask>
<g mask="url(#mask0_9_5149)">
<path d="M-205.917 956.176C-507.4 925.316 -554.878 913.447 -694.937 941.933L-775.653 -359.528L2184.58 -359.528C2200.41 -14.5239 2216.36 442.287 2184.58 482.306C2140.79 537.464 2021.04 574.478 1877.34 551.254C1764.73 533.054 1711.12 531.452 1547.47 586.711C1383.82 641.971 1326.48 763.903 992.894 671.657C659.308 579.41 496.204 746.538 389.928 827.73C283.651 908.921 95.5662 987.037 -205.917 956.176Z" fill="url(#paint1_linear_9_5149)"/>
<g filter="url(#filter0_f_9_5149)">
<path d="M-205.917 956.176C-507.4 925.316 -554.878 913.447 -694.937 941.933L-775.653 -359.528L2184.58 -359.528C2200.41 -14.5239 2216.36 407.451 2184.58 447.47C2140.79 502.628 2021.04 539.642 1877.34 516.417C1764.73 498.218 1711.12 496.615 1547.47 551.875C1383.82 607.134 1326.48 729.066 992.894 636.82C659.308 544.573 496.204 746.538 389.928 827.73C283.651 908.921 95.5662 987.037 -205.917 956.176Z" fill="url(#paint2_linear_9_5149)"/>
</g>
<g filter="url(#filter1_f_9_5149)">
<path d="M-205.917 956.176C-507.4 925.316 -554.878 913.447 -694.937 941.933L-775.653 -359.528L2184.58 -359.528C2200.41 -14.5239 2216.36 407.451 2184.58 447.47C2140.79 502.628 2021.04 539.642 1877.34 516.417C1764.73 498.218 1711.12 496.615 1547.47 551.875C1383.82 607.134 1326.48 729.066 992.894 636.82C659.308 544.573 496.204 746.538 389.928 827.73C283.651 908.921 95.5662 987.037 -205.917 956.176Z" fill="url(#paint3_linear_9_5149)"/>
</g>
<g filter="url(#filter2_f_9_5149)">
<path d="M-205.917 1037.46C-507.4 1006.6 -554.877 994.732 -694.937 1023.22L-775.652 -359.528L2184.58 -359.528C2200.41 -14.5237 2193.13 349.39 2161.36 389.408C2117.56 444.567 1997.81 481.581 1854.11 458.356C1741.5 440.157 1687.9 438.554 1524.25 493.814C1360.59 549.073 1399.59 644.676 969.67 578.759C539.752 512.842 496.205 769.763 389.928 850.954C283.652 932.146 95.5666 1068.32 -205.917 1037.46Z" fill="url(#paint4_linear_9_5149)"/>
</g>
<g filter="url(#filter3_f_9_5149)">
<path d="M-205.917 1049.07C-507.4 1111.11 -554.878 1122.47 -694.937 1150.95L-775.653 -359.528L2184.58 -359.528C2190.98 -219.994 2197.41 -164.742 2200.68 -145.773C2203.36 -130.27 2203.93 -139.006 2200.68 -145.773C2198.07 -151.199 2193 -155.36 2184.58 -144.755C2140.79 -89.5967 2021.04 -52.5827 1877.34 -75.8072C1764.73 -94.0066 1711.12 -95.6095 1547.47 -40.3498C1383.82 14.91 1326.48 136.842 992.894 44.5956C659.308 -47.6509 496.205 676.865 389.928 758.056L387.079 760.233C280.223 841.88 88.2888 988.535 -205.917 1049.07Z" fill="url(#paint5_linear_9_5149)"/>
</g>
<g filter="url(#filter4_f_9_5149)">
<path d="M-118.078 475.208C-217.781 501.321 -407.692 517.938 -683.062 418.235L-683.062 -467.224L2284.29 -467.223L2329.06 -10.1175C2407.42 -27.0045 2372.04 -17.3499 2329.4 -6.68995L2329.06 -10.1175C2291.08 -1.93378 2226.39 12.4833 2122.87 36.04C1726.43 126.248 1617.98 315.346 1519.9 409.254C1408.33 516.079 1294.38 285.812 1121.09 285.812C1025.87 285.812 983.405 325.653 867.084 418.235C750.764 510.816 662.93 634.258 397.055 520.312C131.18 406.365 -18.3745 449.095 -118.078 475.208Z" fill="url(#paint6_linear_9_5149)"/>
</g>
<g filter="url(#filter5_f_9_5149)">
<path d="M-118.078 475.208C-217.781 501.321 -407.692 517.938 -683.062 418.235L-683.062 -467.224L2284.29 -467.223L2328.24 63.7332C2407.67 57.3593 2372.18 67.0441 2329.4 77.7412L2328.24 63.7332C2290.15 66.7892 2225.65 73.5368 2122.87 85.6343C1719.08 133.161 1650.13 236.237 1552.05 330.144C1440.48 436.969 1294.38 309.036 1121.09 309.036C1025.87 309.036 983.405 325.653 867.084 418.235C750.764 510.816 662.93 634.258 397.055 520.312C131.18 406.365 -18.3745 449.095 -118.078 475.208Z" fill="url(#paint7_linear_9_5149)"/>
</g>
<g filter="url(#filter6_f_9_5149)">
<path d="M-118.078 475.208C-217.781 501.321 -407.692 517.938 -683.062 418.235L-683.062 -467.224L2284.29 -467.223L2329.09 27.8592C2407.42 10.9797 2372.03 20.6334 2329.4 31.2922L2329.09 27.8592C2291.11 36.0419 2226.42 50.4601 2122.87 74.0221C1726.43 164.23 1622.73 243.615 1524.65 337.523C1413.08 444.348 1294.38 271.054 1121.09 271.054C1025.87 271.054 983.404 325.653 867.084 418.235C750.764 510.816 662.93 634.258 397.055 520.312C131.18 406.365 -18.3747 449.095 -118.078 475.208Z" fill="url(#paint8_linear_9_5149)"/>
</g>
<g filter="url(#filter7_f_9_5149)">
<path d="M-118.078 475.208C-217.781 501.321 -407.692 517.938 -683.062 418.235L-683.062 -467.224L2284.29 -467.223L2329.09 27.8592C2407.42 10.9797 2372.03 20.6334 2329.4 31.2922L2329.09 27.8592C2291.11 36.0419 2226.42 50.4601 2122.87 74.0221C1726.43 164.23 1617.98 224.624 1519.9 318.532C1408.33 425.357 1294.38 309.036 1121.09 309.036C1025.87 309.036 983.404 325.653 867.084 418.235C750.764 510.816 662.93 634.258 397.055 520.312C131.18 406.365 -18.3747 449.095 -118.078 475.208Z" fill="url(#paint9_linear_9_5149)"/>
</g>
<path d="M-118.078 741.083C-217.781 767.196 -407.692 783.813 -683.062 684.11L-683.062 -467.223L2284.29 -467.223L2329.06 -10.1173C2407.42 -27.0043 2372.04 -17.3497 2329.4 -6.6897L2329.06 -10.1173C2291.08 -1.9336 2226.39 12.4834 2122.87 36.0401C1726.43 126.248 1617.98 338.571 1519.9 432.479C1408.33 539.303 1294.38 574.912 1121.09 574.912C1025.87 574.912 983.405 591.528 867.084 684.11C750.764 776.691 662.93 900.133 397.055 786.187C131.18 672.24 -18.3745 714.97 -118.078 741.083Z" fill="url(#paint10_linear_9_5149)"/>
<mask id="mask1_9_5149" style="mask-type:alpha" maskUnits="userSpaceOnUse" x="-679" y="-468" width="3059" height="1300">
<path d="M-113.726 741.082C-213.429 767.195 -403.34 783.812 -678.71 684.109L-678.71 -467.224L2288.64 -467.224L2333.41 -10.1178C2411.78 -27.0048 2376.39 -17.3502 2333.75 -6.69019L2333.41 -10.1178C2295.44 -1.93409 2230.75 12.4829 2127.22 36.0397C1730.78 126.247 1622.34 338.57 1524.25 432.478C1412.68 539.303 1298.73 574.911 1125.44 574.911C1030.22 574.911 987.756 591.528 871.436 684.109C755.115 776.691 667.282 900.133 401.407 786.186C135.532 672.24 -14.0229 714.97 -113.726 741.082Z" fill="url(#paint11_linear_9_5149)"/>
</mask>
<g mask="url(#mask1_9_5149)">
<g opacity="0.6" filter="url(#filter8_f_9_5149)">
<path d="M-93.1163 726.216C-217.222 753.795 -662.117 729.845 -699.856 888.062L736.434 1027.41L1558.73 531.711L1534.05 488.165C1462.68 541.872 1335.48 539.985 1229.23 549.855C1096.41 562.193 962.147 556.387 881.587 618.077C801.027 679.767 708.129 763.956 664.583 779.197C621.037 794.438 549.912 803.873 354.681 745.086C159.45 686.299 30.9889 698.637 -93.1163 726.216Z" fill="#F4FFFE"/>
</g>
</g>
<path d="M2572.83 -206.352C2132.2 102.394 1655.95 -38.9981 1104.3 150.347C552.662 339.691 379.046 422.797 -35.0805 428.014C-449.207 433.231 -572.539 552.425 -768.209 727.653C-963.88 902.881 -651.344 -450.187 -651.344 -450.187L2616.38 -304.584L2572.83 -206.352Z" fill="url(#paint12_linear_9_5149)"/>
<g filter="url(#filter9_f_9_5149)">
<path d="M-775.336 263.581C-732.758 308.337 -600.427 401.477 -411.728 415.992C26.1508 319.465 932.245 126.412 1053.59 126.412C1205.28 126.412 1253.9 -88.4146 1131.25 -88.4146C1008.6 -88.4146 687.081 -94.2207 633.375 -88.4146C579.668 -82.6085 161.627 42.9489 17.9255 96.6555C-125.776 150.362 -226.657 162.7 -462.531 156.168C-651.23 150.943 -749.692 225.6 -775.336 263.581Z" fill="#B2DEDC"/>
</g>
<g filter="url(#filter10_f_9_5149)">
<path d="M2655.57 -141.499C2433.96 -147.364 1738.97 32.3248 1110.4 102.363C558.756 291.708 345.929 381.271 -35.076 428.013C-449.202 433.23 -587.748 644.808 -783.419 820.036C-979.09 995.264 -651.339 -450.188 -651.339 -450.188L2699.12 -239.731L2655.57 -141.499Z" fill="url(#paint13_linear_9_5149)"/>
</g>
<g filter="url(#filter11_f_9_5149)">
<path d="M2658.69 -130.703C2437.08 -136.567 1978.6 -60.69 1110.39 102.363C558.747 291.708 345.919 381.271 -35.0852 428.013C-451.855 501.002 -542.641 787.653 -738.311 962.881C-933.982 1138.11 -651.348 -450.188 -651.348 -450.188L2648.84 -515.442L2658.69 -130.703Z" fill="url(#paint14_linear_9_5149)"/>
</g>
<g filter="url(#filter12_f_9_5149)">
<path d="M2738.98 -3.85188C2517.37 -9.71613 1908.36 -362.575 1040.15 -199.522C488.509 -10.1774 114.044 -64.9899 -266.961 -18.2477C-683.731 54.7413 -715.789 394.703 -911.46 569.932C-1107.13 745.16 -883.224 -896.449 -883.224 -896.449L2392.67 -895.355L2738.98 -3.85188Z" fill="#162524"/>
</g>
</g>
<defs>
<filter id="filter0_f_9_5149" x="-833.714" y="-417.59" width="3094.69" height="1438.72" filterUnits="userSpaceOnUse" color-interpolation-filters="sRGB">
<feFlood flood-opacity="0" result="BackgroundImageFix"/>
<feBlend mode="normal" in="SourceGraphic" in2="BackgroundImageFix" result="shape"/>
<feGaussianBlur stdDeviation="29.0306" result="effect1_foregroundBlur_9_5149"/>
</filter>
<filter id="filter1_f_9_5149" x="-833.714" y="-417.59" width="3094.69" height="1438.72" filterUnits="userSpaceOnUse" color-interpolation-filters="sRGB">
<feFlood flood-opacity="0" result="BackgroundImageFix"/>
<feBlend mode="normal" in="SourceGraphic" in2="BackgroundImageFix" result="shape"/>
<feGaussianBlur stdDeviation="29.0306" result="effect1_foregroundBlur_9_5149"/>
</filter>
<filter id="filter2_f_9_5149" x="-911.128" y="-495.005" width="3239.26" height="1672.41" filterUnits="userSpaceOnUse" color-interpolation-filters="sRGB">
<feFlood flood-opacity="0" result="BackgroundImageFix"/>
<feBlend mode="normal" in="SourceGraphic" in2="BackgroundImageFix" result="shape"/>
<feGaussianBlur stdDeviation="67.7381" result="effect1_foregroundBlur_9_5149"/>
</filter>
<filter id="filter3_f_9_5149" x="-1081.44" y="-665.318" width="3590.14" height="2122.06" filterUnits="userSpaceOnUse" color-interpolation-filters="sRGB">
<feFlood flood-opacity="0" result="BackgroundImageFix"/>
<feBlend mode="normal" in="SourceGraphic" in2="BackgroundImageFix" result="shape"/>
<feGaussianBlur stdDeviation="152.895" result="effect1_foregroundBlur_9_5149"/>
</filter>
<filter id="filter4_f_9_5149" x="-797.038" y="-581.199" width="3286.53" height="1261.28" filterUnits="userSpaceOnUse" color-interpolation-filters="sRGB">
<feFlood flood-opacity="0" result="BackgroundImageFix"/>
<feBlend mode="normal" in="SourceGraphic" in2="BackgroundImageFix" result="shape"/>
<feGaussianBlur stdDeviation="56.9878" result="effect1_foregroundBlur_9_5149"/>
</filter>
<filter id="filter5_f_9_5149" x="-985.658" y="-769.819" width="3663.77" height="1638.52" filterUnits="userSpaceOnUse" color-interpolation-filters="sRGB">
<feFlood flood-opacity="0" result="BackgroundImageFix"/>
<feBlend mode="normal" in="SourceGraphic" in2="BackgroundImageFix" result="shape"/>
<feGaussianBlur stdDeviation="151.298" result="effect1_foregroundBlur_9_5149"/>
</filter>
<filter id="filter6_f_9_5149" x="-1202.28" y="-986.446" width="4097.03" height="2071.77" filterUnits="userSpaceOnUse" color-interpolation-filters="sRGB">
<feFlood flood-opacity="0" result="BackgroundImageFix"/>
<feBlend mode="normal" in="SourceGraphic" in2="BackgroundImageFix" result="shape"/>
<feGaussianBlur stdDeviation="259.611" result="effect1_foregroundBlur_9_5149"/>
</filter>
<filter id="filter7_f_9_5149" x="-898.35" y="-682.511" width="3489.16" height="1463.9" filterUnits="userSpaceOnUse" color-interpolation-filters="sRGB">
<feFlood flood-opacity="0" result="BackgroundImageFix"/>
<feBlend mode="normal" in="SourceGraphic" in2="BackgroundImageFix" result="shape"/>
<feGaussianBlur stdDeviation="107.644" result="effect1_foregroundBlur_9_5149"/>
</filter>
<filter id="filter8_f_9_5149" x="-831.462" y="356.56" width="2521.79" height="802.455" filterUnits="userSpaceOnUse" color-interpolation-filters="sRGB">
<feFlood flood-opacity="0" result="BackgroundImageFix"/>
<feBlend mode="normal" in="SourceGraphic" in2="BackgroundImageFix" result="shape"/>
<feGaussianBlur stdDeviation="65.8027" result="effect1_foregroundBlur_9_5149"/>
</filter>
<filter id="filter9_f_9_5149" x="-1162.41" y="-478.07" width="2750.13" height="1281.14" filterUnits="userSpaceOnUse" color-interpolation-filters="sRGB">
<feFlood flood-opacity="0" result="BackgroundImageFix"/>
<feBlend mode="normal" in="SourceGraphic" in2="BackgroundImageFix" result="shape"/>
<feGaussianBlur stdDeviation="193.537" result="effect1_foregroundBlur_9_5149"/>
</filter>
<filter id="filter10_f_9_5149" x="-926.641" y="-531.107" width="3706.68" height="1446.8" filterUnits="userSpaceOnUse" color-interpolation-filters="sRGB">
<feFlood flood-opacity="0" result="BackgroundImageFix"/>
<feBlend mode="normal" in="SourceGraphic" in2="BackgroundImageFix" result="shape"/>
<feGaussianBlur stdDeviation="40.4599" result="effect1_foregroundBlur_9_5149"/>
</filter>
<filter id="filter11_f_9_5149" x="-987.829" y="-695.955" width="3827.03" height="1852.85" filterUnits="userSpaceOnUse" color-interpolation-filters="sRGB">
<feFlood flood-opacity="0" result="BackgroundImageFix"/>
<feBlend mode="normal" in="SourceGraphic" in2="BackgroundImageFix" result="shape"/>
<feGaussianBlur stdDeviation="90.2567" result="effect1_foregroundBlur_9_5149"/>
</filter>
<filter id="filter12_f_9_5149" x="-1433.61" y="-1338.4" width="4614.53" height="2363.37" filterUnits="userSpaceOnUse" color-interpolation-filters="sRGB">
<feFlood flood-opacity="0" result="BackgroundImageFix"/>
<feBlend mode="normal" in="SourceGraphic" in2="BackgroundImageFix" result="shape"/>
<feGaussianBlur stdDeviation="220.973" result="effect1_foregroundBlur_9_5149"/>
</filter>
<linearGradient id="paint0_linear_9_5149" x1="2070.64" y1="1453.71" x2="-552.571" y2="1478.9" gradientUnits="userSpaceOnUse">
<stop stop-color="#38669F"/>
<stop offset="0.364583" stop-color="#903080"/>
<stop offset="1" stop-color="#3D4184"/>
</linearGradient>
<linearGradient id="paint1_linear_9_5149" x1="-720.171" y1="529.793" x2="1614.15" y2="319.546" gradientUnits="userSpaceOnUse">
<stop stop-color="#74C3BF"/>
<stop offset="0.619792" stop-color="#B2DEDC"/>
<stop offset="1" stop-color="#468481"/>
</linearGradient>
<linearGradient id="paint2_linear_9_5149" x1="-720.171" y1="529.793" x2="1614.15" y2="319.546" gradientUnits="userSpaceOnUse">
<stop stop-color="#74C3BF"/>
<stop offset="0.619792" stop-color="#B2DEDC"/>
<stop offset="1" stop-color="#468481"/>
</linearGradient>
<linearGradient id="paint3_linear_9_5149" x1="-720.171" y1="529.793" x2="1614.15" y2="319.546" gradientUnits="userSpaceOnUse">
<stop stop-color="#74C3BF"/>
<stop offset="0.619792" stop-color="#B2DEDC"/>
<stop offset="1" stop-color="#468481"/>
</linearGradient>
<linearGradient id="paint4_linear_9_5149" x1="-720.361" y1="582.822" x2="1608.09" y2="385.586" gradientUnits="userSpaceOnUse">
<stop stop-color="#74C3BF"/>
<stop offset="0.619792" stop-color="#B2DEDC"/>
<stop offset="1" stop-color="#468481"/>
</linearGradient>
<linearGradient id="paint5_linear_9_5149" x1="-720.171" y1="656.129" x2="1618.55" y2="471.688" gradientUnits="userSpaceOnUse">
<stop stop-color="#74C3BF"/>
<stop offset="0.619792" stop-color="#B2DEDC"/>
<stop offset="1" stop-color="#468481"/>
</linearGradient>
<linearGradient id="paint6_linear_9_5149" x1="-626.089" y1="406.366" x2="1769.16" y2="180.847" gradientUnits="userSpaceOnUse">
<stop stop-color="#509693"/>
<stop offset="0.536458" stop-color="#74C3BF"/>
<stop offset="1" stop-color="#A2D7D4"/>
</linearGradient>
<linearGradient id="paint7_linear_9_5149" x1="2181.08" y1="382.19" x2="-471.592" y2="256.462" gradientUnits="userSpaceOnUse">
<stop offset="0.25" stop-color="#A2D7D4"/>
<stop offset="0.776042" stop-color="#509693"/>
<stop offset="1" stop-color="#509693" stop-opacity="0"/>
</linearGradient>
<linearGradient id="paint8_linear_9_5149" x1="2181.08" y1="382.19" x2="-471.592" y2="256.462" gradientUnits="userSpaceOnUse">
<stop offset="0.25" stop-color="#A2D7D4"/>
<stop offset="0.776042" stop-color="#509693"/>
<stop offset="1" stop-color="#509693" stop-opacity="0"/>
</linearGradient>
<linearGradient id="paint9_linear_9_5149" x1="2181.08" y1="382.19" x2="-471.592" y2="256.462" gradientUnits="userSpaceOnUse">
<stop offset="0.25" stop-color="#A2D7D4"/>
<stop offset="0.776042" stop-color="#509693"/>
<stop offset="1" stop-color="#509693" stop-opacity="0"/>
</linearGradient>
<linearGradient id="paint10_linear_9_5149" x1="2181.08" y1="600.745" x2="-473.778" y2="500.664" gradientUnits="userSpaceOnUse">
<stop offset="0.25" stop-color="#A2D7D4"/>
<stop offset="0.776042" stop-color="#509693"/>
<stop offset="1" stop-color="#509693" stop-opacity="0"/>
</linearGradient>
<linearGradient id="paint11_linear_9_5149" x1="2185.43" y1="600.744" x2="-469.427" y2="500.663" gradientUnits="userSpaceOnUse">
<stop stop-color="#D079FF"/>
<stop offset="1" stop-color="#45BCFF"/>
</linearGradient>
<linearGradient id="paint12_linear_9_5149" x1="2617.23" y1="160.705" x2="-111.844" y2="110.312" gradientUnits="userSpaceOnUse">
<stop stop-color="white"/>
<stop offset="1" stop-color="#75B7B4"/>
</linearGradient>
<linearGradient id="paint13_linear_9_5149" x1="2700.09" y1="237.762" x2="-105.194" y2="186.471" gradientUnits="userSpaceOnUse">
<stop stop-color="white"/>
<stop offset="1" stop-color="#75B7B4"/>
</linearGradient>
<linearGradient id="paint14_linear_9_5149" x1="2690.54" y1="94.4157" x2="-66.8563" y2="-22.7141" gradientUnits="userSpaceOnUse">
<stop stop-color="white"/>
<stop offset="1" stop-color="#75B7B4"/>
</linearGradient>
</defs>
</svg>
