<svg width="16" height="16" viewBox="0 0 16 16" fill="none" xmlns="http://www.w3.org/2000/svg">
<path d="M4.00131 10.5587C4.11858 10.4461 4.19832 10.3663 4.28276 10.2913C4.69554 9.91603 5.29126 9.92072 5.6759 10.3054C6.05584 10.6806 6.08868 11.2857 5.70873 11.6797C5.03796 12.3787 4.35312 13.0635 3.6542 13.7296C3.26018 14.1095 2.67384 14.0908 2.27982 13.7061C1.60905 13.04 0.938277 12.374 0.276886 11.6938C-0.107752 11.2998 -0.0889894 10.6806 0.290958 10.3007C0.675597 9.91603 1.27601 9.90665 1.6841 10.2819C1.77322 10.3663 1.84358 10.4648 1.92333 10.5587C1.94209 10.5446 1.96554 10.5352 1.98431 10.5211C1.98431 10.4555 1.98431 10.3898 1.98431 10.3194C1.98431 8.0632 1.98431 5.80697 1.98431 3.55074C1.98431 1.79172 3.1476 0.389195 4.87379 0.051464C6.90017 -0.342556 8.91249 1.2476 8.96409 3.31151C8.99692 4.69058 8.97347 6.07434 8.97816 7.45341C8.97816 9.09985 8.97347 10.7463 8.97816 12.3927C8.97816 13.2464 9.53166 13.8891 10.3291 13.9782C11.1969 14.072 11.9615 13.4059 11.9661 12.51C11.9802 10.1975 11.9708 7.88964 11.9708 5.57712C11.9708 5.54898 11.9661 5.51614 11.9568 5.43171C11.8583 5.52553 11.7832 5.60058 11.7082 5.67094C11.2813 6.07434 10.6762 6.07903 10.2775 5.68501C9.88347 5.29099 9.88347 4.67651 10.2962 4.25903C10.9436 3.60233 11.5909 2.95032 12.2476 2.30301C12.6838 1.87615 13.2702 1.88084 13.7064 2.31708C14.3631 2.97378 15.0104 3.61641 15.653 4.26841C16.0611 4.6812 16.0611 5.30506 15.6718 5.69908C15.2731 6.09779 14.6633 6.0931 14.2458 5.68501C14.1708 5.60996 14.1192 5.51614 14.0535 5.42702C14.0301 5.44578 14.0019 5.45986 13.9785 5.47862C13.9785 5.55367 13.9785 5.62872 13.9785 5.69908C13.9785 7.94593 13.9785 10.1928 13.9785 12.4443C13.9785 14.208 12.7964 15.6293 11.0702 15.9483C9.04852 16.3235 7.05966 14.7475 7.00337 12.6882C6.96584 11.3326 6.99399 9.97232 6.9893 8.61201C6.9893 6.94212 6.99399 5.27223 6.9893 3.60233C6.9893 2.72517 6.40296 2.06847 5.59615 2.01218C4.70492 1.95589 4.00131 2.62666 4.00131 3.55074C3.99662 5.82104 3.99662 8.09134 3.99662 10.3663C3.99193 10.4086 3.99662 10.4555 4.00131 10.5587Z" fill="#9DA8B6"/>
</svg>
