<svg width="21" height="21" viewBox="0 0 21 21" fill="none" xmlns="http://www.w3.org/2000/svg">
<path d="M3.53555 1.20673C4.59943 0.568402 5.97441 0.845427 6.70811 1.84593L8.33588 4.06562C9.0287 5.01038 9.13489 6.26329 8.61095 7.31117L8.18415 8.16477C8.0606 8.41187 8.04106 8.69771 8.16745 8.94337C8.39771 9.39094 8.88804 10.1841 9.83261 11.1287C10.7772 12.0733 11.5704 12.5636 12.0179 12.7939C12.2636 12.9202 12.5494 12.9007 12.7965 12.7771L13.6501 12.3503C14.698 11.8264 15.9509 11.9326 16.8957 12.6254L19.1154 14.2532C20.1159 14.9869 20.3929 16.3619 19.7546 17.4258C18.4287 19.6355 15.8833 20.7951 13.5768 19.6458C11.6329 18.6772 9.1489 17.0741 6.51805 14.4432C3.88721 11.8124 2.28413 9.32838 1.3155 7.3845C0.166209 5.07803 1.32584 2.53256 3.53555 1.20673Z" fill="#71AFAC"/>
</svg>
