<svg width="30" height="30" viewBox="0 0 30 30" fill="none" xmlns="http://www.w3.org/2000/svg">
<circle cx="15" cy="15" r="15" fill="#A2D4D2"/>
<path d="M9.41212 9.41083C9.08669 9.73626 9.08669 10.2639 9.41212 10.5893L13.8228 15L9.41205 19.4108C9.08661 19.7363 9.08661 20.2639 9.41205 20.5893C9.73748 20.9148 10.2651 20.9148 10.5906 20.5893L15.0013 16.1786L19.4121 20.5893C19.7376 20.9148 20.2652 20.9148 20.5906 20.5893C20.9161 20.2639 20.9161 19.7363 20.5906 19.4108L16.1799 15L20.5906 10.5893C20.916 10.2639 20.916 9.73626 20.5906 9.41083C20.2651 9.08539 19.7375 9.08539 19.412 9.41083L15.0013 13.8215L10.5906 9.41083C10.2652 9.08539 9.73756 9.08539 9.41212 9.41083Z" fill="white"/>
</svg>
