<svg width="17" height="14" viewBox="0 0 17 14" fill="none" xmlns="http://www.w3.org/2000/svg">
<path fill-rule="evenodd" clip-rule="evenodd" d="M5.66667 4.6665H11.3333C11.7243 4.6665 12.0417 4.40575 12.0417 4.08317V1.74984C12.0417 1.42725 11.7243 1.1665 11.3333 1.1665H5.66667C5.27567 1.1665 4.95833 1.42725 4.95833 1.74984V4.08317C4.95833 4.40575 5.27567 4.6665 5.66667 4.6665ZM12.75 4.08317V2.33317C13.9216 2.33317 14.875 3.11834 14.875 4.08317V11.0832C14.875 12.048 13.9216 12.8332 12.75 12.8332H4.25C3.07842 12.8332 2.125 12.048 2.125 11.0832V4.08317C2.125 3.11834 3.07842 2.33317 4.25 2.33317V4.08317C4.25 4.72659 4.88537 5.24984 5.66667 5.24984H11.3333C12.1146 5.24984 12.75 4.72659 12.75 4.08317Z" fill="#2DCA73"/>
<mask id="mask0_562_17967" style="mask-type:alpha" maskUnits="userSpaceOnUse" x="2" y="1" width="13" height="12">
<path fill-rule="evenodd" clip-rule="evenodd" d="M5.66667 4.6665H11.3333C11.7243 4.6665 12.0417 4.40575 12.0417 4.08317V1.74984C12.0417 1.42725 11.7243 1.1665 11.3333 1.1665H5.66667C5.27567 1.1665 4.95833 1.42725 4.95833 1.74984V4.08317C4.95833 4.40575 5.27567 4.6665 5.66667 4.6665ZM12.75 4.08317V2.33317C13.9216 2.33317 14.875 3.11834 14.875 4.08317V11.0832C14.875 12.048 13.9216 12.8332 12.75 12.8332H4.25C3.07842 12.8332 2.125 12.048 2.125 11.0832V4.08317C2.125 3.11834 3.07842 2.33317 4.25 2.33317V4.08317C4.25 4.72659 4.88537 5.24984 5.66667 5.24984H11.3333C12.1146 5.24984 12.75 4.72659 12.75 4.08317Z" fill="white"/>
</mask>
<g mask="url(#mask0_562_17967)">
<rect width="17" height="14" fill="#2DCA73"/>
</g>
</svg>
