<svg width="31" height="31" viewBox="0 0 31 31" fill="none" xmlns="http://www.w3.org/2000/svg">
<path d="M0 10.7665C0 5.19809 4.51407 0.684021 10.0825 0.684021H22.3793C23.1056 0.684021 23.6944 1.27281 23.6944 1.99913C23.6944 2.72544 23.1056 3.31423 22.3793 3.31423H10.0825C5.9667 3.31423 2.63021 6.65072 2.63021 10.7665V23.2282C2.63021 23.9545 2.04142 24.5433 1.3151 24.5433C0.588792 24.5433 0 23.9545 0 23.2282V10.7665Z" fill="#71AFAC"/>
<path d="M26.5696 6.89703C20.8867 6.26188 15.0596 6.26188 9.37666 6.89703C7.75771 7.07797 6.45675 8.35203 6.26593 9.98352C5.59193 15.7463 5.59193 21.5679 6.26593 27.3307C6.45675 28.9622 7.75771 30.2362 9.37666 30.4172C15.0596 31.0523 20.8867 31.0523 26.5696 30.4172C28.1885 30.2362 29.4895 28.9622 29.6803 27.3307C30.3543 21.5679 30.3543 15.7463 29.6803 9.98352C29.4895 8.35203 28.1885 7.07797 26.5696 6.89703Z" fill="#71AFAC"/>
</svg>
