<svg width="21" height="21" viewBox="0 0 21 21" fill="none" xmlns="http://www.w3.org/2000/svg">
<path fill-rule="evenodd" clip-rule="evenodd" d="M16.625 7C17.0737 7 17.4436 7.33779 17.4941 7.77296L17.5 7.875V16.625C17.5 18.023 16.4072 19.1657 15.0292 19.2455L14.875 19.25H6.125C4.72703 19.25 3.5843 18.1572 3.50446 16.7792L3.5 16.625V7.875C3.5 7.42627 3.83779 7.05643 4.27296 7.00589L4.375 7H16.625ZM7.875 9.625C7.42627 9.625 7.05643 9.96278 7.00589 10.398L7 10.5V15.75C7 16.2332 7.39175 16.625 7.875 16.625C8.32373 16.625 8.69357 16.2872 8.74411 15.852L8.75 15.75V10.5C8.75 10.0168 8.35825 9.625 7.875 9.625ZM13.125 9.625C12.6418 9.625 12.25 10.0168 12.25 10.5V15.75C12.25 16.2332 12.6418 16.625 13.125 16.625C13.6082 16.625 14 16.2332 14 15.75V10.5C14 10.0168 13.6082 9.625 13.125 9.625ZM12.25 1.75C13.3929 1.75 14.3653 2.48046 14.7256 3.5H17.5C17.9832 3.5 18.375 3.89175 18.375 4.375C18.375 4.85825 17.9832 5.25 17.5 5.25H3.5C3.01675 5.25 2.625 4.85825 2.625 4.375C2.625 3.89175 3.01675 3.5 3.5 3.5H6.27437C6.63472 2.48046 7.60706 1.75 8.75 1.75H12.25Z" fill="#94A3B8"/>
</svg>
