<svg width="14" height="16" viewBox="0 0 14 16" fill="none" xmlns="http://www.w3.org/2000/svg">
<path d="M8.9325 9.22501C9.70125 9.44251 11.0637 9.41375 11.4625 9.385C12.16 9.335 12.8575 9.35 12.9775 8.50375C13.0575 7.93375 12.8662 7.41501 12.0212 7.32251C11.7237 7.29001 11.36 7.27251 11.06 7.22501L10.825 6.96626C11.1025 7.00376 11.7387 6.99126 11.93 7.01501C12.7375 7.11376 13.42 6.79001 13.5225 6.01376C13.6125 5.33376 13.1 4.80876 12.3725 4.84876C12.1237 4.86251 11.4212 4.76626 10.7237 4.74751L10.67 4.60626L10.645 4.56376C11.0875 4.55126 11.5112 4.53376 11.8125 4.51876C12.6187 4.47876 13.0587 4.04626 13.0475 3.47126C13.0337 2.77251 12.38 2.51001 11.9125 2.47126C11.5625 2.44251 10.31 2.47876 9.46875 2.54751L9.33625 2.32126C9.39625 2.32001 11.0075 2.24251 11.0687 2.23876C11.8075 2.18376 12.1225 1.91626 12.1037 1.38876C12.0775 0.648755 11.2875 0.452505 10.86 0.385005C10.1662 0.275005 9.24125 0.307505 8.5675 0.288755C7.11 0.248755 4.1275 0.183755 2.735 1.40376C2.26 1.82001 1.78125 2.38626 1.37375 2.54876C0.519998 2.88876 0.446248 4.00126 0.484998 5.40751C0.503748 6.08751 0.269998 7.99625 1.095 8.45875C2.2525 9.1075 4.215 9.5975 4.8675 10.11C5.9375 10.9513 6.5625 12.32 6.8475 13.1213C7.39 14.6475 7.555 15.75 8.50375 15.75C10.1662 15.75 10.1225 14.265 10.1537 13.5225C10.215 12.0688 8.42125 9.37876 8.9325 9.22501V9.22501Z" fill="#FAC036"/>
<path d="M7.5025 5.8825C7.51875 5.13375 8.09625 4.8125 8.1225 4.79875C7.79125 4.80625 7.07375 4.47 7.07375 3.75625C7.07375 3.1675 7.39375 2.70875 7.715 2.5525C7.50375 2.5075 7.105 2.22 7.105 1.5925C7.105 0.672497 7.7875 0.336247 8.30375 0.272497C8.82 0.208747 10.255 0.294997 10.7287 0.367497C10.9825 0.406247 9.47125 0.423747 8.365 0.568747C8.0475 0.609997 7.66875 0.908747 7.6075 1.31125C7.6075 1.31125 7.5175 1.8425 8.0025 2.14875C8.0025 2.14875 8.2075 2.325 9.15875 2.3175L9.44625 2.31375C9.53625 2.3075 10.685 2.2675 11.0675 2.24C11.2362 2.2275 11.3812 2.20375 11.5062 2.16875C11.4862 2.1975 11.4637 2.245 11.4712 2.31375C11.4875 2.45875 11.5825 2.465 11.6075 2.465L11.38 2.4775L10.57 2.52375C9.7625 2.5725 8.625 2.65 8.49375 2.7025C8.49375 2.7025 7.70125 2.9025 7.70125 3.715C7.70125 3.715 7.66 4.40625 8.7175 4.43875C8.7175 4.43875 11.2162 4.5825 12.2737 4.4425C12.2737 4.4425 12.1225 4.72375 12.3725 4.85C12.3725 4.85 10.5887 4.80625 9.47125 4.77625C8.35375 4.74625 8.115 5.34 8.08625 5.66375C8.0825 5.7125 8.0725 5.79 8.0725 5.88125C8.0725 6.525 8.6375 6.61 9.44625 6.715C11.1912 6.94375 11.93 7.015 11.93 7.015C12.0262 7.02625 12.1175 7.0325 12.2062 7.03125C12.1575 7.05875 12.0912 7.11 12.0825 7.195C12.0775 7.25 12.105 7.33375 12.105 7.33375C12.105 7.33375 11.3525 7.2725 10.1912 7.1175C9.03125 6.9625 8.10375 7.03375 8.02 7.7125C7.95875 8.21 8.0425 8.52625 8.2575 8.7725C8.5225 9.07625 8.94875 9.2275 8.94875 9.2275C8.94875 9.2275 8.9 9.2375 8.8725 9.27375C8.845 9.31125 8.84375 9.37 8.84375 9.37C7.8975 9.25 7.25 8.64875 7.30375 7.87625C7.34125 7.3475 7.48125 6.995 7.8325 6.82375C7.83375 6.825 7.48625 6.63 7.5025 5.8825V5.8825Z" fill="#E48C15"/>
<path d="M7.88875 7.56002L7.47375 7.44002C7.47375 7.44002 8.08875 5.17627 5.81875 3.61627C5.81875 3.61627 5.5275 3.42127 5.66875 3.27502C5.66875 3.27502 5.7675 3.10502 6.185 3.42377C6.185 3.42502 8.4 4.87002 7.88875 7.56002V7.56002Z" fill="#E48C15"/>
</svg>
