<svg width="28" height="28" viewBox="0 0 28 28" fill="none" xmlns="http://www.w3.org/2000/svg">
<path d="M13.9199 0C6.2447 0 0 6.2447 0 13.9199C0 21.5958 6.2447 27.8398 13.9199 27.8398C21.5958 27.8398 27.8398 21.5958 27.8398 13.9199C27.8398 6.2447 21.5958 0 13.9199 0ZM14.6159 9.60972C16.2505 9.54321 17.8358 9.24026 19.3256 8.7332C19.831 10.1464 20.1315 11.66 20.2012 13.2235L14.6159 13.2232V9.60972ZM14.6159 8.2171V2.26596C16.403 3.58842 17.8264 5.37893 18.7939 7.44418C17.4707 7.88573 16.0658 8.15297 14.6159 8.2171ZM13.224 2.26596V8.21735C11.7743 8.15254 10.3691 7.88528 9.04658 7.44349C10.0136 5.378 11.4374 3.58798 13.224 2.26603V2.26596ZM13.224 9.60997V13.2237H7.63868C7.70786 11.6604 8.00862 10.1474 8.51402 8.73488C10.0035 9.24124 11.5893 9.54347 13.224 9.60997ZM6.24725 13.2237H1.41225C1.5545 10.6353 2.48763 8.25495 3.97178 6.31716C4.96196 7.07816 6.0528 7.72021 7.21897 8.23189C6.65241 9.80292 6.3179 11.4854 6.24725 13.2234V13.2237ZM6.24725 14.6155C6.31813 16.3553 6.65311 18.0395 7.2199 19.6117C6.05523 20.1231 4.96407 20.765 3.97488 21.526C2.48856 19.5881 1.55449 17.2061 1.41225 14.6157L6.24725 14.6155ZM7.63843 14.6155H13.2237V18.2305C11.5891 18.297 10.004 18.6004 8.51477 19.1083C8.00865 17.6943 7.70766 16.1803 7.63843 14.6155ZM13.2237 19.6229V25.5738C11.4371 24.2518 10.0137 22.462 9.04633 20.397C10.369 19.9545 11.7738 19.6869 13.2237 19.6229ZM14.6156 25.5733V19.6224C16.065 19.6872 17.4703 19.954 18.7933 20.396C17.826 22.4612 16.4027 24.2512 14.6156 25.5732V25.5733ZM14.6156 18.2305V14.6155H20.2009C20.1317 16.18 19.831 17.6945 19.3244 19.1085C17.8354 18.6009 16.2503 18.2975 14.6157 18.2305H14.6156ZM21.5923 14.6155H26.4273C26.2851 17.2068 25.35 19.5894 23.8632 21.5277C22.8738 20.7667 21.7836 20.1239 20.6192 19.6119C21.1865 18.0397 21.5215 16.3553 21.5923 14.6153V14.6155ZM21.5923 13.2237C21.5215 11.4851 21.187 9.80174 20.6201 8.22997C21.7855 7.7185 22.8771 7.07691 23.8668 6.31641C25.3517 8.25377 26.2848 10.6348 26.427 13.2242L21.5923 13.2237ZM22.9561 5.25639C22.0827 5.92075 21.1229 6.48538 20.0983 6.93858C19.1295 4.83761 17.7242 2.99303 15.974 1.56301C18.6974 2.01427 21.1246 3.34644 22.9564 5.25639H22.9561ZM11.8655 1.56301C10.1158 2.99303 8.71052 4.83736 7.74128 6.93809C6.71717 6.4844 5.75638 5.921 4.88272 5.25657C6.7145 3.34669 9.14216 2.01423 11.8657 1.56295L11.8655 1.56301ZM4.88627 22.5858C5.75943 21.9215 6.71848 21.3563 7.7424 20.9026C8.7112 23.0024 10.1162 24.8463 11.8652 26.276C9.14377 25.825 6.71754 24.4943 4.88658 22.5858H4.88627ZM15.9756 26.2763C17.725 24.846 19.1298 23.0017 20.0991 20.9012C21.1232 21.3546 22.084 21.918 22.9576 22.5827C21.1258 24.4926 18.6982 25.8246 15.9753 26.2763L15.9756 26.2763Z" fill="black"/>
</svg>
