<svg width="42" height="42" viewBox="0 0 24 24" fill="none" xmlns="http://www.w3.org/2000/svg">
<path fill-rule="evenodd" clip-rule="evenodd" d="M21.5423 5.40662C21.0117 4.56167 20.0714 4 19 4H5L4.8007 4.00651C3.8126 4.07132 2.95508 4.61452 2.45759 5.40673C2.32495 5.61793 2.41154 5.88824 2.62359 6.0195L11.4735 11.498L11.5839 11.5572C11.8855 11.6952 12.2395 11.6755 12.5262 11.498L21.3764 6.01941L21.4423 5.97078C21.6049 5.8288 21.6603 5.59435 21.5423 5.40662ZM21.9936 8.80161C21.9391 8.45942 21.5461 8.26652 21.2368 8.45799L13.579 13.1986L13.3947 13.3039C12.4595 13.7952 11.3278 13.7601 10.4208 13.1986L2.76318 8.45812L2.69051 8.42065C2.37083 8.28692 2 8.51948 2 8.88326V17L2.00509 17.1763C2.09634 18.7511 3.40232 20 5 20H19L19.1763 19.9949C20.7511 19.9037 22 18.5977 22 17V8.88312L21.9936 8.80161Z" fill="#71AFAC"/>
</svg>
