<svg width="20" height="12" viewBox="0 0 20 12" fill="none" xmlns="http://www.w3.org/2000/svg">
<path d="M2.89641 8.56956C5.18448 10.3167 7.55561 11.232 9.76041 11.232C11.9652 11.232 14.3364 10.3167 16.6244 8.56956C18.3301 7.28 19.3701 5.99033 19.4325 5.92793C19.5781 5.74076 19.5781 5.47033 19.4325 5.26225C19.3699 5.24165 18.3299 3.95196 16.6244 2.6624C14.3363 0.915237 11.9652 0 9.76041 0C7.55561 0 5.18441 0.915237 2.89641 2.6624C1.19089 3.95196 0.15089 5.24164 0.109253 5.28316C-0.0364176 5.47033 -0.0364176 5.74076 0.109253 5.94884C0.150894 5.99033 1.19089 7.28004 2.89641 8.5696V8.56956ZM9.76041 1.03996C13.8164 1.03996 17.3108 4.51356 18.33 5.61596C17.3109 6.71836 13.8164 10.192 9.76041 10.192C5.70441 10.192 2.21001 6.71836 1.19081 5.61596C2.20994 4.51356 5.70441 1.03996 9.76041 1.03996Z" fill="black"/>
<path d="M9.76011 9.46405C11.8817 9.46405 13.6081 7.73766 13.6081 5.61606C13.6081 3.49446 11.8817 1.76807 9.76011 1.76807C7.63851 1.76807 5.91211 3.49446 5.91211 5.61606C5.91211 7.73766 7.63851 9.46405 9.76011 9.46405ZM9.76011 2.80806C11.2993 2.80806 12.5682 4.07686 12.5682 5.61613C12.5682 7.15541 11.2994 8.4242 9.76011 8.4242C8.22083 8.4242 6.95204 7.15541 6.95204 5.61613C6.95204 4.07686 8.22083 2.80806 9.76011 2.80806Z" fill="black"/>
</svg>
