<svg width="16" height="26" viewBox="0 0 16 26" fill="none" xmlns="http://www.w3.org/2000/svg">
<path fill-rule="evenodd" clip-rule="evenodd" d="M5.98424 2.05025C7.29699 0.737498 9.07747 0 10.934 0H14.534C15.0863 0 15.534 0.447715 15.534 1V5.8C15.534 6.35228 15.0863 6.8 14.534 6.8H10.934C10.8809 6.8 10.8301 6.82107 10.7926 6.85858C10.7551 6.89609 10.734 6.94696 10.734 7V9.6H14.534C14.8419 9.6 15.1327 9.74187 15.3222 9.98459C15.5117 10.2273 15.5788 10.5438 15.5041 10.8425L14.3041 15.6425C14.1928 16.0877 13.7929 16.4 13.334 16.4H10.734V25C10.734 25.5523 10.2863 26 9.73398 26H4.93398C4.3817 26 3.93398 25.5523 3.93398 25V16.4H1.33398C0.7817 16.4 0.333984 15.9523 0.333984 15.4V10.6C0.333984 10.0477 0.7817 9.6 1.33398 9.6H3.93398V7C3.93398 5.14348 4.67148 3.36301 5.98424 2.05025ZM10.934 2C9.6079 2 8.33613 2.52678 7.39845 3.46447C6.46077 4.40215 5.93398 5.67392 5.93398 7V10.6C5.93398 11.1523 5.48627 11.6 4.93398 11.6H2.33398V14.4H4.93398C5.48627 14.4 5.93398 14.8477 5.93398 15.4V24H8.73398V15.4C8.73398 14.8477 9.1817 14.4 9.73398 14.4H12.5532L13.2532 11.6H9.73398C9.1817 11.6 8.73398 11.1523 8.73398 10.6V7C8.73398 6.41652 8.96577 5.85695 9.37835 5.44437C9.79093 5.03179 10.3505 4.8 10.934 4.8H13.534V2H10.934Z" fill="#71AFAC"/>
</svg>
