<svg width="34" height="34" viewBox="0 0 34 34" fill="none" xmlns="http://www.w3.org/2000/svg">
<path d="M5.66797 9.63301C5.66797 7.25278 5.66797 6.06267 6.13119 5.15355C6.53865 4.35386 7.18882 3.70369 7.98851 3.29623C8.89763 2.83301 10.0877 2.83301 12.468 2.83301H20.7902C21.4832 2.83301 21.8297 2.83301 22.1558 2.91129C22.4449 2.9807 22.7213 3.09518 22.9748 3.25053C23.2607 3.42575 23.5057 3.67076 23.9958 4.16079L27.0069 7.17189C27.4969 7.66192 27.7419 7.90694 27.9171 8.19287C28.0725 8.44637 28.1869 8.72275 28.2563 9.01185C28.3346 9.33793 28.3346 9.68444 28.3346 10.3774V24.3663C28.3346 26.7466 28.3346 27.9367 27.8714 28.8458C27.4639 29.6455 26.8138 30.2957 26.0141 30.7031C25.105 31.1663 23.9149 31.1663 21.5346 31.1663H12.468C10.0877 31.1663 8.89763 31.1663 7.98851 30.7031C7.18882 30.2957 6.53865 29.6455 6.13119 28.8458C5.66797 27.9367 5.66797 26.7466 5.66797 24.3663V9.63301Z" fill="#BCE0DF"/>
<path d="M12.7487 17C11.9663 17 11.332 17.6343 11.332 18.4167C11.332 19.1991 11.9663 19.8333 12.7487 19.8333H21.2487C22.0311 19.8333 22.6654 19.1991 22.6654 18.4167C22.6654 17.6343 22.0311 17 21.2487 17H12.7487Z" fill="#71AFAC"/>
<path d="M12.7487 22.6667C11.9663 22.6667 11.332 23.3009 11.332 24.0833C11.332 24.8657 11.9663 25.5 12.7487 25.5H16.9987C17.7811 25.5 18.4154 24.8657 18.4154 24.0833C18.4154 23.3009 17.7811 22.6667 16.9987 22.6667H12.7487Z" fill="#71AFAC"/>
<path d="M19.832 4.83648C19.832 3.72999 20.729 2.83301 21.8355 2.83301C22.3669 2.83301 22.8764 3.04409 23.2522 3.41981L27.7452 7.91287C28.121 8.2886 28.332 8.79819 28.332 9.32954C28.332 10.436 27.435 11.333 26.3286 11.333H22.6654C21.1006 11.333 19.832 10.0645 19.832 8.49967V4.83648Z" fill="#71AFAC"/>
</svg>
