<?xml version="1.0" encoding="utf-8"?>
<!-- Generator: Adobe Illustrator 25.4.7, SVG Export Plug-In . SVG Version: 6.00 Build 0)  -->
<svg version="1.1" id="Layer_1" xmlns="http://www.w3.org/2000/svg" xmlns:xlink="http://www.w3.org/1999/xlink" x="0px" y="0px"
	 viewBox="0 0 584.5 213" style="enable-background:new 0 0 584.5 213;" xml:space="preserve">
<style type="text/css">
	.st0{fill-rule:evenodd;clip-rule:evenodd;fill:#EFEFEF;}
	.st1{fill-rule:evenodd;clip-rule:evenodd;fill:#CCCCCC;}
	.st2{fill-rule:evenodd;clip-rule:evenodd;fill:#FFFFFF;}
	.st3{fill:#FFFFFF;}
	.st4{fill:#B4B3B4;}
</style>
<g>
	<polygon class="st0" points="70.6,213 28.8,123.6 48.6,128.8 70.6,213 	"/>
	<polygon class="st0" points="48.6,128.8 28.8,123.6 68.8,94.3 48.6,128.8 	"/>
	<polygon class="st1" points="70.6,213 28.8,123.6 8.1,119.3 70.6,213 	"/>
	<polygon class="st0" points="28.8,123.6 8.1,119.3 68.8,94.3 28.8,123.6 	"/>
	<polygon class="st2" points="0,103.2 71.6,0 71.6,58 0,103.2 	"/>
	<polygon class="st1" points="71.6,58 0,103.2 86,69.8 71.6,58 	"/>
	<polygon class="st0" points="71.6,58 86,69.8 71.6,0 71.6,58 	"/>
	<polygon class="st2" points="87.3,0 129.1,89.4 109.3,84.2 87.3,0 	"/>
	<polygon class="st1" points="109.3,84.2 129.1,89.4 89.1,118.8 109.3,84.2 	"/>
	<polygon class="st0" points="87.3,0 129.1,89.4 149.8,93.7 87.3,0 	"/>
	<polygon class="st0" points="129.1,89.4 149.8,93.7 89.1,118.8 129.1,89.4 	"/>
	<polygon class="st0" points="157.9,109.8 86.3,213 86.3,155.1 157.9,109.8 	"/>
	<polygon class="st2" points="86.3,155.1 157.9,109.8 71.9,143.2 86.3,155.1 	"/>
	<polygon class="st1" points="86.3,155.1 71.9,143.2 86.3,213 86.3,155.1 	"/>
	<polygon class="st3" points="261.9,108.6 261.9,122.2 228.1,122.2 228.1,149.2 211.3,149.2 211.3,108.6 	"/>
	<rect x="211.3" y="74.6" class="st3" width="55.8" height="14.7"/>
	<polygon class="st3" points="380.5,105.2 380.5,149.2 363.8,149.2 363.8,75.4 378.3,75.4 413.4,119.5 413.4,75.4 431.4,75.4 
		431.4,149.2 416.8,149.2 	"/>
	<rect x="527.4" y="75.4" class="st3" width="55.8" height="14.7"/>
	<polygon class="st3" points="578.4,118.8 578.4,106.1 527.4,106.1 527.4,149.2 584.5,149.2 584.5,136.1 544,136.1 544,118.8 	"/>
	<path class="st3" d="M351.7,73.9v44.4c0,17-13.8,30.8-30.8,30.8h-5c-17,0-30.8-13.8-30.9-30.8V73.9h16.6v44.5
		c0.2,9.3,8,16.7,17.3,16.5c9-0.2,16.3-7.5,16.5-16.5V73.9H351.7z"/>
	<path class="st3" d="M495.6,132l14.4,8.2c-3.4,2.5-7.2,4.6-11.2,6.1c-5.5,1.9-11.3,2.9-17.1,2.9c-4.8-0.1-17.8-0.3-27.7-9.3
		c-3.6-3.4-6.5-7.5-8.6-12c-1.3-2.8-2.2-5.7-2.7-8.8c-0.4-2.3-0.6-4.7-0.5-7.1c0.3-8.2,3-16.2,7.9-22.8c4.6-5.5,10.7-9.7,17.5-11.9
		c4.6-1.4,9.4-2.1,14.2-1.8c4.4-0.1,8.7,0.5,12.9,1.8c4.7,1.5,9.1,3.8,13,6.8l3.9,3.7L501.4,97c-8.2-10.6-23.4-12.5-33.9-4.3
		s-12.5,23.4-4.3,33.9C470.9,136.6,485,139,495.6,132L495.6,132z"/>
	<polygon class="st3" points="495.5,132 495.5,111.8 510,111.4 510,140.2 	"/>
	<path class="st4" d="M505.5,110.4h3.4"/>
</g>
</svg>
