<svg width="35" height="29" viewBox="0 0 35 29" fill="none" xmlns="http://www.w3.org/2000/svg">
<path d="M7.06011 5.59125C6.67274 5.38267 6.20422 5.39309 5.82651 5.6187C5.44879 5.84431 5.21749 6.25188 5.21749 6.69184V22.5252C5.21749 23.2155 5.77713 23.7752 6.46749 23.7752C7.15785 23.7752 7.71749 23.2155 7.71749 22.5252V8.78461L16.7082 13.6258C17.0782 13.825 17.5235 13.825 17.8934 13.6258L26.8842 8.78461V22.5252C26.8842 23.2155 27.4438 23.7752 28.1342 23.7752C28.8245 23.7752 29.3842 23.2155 29.3842 22.5252V6.69184C29.3842 6.25188 29.1529 5.84431 28.7751 5.6187C28.3974 5.39309 27.9289 5.38267 27.5415 5.59125L17.3008 11.1055L7.06011 5.59125Z" fill="#71AFAC"/>
<path fill-rule="evenodd" clip-rule="evenodd" d="M26.1518 0.394903C20.2629 -0.131634 14.3388 -0.131634 8.44987 0.394903L5.92096 0.621017C3.20827 0.863563 1.01648 2.93593 0.622499 5.6308C-0.2075 11.308 -0.2075 17.0757 0.622499 22.7529C1.01648 25.4478 3.20827 27.5201 5.92096 27.7627L8.44987 27.9888C14.3388 28.5153 20.2629 28.5153 26.1518 27.9888L28.6807 27.7627C31.3934 27.5201 33.5852 25.4478 33.9792 22.7529C34.8092 17.0757 34.8092 11.308 33.9792 5.63079C33.5852 2.93593 31.3934 0.863563 28.6807 0.621017L26.1518 0.394903ZM8.67251 2.88497C14.4133 2.37168 20.1884 2.37168 25.9292 2.88497L28.4581 3.11108C30.0183 3.25058 31.2789 4.4425 31.5055 5.99245C32.3004 11.4298 32.3004 16.9539 31.5055 22.3912C31.2789 23.9412 30.0183 25.1331 28.4581 25.2726L25.9292 25.4987C20.1884 26.012 14.4133 26.012 8.67251 25.4987L6.1436 25.2726C4.5834 25.1331 3.3228 23.9412 3.0962 22.3912C2.30127 16.9539 2.30127 11.4298 3.0962 5.99245C3.3228 4.4425 4.5834 3.25058 6.1436 3.11108L8.67251 2.88497Z" fill="#71AFAC"/>
</svg>
