<svg width="14" height="16" viewBox="0 0 14 16" fill="none" xmlns="http://www.w3.org/2000/svg">
<path d="M8.9325 6.775C9.70125 6.5575 11.0637 6.58625 11.4625 6.615C12.16 6.665 12.8575 6.65 12.9775 7.49625C13.0575 8.06625 12.8662 8.585 12.0212 8.6775C11.7237 8.71 11.36 8.7275 11.06 8.775L10.825 9.03375C11.1025 8.99625 11.7387 9.00875 11.93 8.985C12.7375 8.88625 13.42 9.21 13.5225 9.98625C13.6125 10.6662 13.1 11.1912 12.3725 11.1512C12.1237 11.1375 11.4212 11.2337 10.7237 11.2525L10.67 11.3938L10.645 11.4362C11.0875 11.4487 11.5112 11.4662 11.8125 11.4812C12.6187 11.5212 13.0587 11.9538 13.0475 12.5288C13.0337 13.2275 12.38 13.49 11.9125 13.5288C11.5625 13.5575 10.31 13.5213 9.46875 13.4525L9.33625 13.6788C9.39625 13.68 11.0075 13.7575 11.0687 13.7612C11.8075 13.8162 12.1225 14.0837 12.1037 14.6112C12.0775 15.3512 11.2875 15.5475 10.86 15.615C10.1662 15.725 9.24125 15.6925 8.5675 15.7113C7.11 15.7513 4.1275 15.8162 2.735 14.5962C2.26 14.18 1.78125 13.6138 1.37375 13.4513C0.519998 13.1113 0.446248 11.9987 0.484998 10.5925C0.503748 9.9125 0.269998 8.00375 1.095 7.54125C2.2525 6.8925 4.215 6.4025 4.8675 5.89C5.9375 5.04875 6.5625 3.68 6.8475 2.87875C7.39 1.3525 7.555 0.25 8.50375 0.25C10.1662 0.25 10.1225 1.735 10.1537 2.4775C10.215 3.93125 8.42125 6.62125 8.9325 6.775V6.775Z" fill="#FAC036"/>
<path d="M7.5025 10.1175C7.51875 10.8663 8.09625 11.1875 8.1225 11.2013C7.79125 11.1938 7.07375 11.53 7.07375 12.2438C7.07375 12.8325 7.39375 13.2913 7.715 13.4475C7.50375 13.4925 7.105 13.78 7.105 14.4075C7.105 15.3275 7.7875 15.6638 8.30375 15.7275C8.82 15.7913 10.255 15.705 10.7287 15.6325C10.9825 15.5938 9.47125 15.5763 8.365 15.4313C8.0475 15.39 7.66875 15.0913 7.6075 14.6888C7.6075 14.6888 7.5175 14.1575 8.0025 13.8513C8.0025 13.8513 8.2075 13.675 9.15875 13.6825L9.44625 13.6863C9.53625 13.6925 10.685 13.7325 11.0675 13.76C11.2362 13.7725 11.3812 13.7963 11.5062 13.8313C11.4862 13.8025 11.4637 13.755 11.4712 13.6863C11.4875 13.5413 11.5825 13.535 11.6075 13.535L11.38 13.5225L10.57 13.4763C9.7625 13.4275 8.625 13.35 8.49375 13.2975C8.49375 13.2975 7.70125 13.0975 7.70125 12.285C7.70125 12.285 7.66 11.5938 8.7175 11.5613C8.7175 11.5613 11.2162 11.4175 12.2737 11.5575C12.2737 11.5575 12.1225 11.2763 12.3725 11.15C12.3725 11.15 10.5887 11.1938 9.47125 11.2238C8.35375 11.2538 8.115 10.66 8.08625 10.3363C8.0825 10.2875 8.0725 10.21 8.0725 10.1188C8.0725 9.475 8.6375 9.39 9.44625 9.285C11.1912 9.05625 11.93 8.985 11.93 8.985C12.0262 8.97375 12.1175 8.9675 12.2062 8.96875C12.1575 8.94125 12.0912 8.89001 12.0825 8.80501C12.0775 8.75001 12.105 8.66625 12.105 8.66625C12.105 8.66625 11.3525 8.7275 10.1912 8.8825C9.03125 9.0375 8.10375 8.96626 8.02 8.28751C7.95875 7.79001 8.0425 7.47375 8.2575 7.2275C8.5225 6.92375 8.94875 6.7725 8.94875 6.7725C8.94875 6.7725 8.9 6.7625 8.8725 6.72625C8.845 6.68875 8.84375 6.63 8.84375 6.63C7.8975 6.75 7.25 7.35125 7.30375 8.12375C7.34125 8.6525 7.48125 9.00501 7.8325 9.17626C7.83375 9.17501 7.48625 9.37001 7.5025 10.1175V10.1175Z" fill="#E48C15"/>
<path d="M7.88875 8.44L7.47375 8.56C7.47375 8.56 8.08875 10.8238 5.81875 12.3838C5.81875 12.3838 5.5275 12.5788 5.66875 12.725C5.66875 12.725 5.7675 12.895 6.185 12.5763C6.185 12.575 8.4 11.13 7.88875 8.44Z" fill="#E48C15"/>
</svg>
