<svg width="100" height="37" viewBox="0 0 100 37" fill="none" xmlns="http://www.w3.org/2000/svg">
<path fill-rule="evenodd" clip-rule="evenodd" d="M12.0818 36.4431L4.93042 21.148L8.31108 22.0427L12.0818 36.4431Z" fill="#011C23"/>
<path fill-rule="evenodd" clip-rule="evenodd" d="M8.31108 22.0427L4.93042 21.148L11.7722 16.1266L8.31108 22.0427Z" fill="#092D36"/>
<path fill-rule="evenodd" clip-rule="evenodd" d="M12.082 36.4431L4.93065 21.148L1.38916 20.4106L12.082 36.4431Z" fill="#092D36"/>
<path fill-rule="evenodd" clip-rule="evenodd" d="M4.93065 21.148L1.38916 20.4106L11.7724 16.1266L4.93065 21.148Z" fill="#0D3642"/>
<path fill-rule="evenodd" clip-rule="evenodd" d="M0 17.6612L12.2532 0V9.91616L0 17.6612Z" fill="#0D3642"/>
<path fill-rule="evenodd" clip-rule="evenodd" d="M12.2532 9.91616L0 17.6612L14.7151 11.947L12.2532 9.91616Z" fill="#011C23"/>
<path fill-rule="evenodd" clip-rule="evenodd" d="M12.2532 9.91616L14.7151 11.947L12.2532 0V9.91616Z" fill="#092D36"/>
<path fill-rule="evenodd" clip-rule="evenodd" d="M14.9341 0L22.0872 15.2951L18.7065 14.4003L14.9341 0Z" fill="#67C4C0"/>
<path fill-rule="evenodd" clip-rule="evenodd" d="M18.7064 14.4003L22.0871 15.2951L15.2454 20.3165L18.7064 14.4003Z" fill="#49B2B2"/>
<path fill-rule="evenodd" clip-rule="evenodd" d="M14.9341 0L22.0872 15.2951L25.627 16.0325L14.9341 0Z" fill="#49B2B2"/>
<path fill-rule="evenodd" clip-rule="evenodd" d="M22.0871 15.2951L25.6269 16.0325L15.2454 20.3165L22.0871 15.2951Z" fill="#1C979C"/>
<path fill-rule="evenodd" clip-rule="evenodd" d="M27.0161 18.7819L14.7629 36.4431V26.5269L27.0161 18.7819Z" fill="#49B2B2"/>
<path fill-rule="evenodd" clip-rule="evenodd" d="M14.763 26.5269L27.0162 18.7819L12.301 24.4961L14.763 26.5269Z" fill="#67C4C0"/>
<path fill-rule="evenodd" clip-rule="evenodd" d="M14.763 26.5269L12.301 24.4961L14.763 36.4431V26.5269Z" fill="#1C979C"/>
<path d="M44.8125 18.5868V20.9016H39.0178V25.5244H36.1538V18.5868H44.8125Z" fill="#B4B3B4"/>
<path d="M45.6919 12.7647H36.1538V15.2712H45.6919V12.7647Z" fill="#0A5465"/>
<path d="M65.1015 18.0017V25.5244H62.2358V12.905H64.7303L70.7268 20.4414V12.905H73.8047V25.5244H71.3103L65.1015 18.0017Z" fill="#B4B3B4"/>
<path d="M99.7776 12.905H90.2395V15.4115H99.7776V12.905Z" fill="#0A5465"/>
<path d="M98.9495 20.3302V18.1522H90.2395V25.5243H100V23.2934H93.0727V20.3302H98.9495Z" fill="#B4B3B4"/>
<path d="M60.1778 12.6467V20.2498C60.1738 21.6474 59.6167 22.9867 58.6284 23.975C57.6401 24.9633 56.3009 25.5203 54.9032 25.5243H54.0392C52.6407 25.5216 51.3001 24.9652 50.3107 23.9768C49.3213 22.9883 48.7636 21.6483 48.7595 20.2498V12.6467H51.5961V20.2532C51.6145 21.0072 51.9269 21.7241 52.4666 22.2509C53.0064 22.7776 53.7307 23.0725 54.4849 23.0725C55.2391 23.0725 55.9634 22.7776 56.5032 22.2509C57.043 21.7241 57.3554 21.0072 57.3737 20.2532V12.6467H60.1778Z" fill="#B4B3B4"/>
<path d="M84.785 22.5834L87.2487 23.9863C86.6616 24.4198 86.0173 24.7698 85.3342 25.0265C84.3969 25.3599 83.4086 25.5272 82.4138 25.5209C81.5857 25.509 79.3616 25.4713 77.6747 23.923C77.0575 23.337 76.5556 22.6407 76.1948 21.87C75.9794 21.3913 75.8236 20.8879 75.7311 20.3712C75.6633 19.9706 75.6318 19.5646 75.637 19.1582C75.6826 17.7517 76.1539 16.3921 76.9886 15.2592C77.7783 14.3111 78.8188 13.6044 79.9912 13.2198C80.7747 12.9741 81.5953 12.8682 82.4155 12.9067C83.1613 12.8961 83.9044 12.9993 84.6191 13.213C85.426 13.464 86.1799 13.8612 86.8432 14.3849L87.5036 15.0162L85.7756 16.5954C85.2824 15.9594 84.6145 15.4811 83.8536 15.2191C83.0927 14.9571 82.2719 14.9226 81.4917 15.1201C80.7116 15.3175 80.0059 15.7381 79.4613 16.3306C78.9166 16.923 78.5565 17.6614 78.4252 18.4553C78.2938 19.2493 78.3969 20.0643 78.7218 20.8006C79.0467 21.5368 79.5792 22.1624 80.2543 22.6005C80.9293 23.0386 81.7174 23.2704 82.5222 23.2673C83.3269 23.2643 84.1133 23.0266 84.785 22.5834V22.5834Z" fill="#B4B3B4"/>
<path d="M84.7817 22.5851V19.1189L87.2608 19.0556L87.2488 23.9829L84.7817 22.5851Z" fill="#B4B3B4"/>
</svg>
