<svg width="45" height="45" viewBox="0 0 45 45" fill="none" xmlns="http://www.w3.org/2000/svg">
<path fill-rule="evenodd" clip-rule="evenodd" d="M30 3.75C32.9957 3.75 35.4444 6.09173 35.6155 9.04449L35.625 9.375V35.625C35.625 38.6207 33.2833 41.0694 30.3305 41.2405L30 41.25H15C12.0043 41.25 9.55564 38.9083 9.38455 35.9555L9.375 35.625V9.375C9.375 6.37935 11.7167 3.93064 14.6695 3.75955L15 3.75H30ZM28.4375 6.5625H16.5625C16.2173 6.5625 15.9375 6.84232 15.9375 7.1875C15.9375 8.91339 17.3366 10.3125 19.0625 10.3125H25.9375C27.6634 10.3125 29.0625 8.91339 29.0625 7.1875C29.0625 6.84232 28.7827 6.5625 28.4375 6.5625Z" fill="#71AFAC"/>
</svg>
