<svg width="32" height="28" viewBox="0 0 32 28" fill="none" xmlns="http://www.w3.org/2000/svg">
<path d="M22.647 15.9996C22.647 17.0655 21.783 17.9295 20.7172 17.9295C19.6514 17.9295 18.7874 17.0655 18.7874 15.9996C18.7874 14.9338 19.6514 14.0698 20.7172 14.0698C21.783 14.0698 22.647 14.9338 22.647 15.9996Z" fill="#71AFAC"/>
<path d="M11.2772 17.9295C12.343 17.9295 13.207 17.0655 13.207 15.9996C13.207 14.9338 12.343 14.0698 11.2772 14.0698C10.2113 14.0698 9.34733 14.9338 9.34733 15.9996C9.34733 17.0655 10.2113 17.9295 11.2772 17.9295Z" fill="#71AFAC"/>
<path d="M11.8008 20.1714C11.3337 19.8768 10.7162 20.0166 10.4215 20.4837C10.1269 20.9508 10.2667 21.5684 10.7338 21.863L11.1937 22.1531C14.1274 24.0037 17.8634 24.0037 20.7971 22.1531L21.257 21.863C21.7241 21.5684 21.8639 20.9508 21.5692 20.4837C21.2746 20.0166 20.657 19.8768 20.1899 20.1714L19.73 20.4615C17.4483 21.9009 14.5425 21.9009 12.2607 20.4615L11.8008 20.1714Z" fill="#71AFAC"/>
<path fill-rule="evenodd" clip-rule="evenodd" d="M26.6147 0.333008C25.4495 0.333008 24.4333 0.971155 23.8967 1.91702L19.0963 0.932322C18.6301 0.836699 18.1612 1.08283 17.975 1.52078C17.4273 2.80957 16.6054 4.76284 15.9198 6.43414C15.6771 7.02574 15.4504 7.5845 15.2586 8.0672C12.5301 8.17711 10.0015 8.89 7.93333 10.0469C7.22029 8.85307 5.91542 8.05229 4.4217 8.05229C2.16412 8.05229 0.333984 9.88242 0.333984 12.14C0.333984 13.8672 1.40439 15.3424 2.9172 15.9416C2.74259 16.5798 2.64974 17.2442 2.64974 17.9295C2.64974 20.7848 4.26178 23.2779 6.68359 25.0186C9.10698 26.7604 12.4042 27.8067 16.0006 27.8067C19.597 27.8067 22.8943 26.7604 25.3176 25.0186C27.7394 23.2779 29.3515 20.7848 29.3515 17.9295C29.3515 17.2442 29.2586 16.5798 29.084 15.9417C30.5964 15.3426 31.6673 13.8675 31.6673 12.14C31.6673 9.88242 29.8372 8.05229 27.5796 8.05229C26.0859 8.05229 24.781 8.85308 24.0679 10.047C22.1664 8.98325 19.8757 8.2949 17.3983 8.10544C17.5151 7.81672 17.6399 7.51051 17.7701 7.19322C18.3287 5.83159 18.9794 4.27901 19.4965 3.05606L23.5206 3.88152C23.7283 5.40481 25.0344 6.57862 26.6147 6.57862C28.3393 6.57862 29.7375 5.18049 29.7375 3.45581C29.7375 1.73114 28.3393 0.333008 26.6147 0.333008ZM25.4919 3.45581C25.4919 2.83571 25.9946 2.33301 26.6147 2.33301C27.2348 2.33301 27.7375 2.83571 27.7375 3.45581C27.7375 4.07592 27.2348 4.57862 26.6147 4.57862C25.9946 4.57862 25.4919 4.07592 25.4919 3.45581ZM16.0006 10.0523C16.2064 10.0523 16.4107 10.0561 16.6135 10.0637C16.6115 10.1021 16.6077 10.1306 16.6057 10.1443C16.6024 10.1667 16.5991 10.1824 16.5977 10.1883L16.5959 10.1962L16.5995 10.1835C16.6067 10.1587 16.6191 10.1198 16.6379 10.0646C19.6038 10.1795 22.2394 11.0909 24.1504 12.4644C26.1987 13.9366 27.3515 15.8821 27.3515 17.9295C27.3515 19.9769 26.1987 21.9223 24.1504 23.3946C22.1036 24.8657 19.2254 25.8067 16.0006 25.8067C12.7758 25.8067 9.89762 24.8657 7.85086 23.3946C5.80253 21.9223 4.64974 19.9769 4.64974 17.9295C4.64974 15.8821 5.80253 13.9366 7.85086 12.4644C9.89762 10.9933 12.7758 10.0523 16.0006 10.0523ZM2.33398 12.14C2.33398 10.987 3.26869 10.0523 4.4217 10.0523C5.21775 10.0523 5.91161 10.4983 6.26377 11.156C5.19801 11.9945 4.31257 12.9865 3.68487 14.0943C2.89517 13.7965 2.33398 13.0328 2.33398 12.14ZM28.3164 14.0943C27.6887 12.9865 26.8032 11.9946 25.7375 11.1561C26.0897 10.4983 26.7835 10.0523 27.5796 10.0523C28.7326 10.0523 29.6673 10.987 29.6673 12.14C29.6673 13.0325 29.1066 13.7963 28.3164 14.0943Z" fill="#71AFAC"/>
</svg>
