<svg width="12" height="12" viewBox="0 0 12 12" fill="none" xmlns="http://www.w3.org/2000/svg">
<path fill-rule="evenodd" clip-rule="evenodd" d="M6.91892 3.68097L8.58842 5.43097C8.6135 5.45722 8.62575 5.48989 8.645 5.51906C8.666 5.55056 8.69108 5.57856 8.70567 5.61356C8.73425 5.68414 8.75 5.75881 8.75 5.83347C8.75 5.90989 8.73425 5.98572 8.70508 6.05689C8.67533 6.12806 8.63275 6.19281 8.5785 6.24647L6.82908 7.99589C6.601 8.22397 6.23175 8.22397 6.00425 7.99589C5.77617 7.76839 5.77617 7.39914 6.00425 7.17106L6.7585 6.41681H3.5C3.17742 6.41681 2.91667 6.15606 2.91667 5.83347C2.91667 5.51147 3.17742 5.25014 3.5 5.25014H6.80342L6.07483 4.48656C5.85258 4.25322 5.86075 3.88456 6.09408 3.66172C6.32742 3.43889 6.69667 3.44822 6.91892 3.68097M0 5.83333C0 9.05042 2.61683 11.6667 5.83333 11.6667C9.04983 11.6667 11.6667 9.05042 11.6667 5.83333C11.6667 2.61683 9.04983 0 5.83333 0C2.61683 0 0 2.61683 0 5.83333" fill="#22C55E"/>
<mask id="mask0_127_107" style="mask-type:alpha" maskUnits="userSpaceOnUse" x="0" y="0" width="12" height="12">
<path fill-rule="evenodd" clip-rule="evenodd" d="M6.91892 3.68097L8.58842 5.43097C8.6135 5.45722 8.62575 5.48989 8.645 5.51906C8.666 5.55056 8.69108 5.57856 8.70567 5.61356C8.73425 5.68414 8.75 5.75881 8.75 5.83347C8.75 5.90989 8.73425 5.98572 8.70508 6.05689C8.67533 6.12806 8.63275 6.19281 8.5785 6.24647L6.82908 7.99589C6.601 8.22397 6.23175 8.22397 6.00425 7.99589C5.77617 7.76839 5.77617 7.39914 6.00425 7.17106L6.7585 6.41681H3.5C3.17742 6.41681 2.91667 6.15606 2.91667 5.83347C2.91667 5.51147 3.17742 5.25014 3.5 5.25014H6.80342L6.07483 4.48656C5.85258 4.25322 5.86075 3.88456 6.09408 3.66172C6.32742 3.43889 6.69667 3.44822 6.91892 3.68097M0 5.83333C0 9.05042 2.61683 11.6667 5.83333 11.6667C9.04983 11.6667 11.6667 9.05042 11.6667 5.83333C11.6667 2.61683 9.04983 0 5.83333 0C2.61683 0 0 2.61683 0 5.83333" fill="white"/>
</mask>
<g mask="url(#mask0_127_107)">
<rect x="-1" y="10" width="14" height="14" fill="#22C55E"/>
</g>
</svg>
