<svg width="30" height="30" viewBox="0 0 30 30" fill="none" xmlns="http://www.w3.org/2000/svg">
<path fill-rule="evenodd" clip-rule="evenodd" d="M18.3327 0.667969C16.6737 0.667969 15.3327 2.00902 15.3327 3.66797V10.3346C15.3327 11.9936 16.6737 13.3346 18.3327 13.3346C19.9916 13.3346 21.3327 11.9936 21.3327 10.3346V3.66797C21.3327 2.00902 19.9916 0.667969 18.3327 0.667969ZM17.3327 3.66797C17.3327 3.11359 17.7783 2.66797 18.3327 2.66797C18.8871 2.66797 19.3327 3.11359 19.3327 3.66797V10.3346C19.3327 10.889 18.8871 11.3346 18.3327 11.3346C17.7783 11.3346 17.3327 10.889 17.3327 10.3346V3.66797Z" fill="#71AFAC"/>
<path fill-rule="evenodd" clip-rule="evenodd" d="M26.3327 7.33464C24.6737 7.33464 23.3327 8.67568 23.3327 10.3346V12.3346C23.3327 12.8869 23.7804 13.3346 24.3327 13.3346H26.3327C27.9916 13.3346 29.3327 11.9936 29.3327 10.3346C29.3327 8.67568 27.9916 7.33464 26.3327 7.33464ZM25.3327 10.3346C25.3327 9.78025 25.7783 9.33464 26.3327 9.33464C26.8871 9.33464 27.3327 9.78025 27.3327 10.3346C27.3327 10.889 26.8871 11.3346 26.3327 11.3346H25.3327V10.3346Z" fill="#71AFAC"/>
<path fill-rule="evenodd" clip-rule="evenodd" d="M8.66602 19.668C8.66602 18.009 10.0071 16.668 11.666 16.668C13.325 16.668 14.666 18.009 14.666 19.668V26.3346C14.666 27.9936 13.325 29.3346 11.666 29.3346C10.0071 29.3346 8.66602 27.9936 8.66602 26.3346V19.668ZM11.666 18.668C11.1116 18.668 10.666 19.1136 10.666 19.668V26.3346C10.666 26.889 11.1116 27.3346 11.666 27.3346C12.2204 27.3346 12.666 26.889 12.666 26.3346V19.668C12.666 19.1136 12.2204 18.668 11.666 18.668Z" fill="#71AFAC"/>
<path fill-rule="evenodd" clip-rule="evenodd" d="M3.66602 16.668C2.00706 16.668 0.666016 18.009 0.666016 19.668C0.666016 21.3269 2.00706 22.668 3.66602 22.668C5.32497 22.668 6.66602 21.3269 6.66602 19.668V17.668C6.66602 17.1157 6.2183 16.668 5.66602 16.668H3.66602ZM2.66602 19.668C2.66602 19.1136 3.11163 18.668 3.66602 18.668H4.66602V19.668C4.66602 20.2224 4.2204 20.668 3.66602 20.668C3.11163 20.668 2.66602 20.2224 2.66602 19.668Z" fill="#71AFAC"/>
<path fill-rule="evenodd" clip-rule="evenodd" d="M16.666 18.3346C16.666 16.6757 18.0071 15.3346 19.666 15.3346H26.3327C27.9916 15.3346 29.3327 16.6757 29.3327 18.3346C29.3327 19.9936 27.9916 21.3346 26.3327 21.3346H19.666C18.0071 21.3346 16.666 19.9936 16.666 18.3346ZM19.666 17.3346C19.1116 17.3346 18.666 17.7803 18.666 18.3346C18.666 18.889 19.1116 19.3346 19.666 19.3346H26.3327C26.8871 19.3346 27.3327 18.889 27.3327 18.3346C27.3327 17.7803 26.8871 17.3346 26.3327 17.3346H19.666Z" fill="#71AFAC"/>
<path fill-rule="evenodd" clip-rule="evenodd" d="M17.666 23.3346C17.1137 23.3346 16.666 23.7824 16.666 24.3346V26.3346C16.666 27.9936 18.0071 29.3346 19.666 29.3346C21.325 29.3346 22.666 27.9936 22.666 26.3346C22.666 24.6757 21.325 23.3346 19.666 23.3346H17.666ZM18.666 26.3346V25.3346H19.666C20.2204 25.3346 20.666 25.7803 20.666 26.3346C20.666 26.889 20.2204 27.3346 19.666 27.3346C19.1116 27.3346 18.666 26.889 18.666 26.3346Z" fill="#71AFAC"/>
<path fill-rule="evenodd" clip-rule="evenodd" d="M0.666016 11.668C0.666016 10.009 2.00706 8.66797 3.66602 8.66797H10.3327C11.9916 8.66797 13.3327 10.009 13.3327 11.668C13.3327 13.3269 11.9916 14.668 10.3327 14.668H3.66602C2.00706 14.668 0.666016 13.3269 0.666016 11.668ZM3.66602 10.668C3.11163 10.668 2.66602 11.1136 2.66602 11.668C2.66602 12.2224 3.11163 12.668 3.66602 12.668H10.3327C10.8871 12.668 11.3327 12.2224 11.3327 11.668C11.3327 11.1136 10.8871 10.668 10.3327 10.668H3.66602Z" fill="#71AFAC"/>
<path fill-rule="evenodd" clip-rule="evenodd" d="M10.3327 0.667969C8.67373 0.667969 7.33268 2.00902 7.33268 3.66797C7.33268 5.32692 8.67373 6.66797 10.3327 6.66797H12.3327C12.885 6.66797 13.3327 6.22025 13.3327 5.66797V3.66797C13.3327 2.00902 11.9916 0.667969 10.3327 0.667969ZM9.33268 3.66797C9.33268 3.11359 9.7783 2.66797 10.3327 2.66797C10.8871 2.66797 11.3327 3.11359 11.3327 3.66797V4.66797H10.3327C9.7783 4.66797 9.33268 4.22235 9.33268 3.66797Z" fill="#71AFAC"/>
</svg>
