<svg width="30" height="25" viewBox="0 0 30 25" fill="none" xmlns="http://www.w3.org/2000/svg">
<path fill-rule="evenodd" clip-rule="evenodd" d="M19.0281 0.457543C19.7059 0.341433 20.465 0.302665 21.1793 0.423521C22.4551 0.639365 23.6336 1.23234 24.5652 2.12135C25.1741 2.13512 25.7725 2.01516 26.302 1.84414C26.7502 1.69941 27.1287 1.52464 27.394 1.38646C27.5259 1.31775 27.6278 1.25914 27.694 1.21946C27.7271 1.19965 27.7511 1.18466 27.7654 1.17561L27.7781 1.16752C28.1738 0.903887 28.7008 0.955199 29.038 1.29054C29.3752 1.62596 29.4295 2.15252 29.1679 2.54972C28.8909 2.97012 28.5064 3.71954 28.0757 4.55922C28.008 4.69125 27.9391 4.8255 27.8693 4.96107C27.6223 5.44101 27.3689 5.9261 27.1328 6.34228C26.9846 6.60359 26.826 6.86889 26.6661 7.09815V7.46319C26.6763 8.80402 26.5225 10.1379 26.2104 11.4355C26.014 12.2519 25.755 13.0541 25.4347 13.8346C24.6048 15.8568 23.3802 17.6934 21.8326 19.237C20.285 20.7807 18.4452 22.0005 16.4209 22.8252C14.3983 23.6492 12.232 24.0623 10.0482 24.0404C6.88247 24.0431 3.78332 23.131 1.12369 21.4138C0.731955 21.1609 0.567023 20.6708 0.726138 20.2325C0.885253 19.7942 1.32618 19.524 1.78894 19.5813C2.18942 19.6308 2.59264 19.655 2.99617 19.6537C4.4461 19.6497 5.86842 19.3293 7.1669 18.7258C6.75417 18.5379 6.36013 18.3062 5.99192 18.0332C4.90963 17.2306 4.10442 16.1107 3.68833 14.8292C3.5802 14.4962 3.65412 14.1309 3.88321 13.8661C3.88731 13.8613 3.89145 13.8567 3.89563 13.852C3.65093 13.6338 3.42196 13.3962 3.21116 13.1407C2.26274 11.9911 1.7405 10.5492 1.7328 9.05888L1.73277 9.05371L1.73278 8.98704C1.73278 8.63256 1.92045 8.30456 2.22606 8.12493C2.30353 8.0794 2.38564 8.04513 2.4701 8.02214C2.01899 7.12203 1.7844 6.1281 1.78612 5.11976C1.78558 3.9774 2.08398 2.85478 2.65166 1.86344C2.81554 1.57726 3.10998 1.39028 3.43869 1.36364C3.76739 1.33701 4.08809 1.47415 4.29591 1.73021C5.57932 3.31156 7.18103 4.60523 8.99701 5.52719C9.93053 6.00113 10.9099 6.37139 11.9177 6.6333C12.4826 6.78015 13.0565 6.89293 13.6362 6.97083C13.6107 6.00649 13.8011 5.04266 14.2008 4.15208C14.787 2.84565 15.7903 1.77075 17.0533 1.09596C17.5881 0.810186 18.2981 0.582571 19.0281 0.457543ZM3.99048 10.5209C4.16334 11.0074 4.4205 11.4638 4.75391 11.8679C5.40901 12.662 6.31827 13.2054 7.32789 13.4063C7.77761 13.4957 8.10886 13.8796 8.13156 14.3375C8.15426 14.7955 7.86259 15.2102 7.42392 15.3437C7.0606 15.4543 6.68836 15.5313 6.31189 15.5741C6.56066 15.8948 6.8533 16.1821 7.18318 16.4267C7.93143 16.9815 8.83402 17.2893 9.76536 17.3072C10.1879 17.3154 10.5597 17.5883 10.6942 17.989C10.8286 18.3896 10.6966 18.8316 10.3645 19.0929C8.9656 20.1936 7.348 20.9612 5.63393 21.353C7.05458 21.808 8.54451 22.0422 10.0516 22.0404L10.0632 22.0404C11.9832 22.0603 13.888 21.6975 15.6663 20.9731C17.4446 20.2486 19.0607 19.1771 20.4202 17.821C21.7797 16.465 22.8554 14.8517 23.5844 13.0753C23.8658 12.3896 24.0933 11.685 24.2658 10.9678C24.5403 9.82677 24.6754 8.65388 24.6661 7.47486L24.6661 7.46704V6.76038C24.6661 6.5179 24.7542 6.28369 24.914 6.10133C25.0064 5.99594 25.1679 5.75253 25.3933 5.35533C25.6075 4.97783 25.8445 4.52462 26.0911 4.04571C26.106 4.01675 26.121 3.98763 26.136 3.95838C25.4965 4.09725 24.7718 4.17003 24.012 4.08792C23.7714 4.06192 23.5484 3.94953 23.3843 3.77161C22.7138 3.0445 21.8209 2.56049 20.8457 2.3955C20.413 2.32229 19.8899 2.33905 19.3657 2.42883C18.7962 2.52638 18.3006 2.69707 17.9957 2.85996C17.1234 3.32606 16.4304 4.06852 16.0255 4.9709C15.6205 5.87328 15.5266 6.88454 15.7583 7.84608C15.8322 8.15263 15.7571 8.47607 15.5558 8.71878C15.3545 8.96148 15.0505 9.09503 14.7356 9.0791C13.611 9.02222 12.4984 8.85069 11.4146 8.56899C10.268 8.27101 9.15373 7.84974 8.09163 7.31052C6.52792 6.51664 5.10385 5.48052 3.87073 4.2436C3.81448 4.53108 3.78592 4.82445 3.78612 5.11971L3.78611 5.12227C3.78472 5.85656 3.96492 6.5798 4.31067 7.2276C4.65641 7.8754 5.15698 8.42766 5.76779 8.8352C6.13849 9.08253 6.30079 9.5453 6.16579 9.96999C6.03078 10.3947 5.63105 10.6788 5.18558 10.6667C4.78212 10.6557 4.38204 10.6066 3.99048 10.5209Z" fill="#71AFAC"/>
</svg>
