<svg width="27" height="20" viewBox="0 0 27 20" fill="none" xmlns="http://www.w3.org/2000/svg">
<rect width="27" height="18.3333" fill="#EEF3F8"/>
<rect width="15.1875" height="11.6667" fill="#41479B"/>
<rect x="15.1875" width="11.8125" height="1.66667" fill="#DC251C"/>
<rect x="15.1875" y="3.33325" width="11.8125" height="1.66667" fill="#DC251C"/>
<rect x="15.1875" y="6.66675" width="11.8125" height="1.66667" fill="#DC251C"/>
<rect x="15.1875" y="10" width="11.8125" height="1.66667" fill="#DC251C"/>
<rect y="13.3333" width="27" height="1.66667" fill="#DC251C"/>
<rect y="16.6667" width="27" height="1.66667" fill="#DC251C"/>
<rect x="1.6875" y="1.66675" width="1.6875" height="1.66667" fill="#C5D0EC"/>
<rect x="5.0625" y="1.66675" width="1.6875" height="1.66667" fill="#C5D0EC"/>
<rect x="8.4375" y="1.66675" width="1.6875" height="1.66667" fill="#C5D0EC"/>
<rect x="11.8125" y="1.66675" width="1.6875" height="1.66667" fill="#C5D0EC"/>
<rect x="1.6875" y="5" width="1.6875" height="1.66667" fill="#C5D0EC"/>
<rect x="5.0625" y="5" width="1.6875" height="1.66667" fill="#C5D0EC"/>
<rect x="8.4375" y="5" width="1.6875" height="1.66667" fill="#C5D0EC"/>
<rect x="3.375" y="6.66675" width="1.6875" height="1.66667" fill="#C5D0EC"/>
<rect x="6.75" y="6.66675" width="1.6875" height="1.66667" fill="#C5D0EC"/>
<rect x="10.125" y="6.66675" width="1.6875" height="1.66667" fill="#C5D0EC"/>
<rect x="3.375" y="3.3335" width="1.6875" height="1.66667" fill="#C5D0EC"/>
<rect x="6.75" y="3.3335" width="1.6875" height="1.66667" fill="#C5D0EC"/>
<rect x="10.125" y="3.3335" width="1.6875" height="1.66667" fill="#C5D0EC"/>
<rect x="11.8125" y="5" width="1.6875" height="1.66667" fill="#C5D0EC"/>
<rect x="1.6875" y="8.3335" width="1.6875" height="1.66667" fill="#C5D0EC"/>
<rect x="5.0625" y="8.3335" width="1.6875" height="1.66667" fill="#C5D0EC"/>
<rect x="8.4375" y="8.3335" width="1.6875" height="1.66667" fill="#C5D0EC"/>
<rect x="11.8125" y="8.3335" width="1.6875" height="1.66667" fill="#C5D0EC"/>
</svg>
