<svg width="67" height="67" viewBox="0 0 67 67" fill="none" xmlns="http://www.w3.org/2000/svg">
<path d="M33.215 0C14.819 0 0 14.7784 0 33.124C0 51.4696 14.819 66.248 33.215 66.248C51.611 66.248 66.43 51.4696 66.43 33.124C66.43 14.7784 51.611 0 33.215 0ZM33.215 60.7152C17.958 60.7152 5.548 48.2664 5.548 33.124C5.548 17.9816 17.958 5.5328 33.215 5.5328C48.472 5.5328 60.882 17.9088 60.882 33.124C60.882 48.3392 48.472 60.7152 33.215 60.7152Z" fill="#71AFAC"/>
<path d="M48.472 30.7216L26.28 17.836C25.477 17.3992 24.309 17.3992 23.506 17.836C22.703 18.2728 22.119 19.2192 22.119 20.2384V46.0096C22.119 47.0288 22.703 47.9752 23.506 48.412C23.944 48.7032 24.455 48.776 24.893 48.776C25.331 48.776 25.842 48.7032 26.28 48.412L48.399 35.5264C49.202 35.0896 49.786 34.1432 49.786 33.124C49.786 32.1048 49.275 31.1584 48.472 30.7216Z" fill="#71AFAC"/>
</svg>
