<svg width="25" height="25" viewBox="0 0 25 25" fill="none" xmlns="http://www.w3.org/2000/svg">
<g id="open">
<path id="Shape" fill-rule="evenodd" clip-rule="evenodd" d="M11.8398 3.91992C12.3921 3.91992 12.8398 4.36764 12.8398 4.91992C12.8398 5.47221 12.3921 5.91992 11.8398 5.91992H6.83984C6.28756 5.91992 5.83984 6.36764 5.83984 6.91992V18.9199C5.83984 19.4722 6.28756 19.9199 6.83984 19.9199H18.8398C19.3921 19.9199 19.8398 19.4722 19.8398 18.9199V13.9199C19.8398 13.3676 20.2876 12.9199 20.8398 12.9199C21.3921 12.9199 21.8398 13.3676 21.8398 13.9199V18.9199C21.8398 20.5768 20.4967 21.9199 18.8398 21.9199H6.83984C5.18299 21.9199 3.83984 20.5768 3.83984 18.9199V6.91992C3.83984 5.26307 5.18299 3.91992 6.83984 3.91992H11.8398ZM19.8398 3.91992C20.8942 3.91992 21.758 4.7358 21.8344 5.77066L21.8398 5.91992V9.91992C21.8398 10.4722 21.3921 10.9199 20.8398 10.9199C20.327 10.9199 19.9043 10.5339 19.8466 10.0365L19.8398 9.91992V7.33414L13.547 13.627C13.1564 14.0176 12.5233 14.0176 12.1327 13.627C11.7723 13.2665 11.7445 12.6993 12.0495 12.307L12.1327 12.2128L18.4256 5.91992H15.8398C15.2876 5.91992 14.8398 5.47221 14.8398 4.91992C14.8398 4.40709 15.2259 3.98441 15.7232 3.92665L15.8398 3.91992H19.8398Z" fill="#71AFAC"/>
</g>
</svg>
