<svg width="28" height="22" viewBox="0 0 28 22" fill="none" xmlns="http://www.w3.org/2000/svg">
<path fill-rule="evenodd" clip-rule="evenodd" d="M11.8486 6.14287C11.5397 5.95752 11.155 5.95266 10.8414 6.13017C10.5279 6.30767 10.3341 6.64009 10.3341 7.00037V15.0004C10.3341 15.3606 10.5279 15.6931 10.8414 15.8706C11.155 16.0481 11.5397 16.0432 11.8486 15.8579L18.5153 11.8579C18.8165 11.6771 19.0008 11.3516 19.0008 11.0004C19.0008 10.6491 18.8165 10.3236 18.5153 10.1429L11.8486 6.14287ZM16.0572 11.0004L12.3341 13.2342V8.76656L16.0572 11.0004Z" fill="#71AFAC"/>
<path fill-rule="evenodd" clip-rule="evenodd" d="M20.7084 1.18874C16.2435 0.83943 11.7582 0.83943 7.29333 1.18874L4.30572 1.42248C2.48897 1.56461 1.00272 2.92622 0.702405 4.72361C0.0080525 8.87931 0.0080525 13.1214 0.702405 17.2771C1.00272 19.0745 2.48897 20.4361 4.30573 20.5783L7.29333 20.812C11.7582 21.1613 16.2435 21.1613 20.7084 20.812L23.696 20.5783C25.5127 20.4361 26.999 19.0745 27.2993 17.2771C27.9937 13.1214 27.9937 8.87931 27.2993 4.72361C26.999 2.92622 25.5127 1.56461 23.696 1.42248L20.7084 1.18874ZM7.44932 3.18265C11.8104 2.84146 16.1914 2.84146 20.5524 3.18265L23.54 3.41638C24.4408 3.48686 25.1777 4.16199 25.3266 5.05321C25.9845 8.99069 25.9845 13.01 25.3266 16.9475C25.1777 17.8387 24.4408 18.5139 23.54 18.5843L20.5524 18.8181C16.1914 19.1593 11.8103 19.1593 7.44932 18.8181L4.46172 18.5843C3.5609 18.5139 2.82397 17.8387 2.67506 16.9475C2.01717 13.01 2.01717 8.99069 2.67506 5.05321C2.82397 4.16199 3.5609 3.48686 4.46172 3.41638L7.44932 3.18265Z" fill="#71AFAC"/>
</svg>
