<svg width="18" height="18" viewBox="0 0 18 18" fill="none" xmlns="http://www.w3.org/2000/svg">
<path fill-rule="evenodd" clip-rule="evenodd" d="M9 1.5C13.1421 1.5 16.5 4.85786 16.5 9C16.5 13.1421 13.1421 16.5 9 16.5C4.85786 16.5 1.5 13.1421 1.5 9C1.5 4.85786 4.85786 1.5 9 1.5ZM9 5.25C8.61537 5.25 8.29837 5.53953 8.25505 5.91253L8.25 6V8.25H6C5.58579 8.25 5.25 8.58579 5.25 9C5.25 9.38463 5.53953 9.70163 5.91253 9.74495L6 9.75H8.25V12C8.25 12.4142 8.58579 12.75 9 12.75C9.38463 12.75 9.70163 12.4605 9.74495 12.0875L9.75 12V9.75H12C12.4142 9.75 12.75 9.41421 12.75 9C12.75 8.61537 12.4605 8.29837 12.0875 8.25505L12 8.25H9.75V6C9.75 5.58579 9.41421 5.25 9 5.25Z" fill="#71AFAC"/>
</svg>
