<svg width="16" height="16" viewBox="0 0 16 16" fill="none" xmlns="http://www.w3.org/2000/svg">
<path d="M7.24859 2.72191C7.0163 2.66614 6.77713 2.66636 6.50587 2.66661L4.10829 2.66665C3.75686 2.66664 3.45368 2.66663 3.20397 2.68703C2.9404 2.70856 2.67826 2.75611 2.42601 2.88464C2.04968 3.07638 1.74372 3.38234 1.55197 3.75867C1.42344 4.01092 1.3759 4.27307 1.35437 4.53663C1.33396 4.78634 1.33397 5.0895 1.33398 5.44093V10.559C1.33397 10.9104 1.33396 11.2136 1.35437 11.4633C1.3759 11.7269 1.42344 11.989 1.55197 12.2413C1.74372 12.6176 2.04968 12.9236 2.42601 13.1153C2.67826 13.2439 2.9404 13.2914 3.20397 13.3129C3.45367 13.3333 3.75682 13.3333 4.10822 13.3333H11.893C12.2444 13.3333 12.5476 13.3333 12.7973 13.3129C13.0609 13.2914 13.323 13.2439 13.5753 13.1153C13.9516 12.9236 14.2576 12.6176 14.4493 12.2413C14.5779 11.989 14.6254 11.7269 14.6469 11.4633C14.6673 11.2136 14.6673 10.9105 14.6673 10.559V6.77427C14.6673 6.42284 14.6673 6.11967 14.6469 5.86996C14.6254 5.6064 14.5779 5.34425 14.4493 5.092C14.2576 4.71568 13.9516 4.40972 13.5753 4.21797C13.323 4.08944 13.0609 4.0419 12.7973 4.02036C12.5476 3.99996 12.2445 3.99997 11.893 3.99998L8.94346 3.99998L8.39098 3.44745C8.19935 3.25546 8.03039 3.08619 7.8267 2.96137C7.64775 2.85171 7.45266 2.7709 7.24859 2.72191Z" fill="#94A3B8"/>
<path d="M6.33398 8C6.88627 8 7.33398 7.55228 7.33398 7C7.33398 6.44772 6.88627 6 6.33398 6C5.7817 6 5.33398 6.44772 5.33398 7C5.33398 7.55228 5.7817 8 6.33398 8Z" fill="white"/>
<path d="M9.14971 8.19924L10.4718 9.5303C10.8896 9.95092 10.5917 10.6668 9.99885 10.6668H7.33565C6.74279 10.6668 6.44486 9.95092 6.86266 9.5303L8.18482 8.19924C8.45074 7.93152 8.88379 7.93153 9.14971 8.19924Z" fill="white"/>
</svg>
