<svg width="22" height="27" viewBox="0 0 22 27" fill="none" xmlns="http://www.w3.org/2000/svg">
<path d="M17.5349 14.5771C17.5349 11.3355 20.1688 9.71468 20.3714 9.61338C18.8519 7.38475 16.4206 7.08085 15.6102 7.08085C13.5842 6.87824 11.6595 8.29646 10.6465 8.29646C9.63344 8.29646 8.01262 7.08085 6.39179 7.18215C4.26447 7.18215 2.23844 8.49906 1.12412 10.4238C-1.20581 14.3745 0.516316 20.25 2.74495 23.4917C3.85926 25.1125 5.17618 26.8346 6.797 26.7333C8.41782 26.632 9.02563 25.7203 11.0517 25.7203C12.9764 25.7203 13.5842 26.7333 15.3063 26.7333C17.0284 26.7333 18.1428 25.1125 19.2571 23.593C20.574 21.7695 21.0805 20.0474 21.0805 19.9461C20.9792 19.7435 17.6362 18.4266 17.5349 14.5771Z" fill="#1D1E2C"/>
<path d="M14.2909 4.95365C15.2026 3.83933 15.8104 2.31981 15.6078 0.800293C14.2909 0.901594 12.7714 1.71201 11.7584 2.72502C10.948 3.63673 10.2389 5.25755 10.4415 6.67577C11.961 6.87837 13.3792 6.06796 14.2909 4.95365Z" fill="#1D1E2C"/>
</svg>
