<svg width="30" height="30" viewBox="0 0 30 30" fill="none" xmlns="http://www.w3.org/2000/svg">
<path d="M5 8.5C5 6.3998 5 5.3497 5.40873 4.54754C5.76825 3.84193 6.34193 3.26825 7.04754 2.90873C7.8497 2.5 8.8998 2.5 11 2.5H18.3431C18.9546 2.5 19.2604 2.5 19.5481 2.56908C19.8032 2.63032 20.047 2.73133 20.2707 2.8684C20.523 3.023 20.7392 3.23919 21.1716 3.67157L23.8284 6.32843C24.2608 6.76081 24.477 6.977 24.6316 7.22929C24.7687 7.45297 24.8697 7.69683 24.9309 7.95192C25 8.23964 25 8.54538 25 9.15685V21.5C25 23.6002 25 24.6503 24.5913 25.4525C24.2317 26.1581 23.6581 26.7317 22.9525 27.0913C22.1503 27.5 21.1002 27.5 19 27.5H11C8.8998 27.5 7.8497 27.5 7.04754 27.0913C6.34193 26.7317 5.76825 26.1581 5.40873 25.4525C5 24.6503 5 23.6002 5 21.5V8.5Z" fill="#BCE0DF"/>
<path d="M11.25 15C10.5596 15 10 15.5596 10 16.25C10 16.9404 10.5596 17.5 11.25 17.5H18.75C19.4404 17.5 20 16.9404 20 16.25C20 15.5596 19.4404 15 18.75 15H11.25Z" fill="#71AFAC"/>
<path d="M11.25 20C10.5596 20 10 20.5596 10 21.25C10 21.9404 10.5596 22.5 11.25 22.5H15C15.6904 22.5 16.25 21.9404 16.25 21.25C16.25 20.5596 15.6904 20 15 20H11.25Z" fill="#71AFAC"/>
<path d="M17.5 4.26777C17.5 3.29146 18.2915 2.5 19.2678 2.5C19.7366 2.5 20.1862 2.68625 20.5178 3.01777L24.4822 6.98223C24.8138 7.31375 25 7.76339 25 8.23223C25 9.20854 24.2085 10 23.2322 10H20C18.6193 10 17.5 8.88071 17.5 7.5V4.26777Z" fill="#71AFAC"/>
</svg>
