<svg width="12" height="16" viewBox="0 0 12 16" fill="none" xmlns="http://www.w3.org/2000/svg">
<path d="M6 15.5C9.18945 15.5 12 13.25 12 10.25C12 7.24997 9.75 5.74997 9 4.99997C7.94543 3.9454 7.61408 2.55956 7.51905 1.60592C7.4664 1.07798 6.95693 0.70356 6.5148 0.996795C5.65013 1.57024 4.42781 2.74059 3.75 4.99997C3.2681 6.60632 3.75 7.99997 3.75 7.99997C3.75 7.99997 3 7.62497 2.625 6.49997C2.50148 6.1294 2.33726 5.67744 2.17256 5.23793C1.93553 4.60538 1.08049 4.61098 0.872175 5.25356C0.461227 6.52112 0 8.2273 0 9.49997C0 13.25 2.81059 15.5 6 15.5Z" fill="#71AFAC"/>
</svg>
