<svg width="512" height="512" viewBox="0 0 512 512" fill="none" xmlns="http://www.w3.org/2000/svg">
<g id="download">
<path id="Shape" fill-rule="evenodd" clip-rule="evenodd" d="M104.168 234.769C93.5584 236.001 85.3229 245.018 85.3229 255.958C85.3229 267.74 94.8742 277.292 106.656 277.292L279.164 277.292L219.58 336.875L217.805 338.885C211.298 347.254 211.89 359.355 219.58 367.045C227.911 375.376 241.419 375.376 249.75 367.045L330.666 286.129L333.158 283.415C347.282 266.652 346.451 241.575 330.666 225.789L249.792 144.915L247.782 143.14C239.413 136.633 227.312 137.225 219.622 144.915C211.291 153.246 211.291 166.754 219.622 175.085L279.162 234.625L106.656 234.625L104.168 234.769ZM319.999 64C308.217 64 298.665 73.5513 298.665 85.3333C298.665 97.1154 308.217 106.667 319.999 106.667L362.665 106.667C374.447 106.667 383.999 116.218 383.999 128L383.999 384C383.999 395.782 374.447 405.333 362.665 405.333L319.999 405.333C308.217 405.333 298.665 414.885 298.665 426.667C298.665 438.449 308.217 448 319.999 448L362.665 448C398.012 448 426.665 419.346 426.665 384L426.665 128C426.665 92.6538 398.012 64 362.665 64L319.999 64Z" fill="#9CA3AF"/>
</g>
</svg>
