<svg width="18" height="14" viewBox="0 0 18 14" fill="none" xmlns="http://www.w3.org/2000/svg">
<path fill-rule="evenodd" clip-rule="evenodd" d="M17.0105 11.0772C17.5567 11.0772 17.9995 11.5754 17.9995 12.1899C17.9995 12.8044 17.5567 13.3025 17.0105 13.3025H1.18642C0.640208 13.3025 0.197415 12.8044 0.197415 12.1899C0.197415 11.5754 0.640208 11.0772 1.18642 11.0772H17.0105ZM16.8131 5.5381C17.3593 5.5381 17.8021 6.03625 17.8021 6.65075C17.8021 7.26525 17.3593 7.7634 16.8131 7.7634H0.989007C0.442793 7.7634 0 7.26525 0 6.65075C0 6.03625 0.442793 5.5381 0.989007 5.5381H16.8131ZM16.8131 0C17.3593 0 17.8021 0.498151 17.8021 1.11265C17.8021 1.72715 17.3593 2.2253 16.8131 2.2253H0.989007C0.442793 2.2253 0 1.72715 0 1.11265C0 0.498151 0.442793 0 0.989007 0H16.8131Z" fill="#71AFAC"/>
</svg>
