<svg width="22" height="21" viewBox="0 0 22 21" fill="none" xmlns="http://www.w3.org/2000/svg">
<path d="M0 10.5C0 4.70101 4.70101 0 10.5 0L11.5 0C17.299 0 22 4.70101 22 10.5V10.5C22 16.299 17.299 21 11.5 21H10.5C4.70101 21 0 16.299 0 10.5V10.5Z" fill="white"/>
<path d="M10.0113 4.875C9.53781 4.875 9.10498 5.1425 8.89324 5.56598L8.61373 6.125H7.75C6.71447 6.125 5.875 6.96447 5.875 8V14.25C5.875 15.2855 6.71447 16.125 7.75 16.125H15.25C16.2855 16.125 17.125 15.2855 17.125 14.25V8C17.125 6.96447 16.2855 6.125 15.25 6.125H14.3863L14.1068 5.56598C13.895 5.1425 13.4622 4.875 12.9887 4.875H10.0113Z" fill="#E4F2F2"/>
<path fill-rule="evenodd" clip-rule="evenodd" d="M11.5 12.375C12.1904 12.375 12.75 11.8154 12.75 11.125C12.75 10.4346 12.1904 9.875 11.5 9.875C10.8096 9.875 10.25 10.4346 10.25 11.125C10.25 11.8154 10.8096 12.375 11.5 12.375ZM11.5 13.625C12.8807 13.625 14 12.5057 14 11.125C14 9.74429 12.8807 8.625 11.5 8.625C10.1193 8.625 9 9.74429 9 11.125C9 12.5057 10.1193 13.625 11.5 13.625Z" fill="#71AFAC"/>
</svg>
