<svg width="27" height="27" viewBox="0 0 27 27" fill="none" xmlns="http://www.w3.org/2000/svg">
<circle cx="13.5" cy="13.5" r="13" fill="#71AFAC" stroke="white"/>
<path d="M12.015 5.5C11.3837 5.5 10.8066 5.85667 10.5243 6.42131L10.1516 7.16667H9C7.61929 7.16667 6.5 8.28595 6.5 9.66667V18C6.5 19.3807 7.61929 20.5 9 20.5H19C20.3807 20.5 21.5 19.3807 21.5 18V9.66667C21.5 8.28595 20.3807 7.16667 19 7.16667H17.8484L17.4757 6.42131C17.1934 5.85667 16.6163 5.5 15.985 5.5H12.015Z" fill="#E4F2F2"/>
<path fill-rule="evenodd" clip-rule="evenodd" d="M14 15.5C14.9205 15.5 15.6667 14.7538 15.6667 13.8333C15.6667 12.9129 14.9205 12.1667 14 12.1667C13.0795 12.1667 12.3333 12.9129 12.3333 13.8333C12.3333 14.7538 13.0795 15.5 14 15.5ZM14 17.1667C15.8409 17.1667 17.3333 15.6743 17.3333 13.8333C17.3333 11.9924 15.8409 10.5 14 10.5C12.1591 10.5 10.6667 11.9924 10.6667 13.8333C10.6667 15.6743 12.1591 17.1667 14 17.1667Z" fill="#71AFAC"/>
</svg>
