<svg width="18" height="18" viewBox="0 0 18 18" fill="none" xmlns="http://www.w3.org/2000/svg">
<path d="M6.61803 0C5.86049 0 5.16796 0.428004 4.82918 1.10557L4.38197 2H3C1.34315 2 0 3.34315 0 5V15C0 16.6569 1.34315 18 3 18H15C16.6569 18 18 16.6569 18 15V5C18 3.34315 16.6569 2 15 2H13.618L13.1708 1.10557C12.832 0.428005 12.1395 0 11.382 0H6.61803Z" fill="#E4F2F2"/>
<path fill-rule="evenodd" clip-rule="evenodd" d="M9 12C10.1046 12 11 11.1046 11 10C11 8.89543 10.1046 8 9 8C7.89543 8 7 8.89543 7 10C7 11.1046 7.89543 12 9 12ZM9 14C11.2091 14 13 12.2091 13 10C13 7.79086 11.2091 6 9 6C6.79086 6 5 7.79086 5 10C5 12.2091 6.79086 14 9 14Z" fill="#71AFAC"/>
</svg>
