<svg width="54" height="54" viewBox="0 0 54 54" fill="none" xmlns="http://www.w3.org/2000/svg">
<circle cx="27" cy="27" r="27" fill="#EDF0F4"/>
<path d="M18.8693 26.8626C18.7925 28.1969 19.8196 29.3393 21.154 29.4161C21.202 29.4161 21.25 29.4161 21.298 29.4161C22.6419 29.4161 23.7267 28.3313 23.7171 26.9874C23.7171 25.6434 22.6323 24.5587 21.2884 24.5683C20.002 24.5683 18.9365 25.5762 18.8693 26.8626Z" fill="#0033AD"/>
<path d="M9.82637 26.2386C9.39439 26.2098 9.02 26.5458 9.00081 26.9778C8.98161 27.4098 9.30799 27.7842 9.73997 27.8034C10.172 27.8322 10.5367 27.4962 10.5655 27.0642C10.5943 26.6322 10.2583 26.2674 9.82637 26.2386V26.2386Z" fill="#0033AD"/>
<path d="M18.7155 12.7896C19.0995 12.5976 19.2531 12.1176 19.0611 11.7336C18.8691 11.3496 18.3891 11.1961 18.0051 11.388C17.6212 11.58 17.4676 12.0504 17.6596 12.4344C17.8516 12.828 18.3219 12.9912 18.7155 12.7896C18.7059 12.7896 18.7155 12.7896 18.7155 12.7896Z" fill="#0033AD"/>
<path d="M21.1729 17.0806C21.7681 16.783 22.0081 16.0535 21.7105 15.4583C21.4129 14.8631 20.6833 14.6231 20.0881 14.9207C19.493 15.2183 19.253 15.9479 19.5506 16.543C19.8482 17.1382 20.5777 17.3782 21.1729 17.0806Z" fill="#0033AD"/>
<path d="M12.8983 20.0277C13.3591 20.3253 13.9734 20.2005 14.2806 19.7397C14.5782 19.2789 14.4534 18.6646 13.9926 18.3574C13.5319 18.0598 12.9175 18.1846 12.6103 18.6454V18.6454C12.3031 19.1061 12.4375 19.7301 12.8983 20.0277Z" fill="#0033AD"/>
<path d="M14.3669 25.8066C13.6949 25.7682 13.1286 26.277 13.0902 26.949C13.0518 27.621 13.5606 28.1873 14.2325 28.2257C14.9045 28.2641 15.4709 27.7553 15.5093 27.0834V27.0834C15.5477 26.421 15.0389 25.845 14.3669 25.8066Z" fill="#0033AD"/>
<path d="M13.0325 33.9375C12.5429 34.1871 12.3413 34.7823 12.5909 35.2815C12.8405 35.771 13.4357 35.9726 13.9349 35.723C14.4245 35.4735 14.626 34.8783 14.3765 34.3791V34.3791C14.1269 33.8895 13.5221 33.6879 13.0325 33.9375V33.9375Z" fill="#0033AD"/>
<path d="M17.7361 23.3011C18.3985 23.7331 19.2817 23.5507 19.7041 22.8883C20.136 22.226 19.9536 21.3428 19.2913 20.9204C18.6289 20.4884 17.7457 20.6708 17.3234 21.3332C16.8914 21.986 17.0738 22.8691 17.7361 23.3011V23.3011Z" fill="#0033AD"/>
<path d="M32.6637 16.9846C33.2204 17.3494 33.9788 17.1958 34.3436 16.639C34.7084 16.0823 34.5548 15.3239 33.998 14.9591C33.4412 14.5943 32.6829 14.7479 32.3181 15.3047V15.3047C31.9437 15.8711 32.0973 16.6198 32.6637 16.9846V16.9846Z" fill="#0033AD"/>
<path d="M35.1407 12.7128C35.5055 12.9528 35.9855 12.8472 36.2254 12.4825C36.4654 12.1177 36.3598 11.6377 35.9951 11.3977C35.6303 11.1577 35.1503 11.2633 34.9103 11.6185C34.6799 11.9833 34.7855 12.4729 35.1407 12.7128V12.7128Z" fill="#0033AD"/>
<path d="M32.8459 24.5491C31.5115 24.4723 30.3596 25.4994 30.2924 26.8338C30.2156 28.1681 31.2427 29.32 32.5771 29.3872C32.6251 29.3872 32.6731 29.3872 32.7115 29.3872C34.0458 29.3872 35.1306 28.3025 35.1306 26.9585C35.1402 25.6818 34.1322 24.6163 32.8459 24.5491V24.5491Z" fill="#0033AD"/>
<path d="M21.9699 23.1284C22.3827 23.9444 23.2178 24.4627 24.1394 24.4627C25.4737 24.4627 26.5585 23.378 26.5585 22.034C26.5585 21.6597 26.4721 21.2853 26.2993 20.9397C25.6945 19.7398 24.2354 19.2598 23.045 19.8645C21.8451 20.4789 21.3651 21.9381 21.9699 23.1284V23.1284Z" fill="#0033AD"/>
<path d="M40.9674 20.0277C41.4569 19.7782 41.6489 19.1734 41.3993 18.6838C41.1498 18.1942 40.545 18.0022 40.0554 18.2518C39.5658 18.5014 39.3738 19.0966 39.6138 19.5862C39.873 20.0757 40.4682 20.2773 40.9674 20.0277V20.0277Z" fill="#0033AD"/>
<path d="M34.8238 20.7956C34.123 21.1508 33.835 22.0052 34.1902 22.706C34.5454 23.4067 35.3997 23.6947 36.1005 23.3395C36.8013 22.9843 37.0893 22.13 36.7341 21.4292C36.3789 20.7284 35.5245 20.4501 34.8238 20.7956Z" fill="#0033AD"/>
<path d="M26.9041 12.348C27.4512 12.3768 27.9216 11.9545 27.96 11.4073C27.9984 10.8601 27.5664 10.3897 27.0193 10.3513C26.4721 10.3225 26.0017 10.7353 25.9633 11.2825C25.9345 11.8393 26.3569 12.3096 26.9041 12.348V12.348Z" fill="#0033AD"/>
<path d="M26.8945 18.6166C27.6817 18.6646 28.3537 18.0598 28.3921 17.2726C28.4401 16.4855 27.8353 15.8135 27.0481 15.7751C26.261 15.7271 25.589 16.3319 25.5506 17.119C25.5122 17.9062 26.1074 18.5782 26.8945 18.6166V18.6166Z" fill="#0033AD"/>
<path d="M19.1762 33.1695C19.877 32.8143 20.165 31.9599 19.8098 31.2592C19.4546 30.5584 18.6002 30.2704 17.8995 30.6256C17.1987 30.9808 16.9107 31.8351 17.2659 32.5359C17.6211 33.2367 18.4754 33.5247 19.1762 33.1695Z" fill="#0033AD"/>
<path d="M27.8159 20.6997C27.0863 21.8228 27.3935 23.3204 28.5167 24.0499C29.6398 24.7795 31.1374 24.4723 31.8669 23.3492C32.5965 22.226 32.2893 20.7285 31.1662 19.9989C30.7726 19.7397 30.3118 19.6053 29.8414 19.6053C29.0255 19.6053 28.2671 20.0181 27.8159 20.6997Z" fill="#0033AD"/>
<path d="M32.0303 30.8368C31.4255 29.6369 29.9663 29.1569 28.776 29.7617C27.5761 30.3664 27.0961 31.8256 27.7008 33.0159C28.3056 34.2159 29.7648 34.6959 30.9551 34.0911V34.0911C32.1455 33.4959 32.635 32.056 32.0399 30.856C32.0399 30.8464 32.0399 30.8464 32.0303 30.8368Z" fill="#0033AD"/>
<path d="M36.2634 30.6641C35.6011 30.2321 34.7179 30.4145 34.2955 31.0768C33.8636 31.7392 34.0459 32.6224 34.7083 33.0448C35.3707 33.4767 36.2538 33.2943 36.6762 32.632C37.1082 31.9792 36.9258 31.096 36.2634 30.6641V30.6641Z" fill="#0033AD"/>
<path d="M40.9097 27.0258C40.9481 26.3539 40.4393 25.7875 39.7673 25.7491C39.0953 25.7107 38.529 26.2195 38.4906 26.8914C38.4522 27.5634 38.9609 28.1298 39.6329 28.1682V28.1682C40.2953 28.2066 40.8713 27.6882 40.9097 27.0258Z" fill="#0033AD"/>
<path d="M44.2602 26.1618C43.8282 26.133 43.4538 26.469 43.4346 26.901C43.4154 27.333 43.7418 27.7074 44.1738 27.7266C44.6058 27.7554 44.9706 27.4194 44.9994 26.9874C45.0186 26.5554 44.6922 26.1906 44.2602 26.1618Z" fill="#0033AD"/>
<path d="M41.1019 33.9375C40.6412 33.6399 40.0268 33.7647 39.7196 34.2255C39.422 34.6863 39.5468 35.3007 40.0076 35.6078C40.4684 35.9054 41.0827 35.7806 41.3899 35.3199C41.6971 34.8591 41.5627 34.2351 41.1019 33.9375V33.9375Z" fill="#0033AD"/>
<path d="M18.8498 41.2524C18.485 41.0124 18.0051 41.118 17.7651 41.4732C17.5251 41.838 17.6307 42.3179 17.9859 42.5579C18.3507 42.7979 18.8306 42.6923 19.0706 42.3371V42.3371C19.3202 41.9819 19.2146 41.4924 18.8498 41.2524Z" fill="#0033AD"/>
<path d="M35.2844 41.1755C34.9005 41.3675 34.7469 41.8475 34.9389 42.2315C35.1308 42.6155 35.6108 42.7691 35.9948 42.5771C36.3788 42.3851 36.5324 41.9147 36.3404 41.5307C36.1484 41.1371 35.678 40.9739 35.2844 41.1755C35.294 41.1755 35.2844 41.1755 35.2844 41.1755Z" fill="#0033AD"/>
<path d="M26.184 33.2655C26.9136 32.1424 26.6064 30.6448 25.4832 29.9057C24.3601 29.1761 22.8625 29.4833 22.1234 30.6064C21.3842 31.7296 21.701 33.2271 22.8241 33.9663C23.2177 34.2255 23.6785 34.3599 24.1489 34.3599C24.9744 34.3695 25.7328 33.9567 26.184 33.2655Z" fill="#0033AD"/>
<path d="M21.3363 36.9805C20.7795 36.6158 20.0211 36.7694 19.6564 37.3261C19.2916 37.8829 19.4452 38.6413 20.0019 39.0061C20.5587 39.3708 21.3171 39.2172 21.6819 38.6605V38.6605C22.0563 38.1037 21.9027 37.3453 21.3363 36.9805Z" fill="#0033AD"/>
<path d="M26.9905 41.6172C26.4433 41.5884 25.9729 42.0108 25.9345 42.5579C25.8961 43.1051 26.3281 43.5755 26.8753 43.6139C27.4224 43.6427 27.8928 43.2299 27.9312 42.6827C27.96 42.126 27.5376 41.6556 26.9905 41.6172V41.6172Z" fill="#0033AD"/>
<path d="M27 35.3486C26.2128 35.3006 25.5408 35.9053 25.5024 36.6925C25.4544 37.4797 26.0592 38.1516 26.8464 38.19C27.6335 38.2284 28.3055 37.6333 28.3439 36.8461C28.3919 36.0685 27.7871 35.387 27 35.3486V35.3486Z" fill="#0033AD"/>
<path d="M32.8267 36.8845C32.2315 37.1917 31.9915 37.9213 32.2987 38.5165C32.6059 39.1116 33.3355 39.3516 33.9307 39.0444C34.5258 38.7468 34.7658 38.0173 34.4682 37.4221C34.161 36.8269 33.4315 36.5773 32.8267 36.8845V36.8845Z" fill="#0033AD"/>
</svg>
