<svg width="24" height="24" viewBox="0 0 24 24" fill="none" xmlns="http://www.w3.org/2000/svg">
<path fill-rule="evenodd" clip-rule="evenodd" d="M9.5 18C10.3284 18 11 18.6716 11 19.5C11 20.3284 10.3284 21 9.5 21C8.67157 21 8 20.3284 8 19.5C8 18.6716 8.67157 18 9.5 18ZM17.5 18C18.3284 18 19 18.6716 19 19.5C19 20.3284 18.3284 21 17.5 21C16.6716 21 16 20.3284 16 19.5C16 18.6716 16.6716 18 17.5 18ZM3.43845 3C4.7552 3 5.91032 3.85719 6.30047 5.1005L6.34888 5.27239L6.53078 6H18.5068C20.366 6 21.7621 7.66791 21.469 9.47548L21.4353 9.65079L20.3242 14.6508C20.0325 15.9637 18.9059 16.9143 17.5779 16.9945L17.3957 17H9.56155C8.2448 17 7.08968 16.1428 6.69953 14.8995L6.65112 14.7276L4.40859 5.75746C4.30657 5.34939 3.96197 5.05297 3.5518 5.0064L3.43845 5H3C2.44772 5 2 4.55228 2 4C2 3.48716 2.38604 3.06449 2.88338 3.00673L3 3H3.43845Z" fill="#71AFAC"/>
</svg>
