<svg width="30" height="30" viewBox="0 0 30 30" fill="none" xmlns="http://www.w3.org/2000/svg">
<path fill-rule="evenodd" clip-rule="evenodd" d="M6.875 7.5C5.83947 7.5 5 8.33947 5 9.375C5 10.4105 5.83947 11.25 6.875 11.25H13.125C14.1605 11.25 15 10.4105 15 9.375C15 8.33947 14.1605 7.5 13.125 7.5H6.875ZM3.75 16.875C3.75 15.8395 4.58947 15 5.625 15H11.875C12.9105 15 13.75 15.8395 13.75 16.875C13.75 17.9105 12.9105 18.75 11.875 18.75H5.625C4.58947 18.75 3.75 17.9105 3.75 16.875ZM3.75 24.375C3.75 23.3395 4.58947 22.5 5.625 22.5H11.875C12.9105 22.5 13.75 23.3395 13.75 24.375C13.75 25.4105 12.9105 26.25 11.875 26.25H5.625C4.58947 26.25 3.75 25.4105 3.75 24.375Z" fill="#BCE0DF"/>
<path d="M7.5 5.625C7.5 4.58947 8.33947 3.75 9.375 3.75H15.625C16.6605 3.75 17.5 4.58947 17.5 5.625C17.5 6.66053 16.6605 7.5 15.625 7.5H9.375C8.33947 7.5 7.5 6.66053 7.5 5.625Z" fill="#71AFAC"/>
<path d="M8.125 11.25C7.08947 11.25 6.25 12.0895 6.25 13.125C6.25 14.1605 7.08947 15 8.125 15H14.375C15.4105 15 16.25 14.1605 16.25 13.125C16.25 12.0895 15.4105 11.25 14.375 11.25H8.125Z" fill="#71AFAC"/>
<path d="M8.125 18.75C7.08947 18.75 6.25 19.5895 6.25 20.625C6.25 21.6605 7.08947 22.5 8.125 22.5H13.1151C13.5016 22.5 13.7938 22.1523 13.7675 21.7668C13.7559 21.596 13.75 21.4237 13.75 21.25C13.75 20.6827 13.813 20.1301 13.9324 19.5988C14.0269 19.1779 13.7243 18.75 13.293 18.75H8.125Z" fill="#71AFAC"/>
<path d="M26.25 21.25C26.25 24.0114 24.0114 26.25 21.25 26.25C18.4886 26.25 16.25 24.0114 16.25 21.25C16.25 18.4886 18.4886 16.25 21.25 16.25C24.0114 16.25 26.25 18.4886 26.25 21.25Z" fill="#71AFAC"/>
</svg>
