<svg width="30" height="29" viewBox="0 0 30 29" fill="none" xmlns="http://www.w3.org/2000/svg">
<rect x="0.0931702" y="0.53008" width="29.8258" height="28.47" rx="5.13683" fill="#F7FDFD"/>
<path fill-rule="evenodd" clip-rule="evenodd" d="M16.6999 7.47817C15.8565 7.47817 15.1747 8.15996 15.1747 9.00336V12.3926C15.1747 13.236 15.8565 13.9178 16.6999 13.9178C17.5433 13.9178 18.225 13.236 18.225 12.3926V9.00336C18.225 8.15996 17.5433 7.47817 16.6999 7.47817ZM16.1915 9.00336C16.1915 8.72151 16.418 8.49496 16.6999 8.49496C16.9817 8.49496 17.2083 8.72151 17.2083 9.00336V12.3926C17.2083 12.6745 16.9817 12.901 16.6999 12.901C16.418 12.901 16.1915 12.6745 16.1915 12.3926V9.00336Z" fill="#71AFAC"/>
<path fill-rule="evenodd" clip-rule="evenodd" d="M20.767 10.8675C19.9236 10.8675 19.2418 11.5492 19.2418 12.3926V13.4094C19.2418 13.6902 19.4694 13.9178 19.7502 13.9178H20.767C21.6104 13.9178 22.2922 13.236 22.2922 12.3926C22.2922 11.5492 21.6104 10.8675 20.767 10.8675ZM20.2586 12.3926C20.2586 12.1108 20.4852 11.8843 20.767 11.8843C21.0489 11.8843 21.2754 12.1108 21.2754 12.3926C21.2754 12.6745 21.0489 12.901 20.767 12.901H20.2586V12.3926Z" fill="#71AFAC"/>
<path fill-rule="evenodd" clip-rule="evenodd" d="M11.7854 17.1377C11.7854 16.2943 12.4672 15.6125 13.3106 15.6125C14.154 15.6125 14.8358 16.2943 14.8358 17.1377V20.5269C14.8358 21.3703 14.154 22.0521 13.3106 22.0521C12.4672 22.0521 11.7854 21.3703 11.7854 20.5269V17.1377ZM13.3106 16.6293C13.0287 16.6293 12.8022 16.8558 12.8022 17.1377V20.5269C12.8022 20.8088 13.0287 21.0353 13.3106 21.0353C13.5924 21.0353 13.819 20.8088 13.819 20.5269V17.1377C13.819 16.8558 13.5924 16.6293 13.3106 16.6293Z" fill="#71AFAC"/>
<path fill-rule="evenodd" clip-rule="evenodd" d="M9.24342 15.6125C8.40002 15.6125 7.71824 16.2943 7.71824 17.1377C7.71824 17.9811 8.40002 18.6628 9.24342 18.6628C10.0868 18.6628 10.7686 17.9811 10.7686 17.1377V16.1209C10.7686 15.8401 10.541 15.6125 10.2602 15.6125H9.24342ZM8.73503 17.1377C8.73503 16.8558 8.96158 16.6293 9.24342 16.6293H9.75182V17.1377C9.75182 17.4195 9.52527 17.646 9.24342 17.646C8.96158 17.646 8.73503 17.4195 8.73503 17.1377Z" fill="#71AFAC"/>
<path fill-rule="evenodd" clip-rule="evenodd" d="M15.8525 16.4598C15.8525 15.6164 16.5343 14.9346 17.3777 14.9346H20.767C21.6104 14.9346 22.2922 15.6164 22.2922 16.4598C22.2922 17.3032 21.6104 17.985 20.767 17.985H17.3777C16.5343 17.985 15.8525 17.3032 15.8525 16.4598ZM17.3777 15.9514C17.0959 15.9514 16.8693 16.178 16.8693 16.4598C16.8693 16.7416 17.0959 16.9682 17.3777 16.9682H20.767C21.0489 16.9682 21.2754 16.7416 21.2754 16.4598C21.2754 16.178 21.0489 15.9514 20.767 15.9514H17.3777Z" fill="#71AFAC"/>
<path fill-rule="evenodd" clip-rule="evenodd" d="M16.3609 19.0018C16.0802 19.0018 15.8525 19.2294 15.8525 19.5102V20.5269C15.8525 21.3703 16.5343 22.0521 17.3777 22.0521C18.2211 22.0521 18.9029 21.3703 18.9029 20.5269C18.9029 19.6835 18.2211 19.0018 17.3777 19.0018H16.3609ZM16.8693 20.5269V20.0186H17.3777C17.6596 20.0186 17.8861 20.2451 17.8861 20.5269C17.8861 20.8088 17.6596 21.0353 17.3777 21.0353C17.0959 21.0353 16.8693 20.8088 16.8693 20.5269Z" fill="#71AFAC"/>
<path fill-rule="evenodd" clip-rule="evenodd" d="M7.71824 13.0705C7.71824 12.2271 8.40002 11.5453 9.24342 11.5453H12.6327C13.4761 11.5453 14.1579 12.2271 14.1579 13.0705C14.1579 13.9139 13.4761 14.5957 12.6327 14.5957H9.24342C8.40002 14.5957 7.71824 13.9139 7.71824 13.0705ZM9.24342 12.5621C8.96158 12.5621 8.73503 12.7887 8.73503 13.0705C8.73503 13.3524 8.96158 13.5789 9.24342 13.5789H12.6327C12.9146 13.5789 13.1411 13.3524 13.1411 13.0705C13.1411 12.7887 12.9146 12.5621 12.6327 12.5621H9.24342Z" fill="#71AFAC"/>
<path fill-rule="evenodd" clip-rule="evenodd" d="M12.6327 7.47817C11.7893 7.47817 11.1075 8.15996 11.1075 9.00336C11.1075 9.84676 11.7893 10.5285 12.6327 10.5285H13.6495C13.9303 10.5285 14.1579 10.3009 14.1579 10.0201V9.00336C14.1579 8.15996 13.4761 7.47817 12.6327 7.47817ZM12.1243 9.00336C12.1243 8.72151 12.3509 8.49496 12.6327 8.49496C12.9146 8.49496 13.1411 8.72151 13.1411 9.00336V9.51175H12.6327C12.3509 9.51175 12.1243 9.2852 12.1243 9.00336Z" fill="#71AFAC"/>
</svg>
