<svg width="74" height="70" viewBox="0 0 74 70" fill="none" xmlns="http://www.w3.org/2000/svg">
<rect width="73.3333" height="70" rx="10" fill="white"/>
<path fill-rule="evenodd" clip-rule="evenodd" d="M40.8332 17.0835C38.7595 17.0835 37.0832 18.7598 37.0832 20.8335V29.1668C37.0832 31.2405 38.7595 32.9168 40.8332 32.9168C42.9069 32.9168 44.5832 31.2405 44.5832 29.1668V20.8335C44.5832 18.7598 42.9069 17.0835 40.8332 17.0835ZM39.5832 20.8335C39.5832 20.1405 40.1402 19.5835 40.8332 19.5835C41.5262 19.5835 42.0832 20.1405 42.0832 20.8335V29.1668C42.0832 29.8598 41.5262 30.4168 40.8332 30.4168C40.1402 30.4168 39.5832 29.8598 39.5832 29.1668V20.8335Z" fill="#71AFAC"/>
<path fill-rule="evenodd" clip-rule="evenodd" d="M50.8332 25.4168C48.7595 25.4168 47.0832 27.0931 47.0832 29.1668V31.6668C47.0832 32.3572 47.6429 32.9168 48.3332 32.9168H50.8332C52.9069 32.9168 54.5832 31.2405 54.5832 29.1668C54.5832 27.0931 52.9069 25.4168 50.8332 25.4168ZM49.5832 29.1668C49.5832 28.4739 50.1402 27.9168 50.8332 27.9168C51.5262 27.9168 52.0832 28.4739 52.0832 29.1668C52.0832 29.8598 51.5262 30.4168 50.8332 30.4168H49.5832V29.1668Z" fill="#71AFAC"/>
<path fill-rule="evenodd" clip-rule="evenodd" d="M28.7499 40.8335C28.7499 38.7598 30.4262 37.0835 32.4999 37.0835C34.5736 37.0835 36.2499 38.7598 36.2499 40.8335V49.1668C36.2499 51.2405 34.5736 52.9168 32.4999 52.9168C30.4262 52.9168 28.7499 51.2405 28.7499 49.1668V40.8335ZM32.4999 39.5835C31.8069 39.5835 31.2499 40.1405 31.2499 40.8335V49.1668C31.2499 49.8598 31.8069 50.4168 32.4999 50.4168C33.1929 50.4168 33.7499 49.8598 33.7499 49.1668V40.8335C33.7499 40.1405 33.1929 39.5835 32.4999 39.5835Z" fill="#71AFAC"/>
<path fill-rule="evenodd" clip-rule="evenodd" d="M22.4999 37.0835C20.4262 37.0835 18.7499 38.7598 18.7499 40.8335C18.7499 42.9072 20.4262 44.5835 22.4999 44.5835C24.5736 44.5835 26.2499 42.9072 26.2499 40.8335V38.3335C26.2499 37.6431 25.6902 37.0835 24.9999 37.0835H22.4999ZM21.2499 40.8335C21.2499 40.1405 21.8069 39.5835 22.4999 39.5835H23.7499V40.8335C23.7499 41.5265 23.1929 42.0835 22.4999 42.0835C21.8069 42.0835 21.2499 41.5265 21.2499 40.8335Z" fill="#71AFAC"/>
<path fill-rule="evenodd" clip-rule="evenodd" d="M38.7499 39.1668C38.7499 37.0931 40.4262 35.4168 42.4999 35.4168H50.8332C52.9069 35.4168 54.5832 37.0931 54.5832 39.1668C54.5832 41.2405 52.9069 42.9168 50.8332 42.9168H42.4999C40.4262 42.9168 38.7499 41.2405 38.7499 39.1668ZM42.4999 37.9168C41.8069 37.9168 41.2499 38.4739 41.2499 39.1668C41.2499 39.8598 41.8069 40.4168 42.4999 40.4168H50.8332C51.5262 40.4168 52.0832 39.8598 52.0832 39.1668C52.0832 38.4739 51.5262 37.9168 50.8332 37.9168H42.4999Z" fill="#71AFAC"/>
<path fill-rule="evenodd" clip-rule="evenodd" d="M39.9999 45.4168C39.3095 45.4168 38.7499 45.9765 38.7499 46.6668V49.1668C38.7499 51.2405 40.4262 52.9168 42.4999 52.9168C44.5736 52.9168 46.2499 51.2405 46.2499 49.1668C46.2499 47.0931 44.5736 45.4168 42.4999 45.4168H39.9999ZM41.2499 49.1668V47.9168H42.4999C43.1929 47.9168 43.7499 48.4739 43.7499 49.1668C43.7499 49.8598 43.1929 50.4168 42.4999 50.4168C41.8069 50.4168 41.2499 49.8598 41.2499 49.1668Z" fill="#71AFAC"/>
<path fill-rule="evenodd" clip-rule="evenodd" d="M18.7499 30.8335C18.7499 28.7598 20.4262 27.0835 22.4999 27.0835H30.8332C32.9069 27.0835 34.5832 28.7598 34.5832 30.8335C34.5832 32.9072 32.9069 34.5835 30.8332 34.5835H22.4999C20.4262 34.5835 18.7499 32.9072 18.7499 30.8335ZM22.4999 29.5835C21.8069 29.5835 21.2499 30.1405 21.2499 30.8335C21.2499 31.5265 21.8069 32.0835 22.4999 32.0835H30.8332C31.5262 32.0835 32.0832 31.5265 32.0832 30.8335C32.0832 30.1405 31.5262 29.5835 30.8332 29.5835H22.4999Z" fill="#71AFAC"/>
<path fill-rule="evenodd" clip-rule="evenodd" d="M30.8332 17.0835C28.7595 17.0835 27.0832 18.7598 27.0832 20.8335C27.0832 22.9072 28.7595 24.5835 30.8332 24.5835H33.3332C34.0236 24.5835 34.5832 24.0239 34.5832 23.3335V20.8335C34.5832 18.7598 32.9069 17.0835 30.8332 17.0835ZM29.5832 20.8335C29.5832 20.1405 30.1402 19.5835 30.8332 19.5835C31.5262 19.5835 32.0832 20.1405 32.0832 20.8335V22.0835H30.8332C30.1402 22.0835 29.5832 21.5265 29.5832 20.8335Z" fill="#71AFAC"/>
</svg>
