<svg width="24" height="24" viewBox="0 0 24 24" fill="none" xmlns="http://www.w3.org/2000/svg">
<path fill-rule="evenodd" clip-rule="evenodd" d="M14 3C15.5977 3 16.9037 4.24892 16.9949 5.82373L17 6V7H18C19.6569 7 21 8.34315 21 10V18C21 19.6569 19.6569 21 18 21H10C8.34315 21 7 19.6569 7 18V17H6C4.40232 17 3.09634 15.7511 3.00509 14.1763L3 14V6C3 4.40232 4.24892 3.09634 5.82373 3.00509L6 3H14ZM14 5H6C5.44772 5 5 5.44772 5 6V14C5 14.5523 5.44772 15 6 15H7V10C7 8.34315 8.34315 7 10 7H15V6C15 5.44772 14.5523 5 14 5Z" fill="#71AFAC"/>
</svg>
