<svg width="62" height="63" viewBox="0 0 62 63" fill="none" xmlns="http://www.w3.org/2000/svg">
<path d="M12.5424 28.1165H14.1705C15.3547 30.7313 17.1324 33.032 19.3614 34.8348C21.5904 36.6375 24.2089 37.8923 27.0077 38.4989V44.5469H22.512C21.8456 44.5469 21.2066 44.8124 20.7354 45.285C20.2642 45.7576 19.9995 46.3985 19.9995 47.0669V50.3731H17.755C17.5402 50.3704 17.327 50.411 17.1282 50.4926C16.9293 50.5742 16.7489 50.6951 16.5976 50.8481C16.4463 51.0011 16.3273 51.183 16.2476 51.3831C16.1678 51.5832 16.1291 51.7974 16.1336 52.0128V60.6077C16.1336 61.0336 16.3023 61.4422 16.6026 61.7434C16.9029 62.0446 17.3102 62.2138 17.7349 62.2138H43.9855C44.198 62.2173 44.4091 62.1784 44.6065 62.0993C44.8039 62.0202 44.9836 61.9025 45.1352 61.753C45.2867 61.6035 45.4071 61.4252 45.4892 61.2286C45.5713 61.0319 45.6136 60.8209 45.6136 60.6077V52.0128C45.6136 51.5868 45.4449 51.1783 45.1446 50.8771C44.8443 50.5759 44.437 50.4067 44.0123 50.4067H41.7477V47.1005C41.7477 46.4321 41.483 45.7912 41.0118 45.3186C40.5406 44.846 39.9016 44.5805 39.2352 44.5805H34.7395V38.4989C37.5383 37.8923 40.1568 36.6375 42.3858 34.8348C44.6148 33.032 46.3925 30.7313 47.5767 28.1165H49.2048C50.8516 28.1165 52.4822 27.791 54.0035 27.1588C55.5249 26.5265 56.9071 25.5998 58.0712 24.4315C59.2354 23.2633 60.1586 21.8764 60.7882 20.3502C61.4178 18.824 61.7414 17.1883 61.7405 15.5366V7.896C61.7405 7.36132 61.5287 6.84855 61.1518 6.47047C60.7748 6.0924 60.2636 5.88 59.7305 5.88H49.2048V2.016C49.2048 1.48132 48.993 0.968546 48.6161 0.590473C48.2391 0.212399 47.7279 0 47.1948 0H14.5457C14.0126 0 13.5014 0.212399 13.1244 0.590473C12.7475 0.968546 12.5357 1.48132 12.5357 2.016V5.88672H2.01C1.47692 5.88672 0.965665 6.09912 0.588717 6.47719C0.211769 6.85527 1.79161e-06 7.36804 1.79161e-06 7.90272V15.5366C-0.000878903 17.1889 0.322939 18.8251 0.952941 20.3518C1.58294 21.8784 2.50678 23.2656 3.67162 24.4339C4.83647 25.6022 6.21948 26.5288 7.74159 27.1607C9.2637 27.7926 10.8951 28.1174 12.5424 28.1165ZM49.2048 20.543V12.2506H55.3956V15.5366C55.3938 17.1829 54.741 18.7612 53.5804 19.9253C52.4198 21.0894 50.8462 21.7441 49.2048 21.7459H49.1646C49.1847 21.3494 49.2048 20.9462 49.2048 20.543ZM23.0346 14.9251L27.5571 14.2531C27.6828 14.2347 27.8021 14.1859 27.9048 14.111C28.0075 14.0361 28.0905 13.9373 28.1467 13.823L30.1567 9.71712C30.2213 9.58527 30.3215 9.47422 30.4458 9.39655C30.5702 9.31889 30.7137 9.27773 30.8602 9.27773C31.0067 9.27773 31.1502 9.31889 31.2746 9.39655C31.3989 9.47422 31.4991 9.58527 31.5637 9.71712L33.5737 13.823C33.6299 13.9373 33.7129 14.0361 33.8156 14.111C33.9183 14.1859 34.0376 14.2347 34.1633 14.2531L38.6858 14.9251C38.8312 14.9456 38.968 15.0067 39.0805 15.1014C39.193 15.1961 39.2767 15.3206 39.3221 15.4607C39.3675 15.6008 39.3728 15.7508 39.3372 15.8938C39.3017 16.0367 39.2269 16.1668 39.1213 16.2691L35.8517 19.4678C35.7639 19.5541 35.6975 19.6599 35.6579 19.7766C35.6183 19.8933 35.6067 20.0178 35.6239 20.1398L36.3944 24.6557C36.4188 24.8003 36.4024 24.9489 36.3471 25.0847C36.2917 25.2205 36.1995 25.338 36.081 25.424C35.9625 25.51 35.8224 25.561 35.6765 25.5713C35.5306 25.5816 35.3847 25.5508 35.2554 25.4822L31.2354 23.352C31.1228 23.2926 30.9975 23.2615 30.8702 23.2615C30.743 23.2615 30.6177 23.2926 30.5051 23.352L26.4851 25.4822C26.3558 25.5508 26.2099 25.5816 26.064 25.5713C25.9181 25.561 25.778 25.51 25.6595 25.424C25.541 25.338 25.4488 25.2205 25.3934 25.0847C25.3381 24.9489 25.3217 24.8003 25.3461 24.6557L26.1166 20.1398C26.1338 20.0178 26.1222 19.8933 26.0826 19.7766C26.043 19.6599 25.9766 19.5541 25.8888 19.4678L22.6192 16.2691C22.5139 16.1681 22.4388 16.0396 22.4023 15.8982C22.3658 15.7567 22.3693 15.6078 22.4124 15.4682C22.4555 15.3287 22.5366 15.2039 22.6465 15.108C22.7564 15.012 22.8908 14.9487 23.0346 14.9251ZM6.3516 12.2371H12.5424V20.543C12.5424 20.9462 12.5424 21.3494 12.5826 21.7459H12.5424C10.901 21.7441 9.32742 21.0894 8.1668 19.9253C7.00619 18.7612 6.35337 17.1829 6.3516 15.5366V12.2371Z" fill="#71AFAC"/>
</svg>
