<svg width="34" height="27" viewBox="0 0 34 27" fill="none" xmlns="http://www.w3.org/2000/svg">
<path d="M28.57 2.18735C26.3868 1.1655 24.0524 0.422864 21.6118 0C21.3121 0.542096 20.9619 1.27123 20.7205 1.85125C18.1262 1.46094 15.5557 1.46094 13.009 1.85125C12.7676 1.27123 12.4095 0.542096 12.1071 0C9.66392 0.422864 7.32685 1.16823 5.14364 2.19276C0.740086 8.84957 -0.453644 15.341 0.143223 21.7403C3.06389 23.9222 5.89437 25.2476 8.67708 26.115C9.36415 25.169 9.97692 24.1635 10.5048 23.1037C9.49942 22.7215 8.53648 22.2499 7.62662 21.7024C7.868 21.5235 8.10411 21.3365 8.33223 21.144C13.8817 23.7406 19.9114 23.7406 25.3947 21.144C25.6255 21.3365 25.8615 21.5235 26.1003 21.7024C25.1877 22.2526 24.2221 22.7242 23.2168 23.1064C23.7446 24.1635 24.3548 25.1717 25.0445 26.1177C27.8299 25.2503 30.663 23.9249 33.5837 21.7403C34.284 14.3219 32.3873 7.89007 28.57 2.18735ZM11.2608 17.8048C9.59494 17.8048 8.22876 16.249 8.22876 14.3544C8.22876 12.4598 9.56577 10.9014 11.2608 10.9014C12.956 10.9014 14.3221 12.4571 14.2929 14.3544C14.2956 16.249 12.956 17.8048 11.2608 17.8048ZM22.466 17.8048C20.8001 17.8048 19.4339 16.249 19.4339 14.3544C19.4339 12.4598 20.7709 10.9014 22.466 10.9014C24.1611 10.9014 25.5273 12.4571 25.4981 14.3544C25.4981 16.249 24.1611 17.8048 22.466 17.8048Z" fill="#5865F2"/>
</svg>
