<svg width="512" height="512" viewBox="0 0 512 512" fill="none" xmlns="http://www.w3.org/2000/svg">
<g id="more_vertical">
<path id="Shape" fill-rule="evenodd" clip-rule="evenodd" d="M298.667 128C298.667 104.436 279.564 85.3333 256 85.3333C232.436 85.3333 213.333 104.436 213.333 128C213.333 151.564 232.436 170.667 256 170.667C279.564 170.667 298.667 151.564 298.667 128ZM256 213.333C279.564 213.333 298.667 232.436 298.667 256C298.667 279.564 279.564 298.667 256 298.667C232.436 298.667 213.333 279.564 213.333 256C213.333 232.436 232.436 213.333 256 213.333ZM256 341.333C279.564 341.333 298.667 360.436 298.667 384C298.667 407.564 279.564 426.667 256 426.667C232.436 426.667 213.333 407.564 213.333 384C213.333 360.436 232.436 341.333 256 341.333Z" fill="white"/>
</g>
</svg>
