<svg width="13" height="13" viewBox="0 0 13 13" fill="none" xmlns="http://www.w3.org/2000/svg">
<path d="M6.62984 4.91241e-05C5.03299 4.91241e-05 3.50162 0.634394 2.37238 1.76354C1.24325 2.89277 0.608887 4.42434 0.608887 6.02101C0.608887 7.61769 1.24323 9.14924 2.37238 10.2785C3.5016 11.4076 5.03317 12.042 6.62984 12.042C8.22651 12.042 9.75805 11.4076 10.8873 10.2785C12.0164 9.14926 12.6508 7.61769 12.6508 6.02101C12.6508 4.96407 12.3726 3.92585 11.8441 3.01051C11.3156 2.09517 10.5556 1.33514 9.64029 0.806668C8.72495 0.278195 7.68673 0 6.62979 0L6.62984 4.91241e-05ZM11.3198 3.8707H9.27055C8.97085 2.81127 8.45054 1.8271 7.7438 0.982826C8.52195 1.15649 9.24944 1.50756 9.86968 2.00836C10.4899 2.50929 10.9862 3.14661 11.3198 3.87073V3.8707ZM6.60625 10.9797C5.81762 10.1941 5.22849 9.23117 4.88807 8.17143H8.37165C8.03057 9.23144 7.44076 10.1944 6.65137 10.9797C6.63783 10.9894 6.61969 10.9894 6.60625 10.9797H6.60625ZM4.67092 7.31128C4.5132 6.45834 4.5132 5.58379 4.67092 4.73085H8.58875C8.74648 5.58379 8.74648 6.45834 8.58875 7.31128H4.67092ZM1.46898 6.02106C1.46831 5.5858 1.52322 5.15219 1.63237 4.73085H3.79779C3.65744 5.58524 3.65744 6.45689 3.79779 7.31128H1.63237C1.52322 6.88993 1.46831 6.45632 1.46898 6.02106ZM6.62984 1.05385C6.63742 1.05087 6.64587 1.05087 6.65345 1.05385C7.44324 1.84189 8.03246 2.80793 8.37162 3.8707H4.88805C5.22913 2.81068 5.81894 1.84774 6.60833 1.06245C6.61419 1.05698 6.62187 1.05391 6.62984 1.05381L6.62984 1.05385ZM9.46192 4.73085H11.6273C11.8453 5.57718 11.8453 6.46495 11.6273 7.31128H9.46192C9.60227 6.45689 9.60227 5.58524 9.46192 4.73085ZM5.51608 0.982826C4.81009 1.82761 4.28988 2.81159 3.98932 3.8707H1.94004C2.27363 3.14658 2.76996 2.50926 3.3902 2.00834C4.01043 1.50751 4.73792 1.15645 5.51608 0.982801V0.982826ZM1.94009 8.17143H3.98937C4.28907 9.23085 4.80938 10.215 5.51612 11.0593C4.73797 10.8856 4.01048 10.5346 3.39024 10.0338C2.77001 9.53284 2.27368 8.89552 1.94009 8.1714V8.17143ZM7.74606 11.0593C8.45115 10.2143 8.97061 9.23034 9.2706 8.17143H11.3199C10.9863 8.89555 10.49 9.53286 9.86973 10.0338C9.24949 10.5346 8.522 10.8857 7.74384 11.0593L7.74606 11.0593Z" fill="#71AFAC"/>
</svg>
