<svg width="26" height="26" viewBox="0 0 26 26" fill="none" xmlns="http://www.w3.org/2000/svg">
<rect width="26" height="26" rx="9" fill="white"/>
<path d="M12.6499 7.00005C10.8863 7.00005 9.19493 7.70067 7.94771 8.94777C6.70064 10.195 6 11.8865 6 13.65C6 15.4135 6.70061 17.105 7.94771 18.3522C9.1949 19.5993 10.8865 20.3 12.6499 20.3C14.4134 20.3 16.1049 19.5993 17.3522 18.3522C18.5992 17.1051 19.2999 15.4135 19.2999 13.65C19.2999 12.4826 18.9926 11.336 18.4089 10.325C17.8253 9.31404 16.9858 8.47462 15.9749 7.89094C14.9639 7.30726 13.8172 7 12.6499 7L12.6499 7.00005ZM17.8299 11.2751H15.5665C15.2355 10.105 14.6608 9.01797 13.8803 8.0855C14.7397 8.2773 15.5432 8.66505 16.2282 9.21817C16.9133 9.77142 17.4614 10.4753 17.8299 11.2751V11.2751ZM12.6239 19.1267C11.7529 18.2591 11.1022 17.1955 10.7262 16.0251H14.5737C14.197 17.1958 13.5456 18.2594 12.6737 19.1267C12.6588 19.1374 12.6387 19.1374 12.6239 19.1267H12.6239ZM10.4864 15.0751C10.3122 14.133 10.3122 13.1671 10.4864 12.2251H14.8135C14.9877 13.1671 14.9877 14.133 14.8135 15.0751H10.4864ZM6.94994 13.6501C6.9492 13.1693 7.00985 12.6904 7.1304 12.2251H9.52204C9.36703 13.1687 9.36703 14.1314 9.52204 15.0751H7.1304C7.00985 14.6097 6.9492 14.1308 6.94994 13.6501ZM12.6499 8.16394C12.6583 8.16065 12.6676 8.16065 12.676 8.16394C13.5483 9.03431 14.1991 10.1013 14.5737 11.2751H10.7262C11.1029 10.1043 11.7543 9.04077 12.6262 8.17344C12.6327 8.1674 12.6411 8.164 12.6499 8.1639L12.6499 8.16394ZM15.7779 12.2251H18.1695C18.4102 13.1598 18.4102 14.1403 18.1695 15.0751H15.7779C15.9329 14.1314 15.9329 13.1687 15.7779 12.2251ZM11.4198 8.0855C10.6401 9.01854 10.0655 10.1053 9.73358 11.2751H7.47022C7.83866 10.4753 8.38683 9.7714 9.07186 9.21814C9.75689 8.665 10.5604 8.27726 11.4198 8.08547V8.0855ZM7.47027 16.0251H9.73363C10.0646 17.1952 10.6393 18.2822 11.4199 19.2146C10.5604 19.0228 9.75695 18.6351 9.07192 18.082C8.38689 17.5287 7.83871 16.8248 7.47027 16.025V16.0251ZM13.8828 19.2146C14.6615 18.2814 15.2352 17.1946 15.5666 16.0251H17.8299C17.4615 16.8248 16.9133 17.5287 16.2283 18.082C15.5433 18.6351 14.7398 19.0229 13.8803 19.2147L13.8828 19.2146Z" fill="#71AFAC"/>
</svg>
