<svg width="16" height="16" viewBox="0 0 16 16" fill="none" xmlns="http://www.w3.org/2000/svg">
<path fill-rule="evenodd" clip-rule="evenodd" d="M6.19269 13.4203C6.32175 13.3945 6.44028 13.3311 6.53335 13.238L10.9665 8.80477C11.2269 8.54442 11.2269 8.12231 10.9665 7.86196L8.13812 5.03354C7.87777 4.77319 7.45566 4.77319 7.19531 5.03354L2.76211 9.46677C2.66905 9.55984 2.60561 9.67837 2.5798 9.80743L1.87269 13.343C1.7794 13.8094 2.19067 14.2207 2.65716 14.1274L6.19269 13.4203Z" fill="#71AFAC"/>
<path fill-rule="evenodd" clip-rule="evenodd" d="M12.5189 2.53842C11.7378 1.75738 10.4715 1.75737 9.69046 2.53842L9.0336 3.19528C8.77325 3.45563 8.77325 3.87774 9.0336 4.13809L11.862 6.96652C12.1224 7.22687 12.5445 7.22687 12.8048 6.96652L13.4617 6.30966C14.2427 5.52861 14.2427 4.26228 13.4617 3.48123L12.5189 2.53842Z" fill="#71AFAC"/>
</svg>
