<svg width="24" height="24" viewBox="0 0 24 24" fill="none" xmlns="http://www.w3.org/2000/svg">
<path d="M12 0C5.38333 0 0 5.38333 0 12C0 18.6167 5.38333 24 12 24C18.6167 24 24 18.6167 24 12C24 5.38333 18.6167 0 12 0ZM12 22.6667C6.11857 22.6667 1.33333 17.8814 1.33333 12C1.33333 6.11857 6.11857 1.33333 12 1.33333C17.8814 1.33333 22.6667 6.11857 22.6667 12C22.6667 17.8814 17.8814 22.6667 12 22.6667Z" fill="#71AFAC"/>
<path d="M18.2496 9.75957C18.2496 10.5966 17.5712 11.275 16.7342 11.275C15.8973 11.275 15.2188 10.5966 15.2188 9.75957C15.2188 8.92271 15.8973 8.24414 16.7342 8.24414C17.5712 8.24414 18.2496 8.92271 18.2496 9.75957Z" fill="#71AFAC"/>
<path d="M8.78086 9.75957C8.78086 10.5966 8.10229 11.275 7.26543 11.275C6.42838 11.275 5.75 10.5966 5.75 9.75957C5.75 8.92271 6.42838 8.24414 7.26543 8.24414C8.10229 8.24414 8.78086 8.92271 8.78086 9.75957Z" fill="#71AFAC"/>
<path d="M16.2924 14.4015C13.8858 16.5468 10.1152 16.5468 7.70809 14.4015C7.43335 14.1565 7.01185 14.1805 6.76666 14.4556C6.52168 14.7305 6.54586 15.1519 6.82079 15.397C8.27298 16.6911 10.1366 17.3386 12.0003 17.3386C13.864 17.3386 15.7275 16.6915 17.1794 15.397C17.4543 15.1521 17.4785 14.7306 17.2335 14.4556C16.9885 14.1805 16.5668 14.1565 16.2923 14.4015H16.2924Z" fill="#71AFAC"/>
</svg>
