<svg width="40" height="40" viewBox="0 0 138 138" fill="none" xmlns="http://www.w3.org/2000/svg">
<path d="M110.4 27.6001H20.7C13.0785 27.6001 6.9 33.7786 6.9 41.4001V96.6001C6.9 104.222 13.0785 110.4 20.7 110.4H110.4C118.022 110.4 124.2 104.222 124.2 96.6001V41.4001C124.2 33.7786 118.022 27.6001 110.4 27.6001Z" fill="#0D3642"/>
<path d="M124.2 41.3999H6.9V55.1999H124.2V41.3999Z" fill="#0D3642"/>
<path d="M41.4 83.2969H27.6C23.7892 83.2969 20.7 86.3861 20.7 90.1969C20.7 94.0076 23.7892 97.0969 27.6 97.0969H41.4C45.2108 97.0969 48.3 94.0076 48.3 90.1969C48.3 86.3861 45.2108 83.2969 41.4 83.2969Z" fill="#71AFAC"/>
<path d="M110.4 131.1C104.373 129.09 99.1306 125.236 95.4156 120.082C91.7006 114.928 89.701 108.736 89.7 102.382V94.668C89.7011 93.2204 90.1574 91.8098 91.0044 90.6359C91.8514 89.462 93.0462 88.5842 94.4196 88.1268L108.22 83.5314C109.633 83.0488 111.167 83.0488 112.58 83.5314L126.38 88.1268C127.754 88.5842 128.949 89.462 129.796 90.6359C130.643 91.8098 131.099 93.2204 131.1 94.668V102.382C131.099 108.736 129.099 114.928 125.384 120.082C121.669 125.236 116.427 129.09 110.4 131.1V131.1Z" fill="#71AFAC"/>
<path d="M103.086 107.143L107.957 112.014L117.714 102.258" stroke="white" stroke-width="2" stroke-linecap="round" stroke-linejoin="round"/>
</svg>
