<svg width="40" height="40" viewBox="0 0 139 138" fill="none" xmlns="http://www.w3.org/2000/svg">
<path d="M79.925 48.2998H59.075C53.3174 48.2998 48.65 52.9337 48.65 58.6498V79.3498C48.65 85.0659 53.3174 89.6998 59.075 89.6998H79.925C85.6826 89.6998 90.35 85.0659 90.35 79.3498V58.6498C90.35 52.9337 85.6826 48.2998 79.925 48.2998Z" fill="#71AFAC"/>
<path d="M73.9619 61.1062L69.639 58.9534C69.4468 58.8586 69.2351 58.8092 69.0204 58.8092C68.8058 58.8092 68.5941 58.8586 68.4019 58.9534L64.079 61.1062C63.8669 61.2094 63.6317 61.2572 63.3958 61.2451C63.1599 61.2331 62.931 61.1615 62.7307 61.0372C62.5304 60.9129 62.3653 60.74 62.251 60.5347C62.1367 60.3295 62.0769 60.0987 62.0774 59.8642V48.2998H75.9774V59.8642C75.9791 60.1006 75.9195 60.3335 75.8045 60.5405C75.6895 60.7475 75.5228 60.9217 75.3205 61.0463C75.1181 61.171 74.887 61.242 74.6491 61.2525C74.4112 61.263 74.1745 61.2126 73.9619 61.1062V61.1062Z" fill="#0D3642"/>
<path d="M27.8 55.2002H13.9C10.0616 55.2002 6.95 58.2894 6.95 62.1002V75.9002C6.95 79.711 10.0616 82.8002 13.9 82.8002H27.8C31.6384 82.8002 34.75 79.711 34.75 75.9002V62.1002C34.75 58.2894 31.6384 55.2002 27.8 55.2002Z" fill="#0D3642"/>
<path d="M23.8246 63.7286L20.9473 62.3486C20.817 62.2872 20.6745 62.2554 20.5303 62.2554C20.3861 62.2554 20.2436 62.2872 20.1133 62.3486L17.236 63.7286C17.0943 63.8133 16.9322 63.8584 16.7669 63.8591C16.6015 63.8599 16.439 63.8162 16.2966 63.7328C16.1542 63.6494 16.0371 63.5293 15.9578 63.3852C15.8785 63.2411 15.8398 63.0785 15.846 62.9144V55.2002H25.159V62.9144C25.1595 63.0705 25.1196 63.2242 25.043 63.3606C24.9665 63.497 24.8559 63.6115 24.722 63.6933C24.588 63.775 24.4351 63.8212 24.2779 63.8274C24.1208 63.8336 23.9647 63.7996 23.8246 63.7286V63.7286Z" fill="white"/>
<path d="M125.1 55.2002H111.2C107.362 55.2002 104.25 58.2894 104.25 62.1002V75.9002C104.25 79.711 107.362 82.8002 111.2 82.8002H125.1C128.938 82.8002 132.05 79.711 132.05 75.9002V62.1002C132.05 58.2894 128.938 55.2002 125.1 55.2002Z" fill="#0D3642"/>
<path d="M121.125 63.7286L118.247 62.3486C118.117 62.2872 117.975 62.2554 117.83 62.2554C117.686 62.2554 117.544 62.2872 117.413 62.3486L114.536 63.7286C114.394 63.8133 114.232 63.8584 114.067 63.8591C113.901 63.8599 113.739 63.8162 113.597 63.7328C113.454 63.6494 113.337 63.5293 113.258 63.3852C113.178 63.2411 113.14 63.0785 113.146 62.9144V55.2002H122.459V62.9144C122.459 63.0705 122.42 63.2242 122.343 63.3606C122.266 63.497 122.156 63.6115 122.022 63.6933C121.888 63.775 121.735 63.8212 121.578 63.8274C121.421 63.8336 121.265 63.7996 121.125 63.7286V63.7286Z" fill="white"/>
<path d="M71.437 68.0799C68.7229 65.3853 64.3224 65.3853 61.6082 68.0799C58.8941 70.7746 58.8941 75.1434 61.6082 77.838L91.0946 107.112C93.8087 109.807 98.2092 109.807 100.923 107.112C103.638 104.418 103.638 100.049 100.923 97.3542L71.437 68.0799Z" fill="#0D3642"/>
<path d="M22.9489 29.6839C18.6279 33.9743 15.6854 39.4405 14.4934 45.3913C13.3015 51.342 13.9136 57.51 16.2525 63.1153C18.5913 68.7206 22.5518 73.5116 27.6332 76.8823C32.7145 80.253 38.6885 82.0521 44.7997 82.0521C50.9109 82.0521 56.8849 80.253 61.9662 76.8823C67.0476 73.5116 71.0081 68.7206 73.3469 63.1153C75.6858 57.51 76.2979 51.342 75.106 45.3913C73.914 39.4405 70.9715 33.9743 66.6505 29.6839C63.7812 26.8348 60.3746 24.5748 56.6254 23.0328C52.8762 21.4909 48.8578 20.6973 44.7997 20.6973C40.7416 20.6973 36.7232 21.4909 32.974 23.0328C29.2248 24.5748 25.8183 26.8348 22.9489 29.6839V29.6839ZM59.3669 65.8399C56.4827 68.692 52.8121 70.6318 48.8183 71.4144C44.8246 72.197 40.6868 71.7873 36.9275 70.237C33.1681 68.6866 29.9556 66.0653 27.6957 62.7038C25.4358 59.3423 24.2296 55.3914 24.2296 51.3499C24.2296 47.3084 25.4358 43.3575 27.6957 39.996C29.9556 36.6345 33.1681 34.0131 36.9275 32.4628C40.6868 30.9125 44.8246 30.5028 48.8183 31.2854C52.8121 32.0679 56.4827 34.0077 59.3669 36.8599C61.2884 38.76 62.8131 41.0182 63.8534 43.5047C64.8937 45.9913 65.4292 48.6573 65.4292 51.3499C65.4292 54.0424 64.8937 56.7085 63.8534 59.195C62.8131 61.6816 61.2884 63.9397 59.3669 65.8399V65.8399Z" fill="#71AFAC"/>
</svg>
