<svg width="40" height="40" viewBox="0 0 138 138" fill="none" xmlns="http://www.w3.org/2000/svg">
<path d="M110.4 117.3L27.6 117.3C23.94 117.3 20.4299 115.846 17.8419 113.258C15.2539 110.67 13.8 107.16 13.8 103.5L13.8 34.5003L124.2 34.5003L124.2 103.5C124.2 107.16 122.746 110.67 120.158 113.258C117.57 115.846 114.06 117.3 110.4 117.3V117.3Z" fill="#0D3642"/>
<path d="M110.4 48.3003L13.8 48.3003V34.5003C13.8 30.8403 15.2539 27.3302 17.8419 24.7422C20.4299 22.1542 23.94 20.7003 27.6 20.7003L110.4 20.7003C114.06 20.7003 117.57 22.1542 120.158 24.7422C122.746 27.3302 124.2 30.8403 124.2 34.5003C124.2 38.1603 122.746 41.6704 120.158 44.2584C117.57 46.8464 114.06 48.3003 110.4 48.3003V48.3003Z" fill="#0D3642"/>
<path d="M110.4 131.1C121.832 131.1 131.1 121.832 131.1 110.4C131.1 98.9679 121.832 89.7002 110.4 89.7002C98.9677 89.7002 89.7 98.9679 89.7 110.4C89.7 121.832 98.9677 131.1 110.4 131.1Z" fill="#71AFAC"/>
<path d="M103.5 110.4L108.385 115.286L118.142 105.515" stroke="white" stroke-width="2" stroke-linecap="round" stroke-linejoin="round"/>
<path d="M89.7 48.2998L55.2 13.7998L20.7 48.2998H89.7Z" fill="#71AFAC"/>
<path d="M103.5 48.2998L69 13.7998L34.5 48.2998H103.5Z" fill="#71AFAC"/>
<path d="M64.1148 32.4854C64.7558 33.1279 65.5172 33.6377 66.3555 33.9856C67.1938 34.3334 68.0925 34.5125 69 34.5125C69.9076 34.5125 70.8063 34.3334 71.6446 33.9856C72.4829 33.6377 73.2443 33.1279 73.8852 32.4854L89.7 48.3002H48.3L64.1148 32.4854Z" fill="white"/>
<path d="M55.2 89.7002H13.8V62.1002L55.2 62.1002C58.86 62.1002 62.3701 63.5541 64.9581 66.1421C67.5461 68.7301 69 72.2402 69 75.9002C69 79.5602 67.5461 83.0703 64.9581 85.6583C62.3701 88.2463 58.86 89.7002 55.2 89.7002V89.7002Z" fill="#71AFAC"/>
<path d="M55.2 82.8C59.0108 82.8 62.1 79.7108 62.1 75.9C62.1 72.0892 59.0108 69 55.2 69C51.3893 69 48.3 72.0892 48.3 75.9C48.3 79.7108 51.3893 82.8 55.2 82.8Z" fill="white"/>
</svg>
