<svg width="40" height="40" viewBox="0 0 138 138" fill="none" xmlns="http://www.w3.org/2000/svg">
<path d="M41.4 80.1504H96.6V124.2C96.6023 125.378 96.3031 126.537 95.7309 127.566C95.1586 128.595 94.3323 129.461 93.3308 130.081C92.3292 130.701 91.1857 131.054 90.009 131.107C88.8324 131.159 87.6618 130.91 86.6088 130.382L72.0912 123.096C71.1317 122.615 70.0733 122.365 69 122.365C67.9268 122.365 66.8683 122.615 65.9088 123.096L51.3912 130.369C50.3393 130.896 49.17 131.145 47.9945 131.093C46.819 131.041 45.6764 130.689 44.6752 130.071C43.674 129.453 42.8475 128.589 42.2742 127.561C41.701 126.534 41.4001 125.377 41.4 124.2V80.1504Z" fill="#71AFAC"/>
<path d="M69 110.4C95.6754 110.4 117.3 88.7752 117.3 62.0998C117.3 35.4245 95.6754 13.7998 69 13.7998C42.3247 13.7998 20.7 35.4245 20.7 62.0998C20.7 88.7752 42.3247 110.4 69 110.4Z" fill="#0D3642"/>
<path d="M69 96.6001C88.0538 96.6001 103.5 81.1539 103.5 62.1001C103.5 43.0463 88.0538 27.6001 69 27.6001C49.9462 27.6001 34.5 43.0463 34.5 62.1001C34.5 81.1539 49.9462 96.6001 69 96.6001Z" fill="#0D3642"/>
<path d="M55.2 62.0999L64.4046 71.7599L82.8 52.4399" stroke="white" stroke-width="5" stroke-linecap="round" stroke-linejoin="round"/>
</svg>
