<svg width="54" height="54" viewBox="0 0 54 54" fill="none" xmlns="http://www.w3.org/2000/svg">
<path fill-rule="evenodd" clip-rule="evenodd" d="M27 54C12.15 54 0 41.8502 0 26.8656C0.135 12.0159 12.15 -0.133883 27.135 0.00111421C41.985 0.136111 54 12.1509 54 27.2706C53.865 41.9852 41.85 54 27 54" fill="black"/>
<path fill-rule="evenodd" clip-rule="evenodd" d="M18.3788 20.592L26.8028 9L35.1548 20.52L38.7548 37.728L26.8028 45L14.8508 37.728L18.3788 20.592ZM19.459 23.9041L16.795 36.9361L25.507 42.2641L19.459 23.9041ZM20.3229 20.952L26.8029 12.024L33.2829 20.952L26.8029 40.536L20.3229 20.952ZM34.075 23.9041L28.027 42.2641L36.739 36.9361L34.075 23.9041Z" fill="white"/>
</svg>
