<svg width="23" height="23" viewBox="0 0 23 23" fill="none" xmlns="http://www.w3.org/2000/svg">
<path opacity="0.1" d="M11.5 23C17.8513 23 23 17.8513 23 11.5C23 5.14873 17.8513 0 11.5 0C5.14873 0 0 5.14873 0 11.5C0 17.8513 5.14873 23 11.5 23Z" fill="#3AB83A"/>
<mask id="mask0_1295_5334" style="mask-type:alpha" maskUnits="userSpaceOnUse" x="0" y="0" width="23" height="23">
<path d="M11.5 23C17.8513 23 23 17.8513 23 11.5C23 5.14873 17.8513 0 11.5 0C5.14873 0 0 5.14873 0 11.5C0 17.8513 5.14873 23 11.5 23Z" fill="white"/>
</mask>
<g mask="url(#mask0_1295_5334)">
<path fill-rule="evenodd" clip-rule="evenodd" d="M8.84766 10.9037L11.9565 8.88284L15.04 10.9163L11.943 5.30762L8.84766 10.9037ZM8.96625 11.4874L11.9599 9.51462L14.9146 11.4727L11.9616 13.4476L8.96625 11.4874ZM8.84766 12.0522C9.93872 12.7677 11.0772 13.5166 11.9565 14.0961L15.04 12.0522C13.9235 14.1003 12.9934 15.8053 11.9565 17.6922L11.3205 16.5393L11.3196 16.5377C10.4658 14.9901 9.58533 13.3943 8.84766 12.0522Z" fill="#3AB83A"/>
<path fill-rule="evenodd" clip-rule="evenodd" d="M11.9453 5.30762L11.9569 8.88284L15.0415 10.9163L11.9453 5.30762ZM11.9598 9.51462L14.934 11.4727L11.9613 13.4476L11.9598 9.51462ZM11.9569 14.0961L15.0415 12.0522C14.0847 14.1003 11.9569 17.6922 11.9569 17.6922V14.0961Z" fill="#0B8311"/>
</g>
</svg>
