<svg width="9" height="16" viewBox="0 0 9 16" fill="none" xmlns="http://www.w3.org/2000/svg">
<path fill-rule="evenodd" clip-rule="evenodd" d="M0 7.22973L4.49885 4.61892L8.96093 7.24595L4.47924 0L0 7.22973ZM0.171631 7.9842L4.50377 5.43555L8.77952 7.96528L4.50622 10.5166L0.171631 7.9842ZM0 8.71338C1.57889 9.6377 3.22643 10.6053 4.49885 11.3539L8.96093 8.71338C7.34527 11.3593 5.99929 13.562 4.49885 15.9999L3.5783 14.5102C2.34236 12.5102 1.06783 10.4478 0 8.71338Z" fill="#96CECC"/>
<path fill-rule="evenodd" clip-rule="evenodd" d="M4.48096 0L4.49776 4.61892L8.96142 7.24595L4.48096 0ZM4.50189 5.43506L8.80589 7.96479L4.50399 10.5161L4.50189 5.43506ZM4.49799 11.3539L8.96164 8.71338C7.57717 11.3593 4.49799 15.9999 4.49799 15.9999V11.3539Z" fill="#71AFAC"/>
</svg>
