<svg width="14" height="14" viewBox="0 0 14 14" fill="none" xmlns="http://www.w3.org/2000/svg">
<path fill-rule="evenodd" clip-rule="evenodd" d="M10.1784 1.16656C10.9001 1.16656 11.5478 1.60974 11.8094 2.28239L12.8524 4.96431C13.1058 5.61589 12.8274 6.33048 12.2505 6.65709V11.0833C12.2505 12.0498 11.467 12.8333 10.5005 12.8333H3.50053C2.53403 12.8333 1.75053 12.0498 1.75053 11.0833V6.65708C1.17368 6.33047 0.895282 5.61589 1.14867 4.96431L2.19164 2.28239C2.45323 1.60974 3.10093 1.16656 3.82265 1.16656H10.1784ZM7.58386 8.16667H6.4172C5.77286 8.16667 5.25053 8.68901 5.25053 9.33334V11.375C5.25053 11.5361 5.38111 11.6667 5.5422 11.6667H8.45886C8.61995 11.6667 8.75053 11.5361 8.75053 11.375V9.33334C8.75053 8.68901 8.22819 8.16667 7.58386 8.16667ZM10.1784 2.33334H9.76375L10.4124 5.36031L10.8482 5.5778C11.0879 5.69763 11.3625 5.72778 11.6224 5.66279C11.7433 5.63258 11.8102 5.50323 11.7651 5.38716L10.7221 2.70524C10.6349 2.48103 10.419 2.33334 10.1784 2.33334ZM4.23727 2.33334H3.82265C3.60613 2.33334 3.4096 2.45297 3.3089 2.64035L3.27898 2.70524L2.23601 5.38716C2.19087 5.50323 2.2578 5.63258 2.37862 5.66279C2.60608 5.71965 2.84477 5.70368 3.06145 5.61852L3.15287 5.5778L3.58863 5.36033L4.23727 2.33334ZM8.57059 2.33334H7.58386V5.39347L7.80893 5.48349C8.18443 5.63369 8.59898 5.64871 8.98228 5.52855L9.1088 5.48349L9.23483 5.43308L8.57059 2.33334ZM6.4172 2.33334H5.43042L4.76619 5.43306L4.89226 5.48349C5.26776 5.63369 5.68231 5.64871 6.06562 5.52855L6.19213 5.48349L6.4172 5.39347V2.33334Z" fill="#94A3B8"/>
</svg>
