<svg width="74" height="70" viewBox="0 0 74 70" fill="none" xmlns="http://www.w3.org/2000/svg">
<rect width="73.3333" height="70" rx="10" fill="white"/>
<path fill-rule="evenodd" clip-rule="evenodd" d="M33.7262 19.0315C35.6406 17.117 38.2371 16.0415 40.9445 16.0415H46.1945C47 16.0415 47.6529 16.6944 47.6529 17.4998V24.4998C47.6529 25.3053 47 25.9582 46.1945 25.9582H40.9445C40.8672 25.9582 40.793 25.9889 40.7383 26.0436C40.6836 26.0983 40.6529 26.1725 40.6529 26.2498V30.0415H46.1945C46.6436 30.0415 47.0676 30.2484 47.344 30.6024C47.6204 30.9563 47.7182 31.4179 47.6093 31.8535L45.8593 38.8535C45.697 39.5027 45.1137 39.9582 44.4445 39.9582H40.6529V52.4998C40.6529 53.3053 40 53.9582 39.1945 53.9582H32.1945C31.3891 53.9582 30.7362 53.3053 30.7362 52.4998V39.9582H26.9445C26.1391 39.9582 25.4862 39.3053 25.4862 38.4998V31.4998C25.4862 30.6944 26.1391 30.0415 26.9445 30.0415H30.7362V26.2498C30.7362 23.5424 31.8117 20.9459 33.7262 19.0315ZM40.9445 18.9582C39.0107 18.9582 37.156 19.7264 35.7886 21.0939C34.4211 22.4613 33.6529 24.316 33.6529 26.2498V31.4998C33.6529 32.3053 33 32.9582 32.1945 32.9582H28.4029V37.0415H32.1945C33 37.0415 33.6529 37.6944 33.6529 38.4998V51.0415H37.7362V38.4998C37.7362 37.6944 38.3891 37.0415 39.1945 37.0415H43.3059L44.3267 32.9582H39.1945C38.3891 32.9582 37.7362 32.3053 37.7362 31.4998V26.2498C37.7362 25.3989 38.0742 24.5829 38.6759 23.9812C39.2776 23.3795 40.0936 23.0415 40.9445 23.0415H44.7362V18.9582H40.9445Z" fill="#71AFAC"/>
</svg>
