<svg width="30" height="29" viewBox="0 0 30 29" fill="none" xmlns="http://www.w3.org/2000/svg">
<rect y="0.530046" width="29.8258" height="28.47" rx="5.13683" fill="#F7FDFD"/>
<path fill-rule="evenodd" clip-rule="evenodd" d="M13.7177 8.27033C14.4963 7.4917 15.5523 7.05427 16.6535 7.05427H18.7887C19.1163 7.05427 19.3819 7.31982 19.3819 7.64739V10.4944C19.3819 10.822 19.1163 11.0875 18.7887 11.0875H16.6535C16.622 11.0875 16.5918 11.1 16.5696 11.1223C16.5473 11.1445 16.5349 11.1747 16.5349 11.2061V12.7483H18.7887C18.9714 12.7483 19.1438 12.8324 19.2562 12.9764C19.3686 13.1203 19.4084 13.3081 19.3641 13.4853L18.6524 16.3323C18.5864 16.5963 18.3491 16.7815 18.077 16.7815H16.5349V21.8824C16.5349 22.21 16.2693 22.4755 15.9417 22.4755H13.0947C12.7671 22.4755 12.5016 22.21 12.5016 21.8824V16.7815H10.9595C10.6319 16.7815 10.3663 16.516 10.3663 16.1884V13.3414C10.3663 13.0138 10.6319 12.7483 10.9595 12.7483H12.5016V11.2061C12.5016 10.105 12.939 9.04895 13.7177 8.27033ZM16.6535 8.24052C15.8669 8.24052 15.1126 8.55297 14.5565 9.10913C14.0003 9.6653 13.6878 10.4196 13.6878 11.2061V13.3414C13.6878 13.669 13.4223 13.9345 13.0947 13.9345H11.5526V15.5953H13.0947C13.4223 15.5953 13.6878 15.8608 13.6878 16.1884V21.2893H15.3486V16.1884C15.3486 15.8608 15.6142 15.5953 15.9417 15.5953H17.6139L18.0291 13.9345H15.9417C15.6142 13.9345 15.3486 13.669 15.3486 13.3414V11.2061C15.3486 10.8601 15.4861 10.5282 15.7308 10.2835C15.9755 10.0388 16.3074 9.90127 16.6535 9.90127H18.1956V8.24052H16.6535Z" fill="#71AFAC"/>
</svg>
