<svg width="35" height="35" viewBox="0 0 35 35" fill="none" xmlns="http://www.w3.org/2000/svg">
<path d="M17.4994 32.0833C25.5535 32.0833 32.0827 25.5541 32.0827 17.5C32.0827 9.44581 25.5535 2.91663 17.4994 2.91663C9.4452 2.91663 2.91602 9.44581 2.91602 17.5C2.91602 25.5541 9.4452 32.0833 17.4994 32.0833Z" fill="#C9E6E5"/>
<path d="M18.9583 32.0114C18.4787 32.059 17.9922 32.0834 17.5 32.0834C17.0078 32.0834 16.5213 32.059 16.0417 32.0114V20.4167H14.5833C13.7779 20.4167 13.125 19.7638 13.125 18.9584C13.125 18.153 13.7779 17.5 14.5833 17.5H16.0417V14.5834C16.0417 12.1671 18.0004 10.2084 20.4167 10.2084H21.875C22.6804 10.2084 23.3333 10.8613 23.3333 11.6667C23.3333 12.4721 22.6804 13.125 21.875 13.125H20.4167C19.6113 13.125 18.9583 13.778 18.9583 14.5834V17.5H21.875C22.6804 17.5 23.3333 18.153 23.3333 18.9584C23.3333 19.7638 22.6804 20.4167 21.875 20.4167H18.9583V32.0114Z" fill="#71AFAC"/>
</svg>
