<svg width="14" height="14" viewBox="0 0 14 14" fill="none" xmlns="http://www.w3.org/2000/svg">
<path fill-rule="evenodd" clip-rule="evenodd" d="M1.55164 0C0.69465 0 0 0.694191 0 1.55164V12.4484C0 13.3054 0.694192 14 1.55164 14H12.4484C13.3054 14 14 13.3058 14 12.4484V1.55164C14 0.69465 13.3058 0 12.4484 0H1.55164ZM3.88532 3.11117C3.45767 3.11117 3.11104 3.45647 3.11104 3.88902C3.11104 4.31848 3.46042 4.66675 3.88532 4.66675H10.1147C10.5423 4.66675 10.889 4.32156 10.889 3.88902C10.889 3.45944 10.5396 3.11117 10.1147 3.11117H3.88532ZM3.88532 6.22233C3.45767 6.22233 3.11104 6.56752 3.11104 7.00006C3.11104 7.42964 3.46042 7.77779 3.88532 7.77779H10.1147C10.5423 7.77779 10.889 7.4326 10.889 7.00006C10.889 6.57048 10.5396 6.22233 10.1147 6.22233H3.88532ZM3.89117 9.3335C3.46027 9.3335 3.11106 9.67868 3.11106 10.1112C3.11106 10.5408 3.45994 10.8891 3.89117 10.8891H7.77539C8.20628 10.8891 8.5555 10.5438 8.5555 10.1112C8.5555 9.68177 8.20662 9.3335 7.77539 9.3335H3.89117Z" fill="#71AFAC"/>
</svg>
