<svg width="54" height="54" viewBox="0 0 54 54" fill="none" xmlns="http://www.w3.org/2000/svg">
<circle cx="27" cy="27" r="27" fill="#00EF8B"/>
<rect x="31.2119" y="22.788" width="7.614" height="7.61399" fill="white"/>
<path d="M23.598 33.264C23.598 34.83 22.302 36.126 20.736 36.126C19.17 36.126 17.874 34.83 17.874 33.264C17.874 31.698 19.17 30.402 20.736 30.402V30.402H23.598V22.788H20.736C14.958 22.788 10.26 27.486 10.26 33.264C10.26 39.042 14.958 43.74 20.736 43.74C26.514 43.74 31.212 39.042 31.212 33.264V33.264V30.402H23.598V33.264Z" fill="white"/>
<path d="M34.074 18.954H42.66V11.34H34.074C28.296 11.34 23.598 16.038 23.598 21.816V22.788H31.212V21.816C31.212 20.25 32.508 18.954 34.074 18.954Z" fill="white"/>
<path d="M31.212 22.788V22.788H23.598V30.402H31.212V22.788Z" fill="#16FF99"/>
</svg>
