<svg width="30" height="30" viewBox="0 0 30 30" fill="none" xmlns="http://www.w3.org/2000/svg">
<path d="M13.5899 5.1035C13.1543 4.99893 12.7059 4.99935 12.1973 4.99982L7.70182 4.99988C7.04289 4.99986 6.47443 4.99984 6.00622 5.03809C5.51204 5.07847 5.02051 5.16762 4.54754 5.40861C3.84193 5.76813 3.26825 6.34181 2.90873 7.04742C2.66774 7.52039 2.57859 8.01192 2.53821 8.5061C2.49996 8.9743 2.49998 9.54274 2.5 10.2017V19.7981C2.49998 20.457 2.49996 21.0255 2.53821 21.4937C2.57859 21.9879 2.66774 22.4794 2.90873 22.9524C3.26825 23.658 3.84193 24.2316 4.54754 24.5912C5.02051 24.8322 5.51204 24.9213 6.00622 24.9617C6.4744 24.9999 7.04281 24.9999 7.7017 24.9999H22.2982C22.957 24.9999 23.5256 24.9999 23.9938 24.9617C24.488 24.9213 24.9795 24.8322 25.4525 24.5912C26.1581 24.2316 26.7318 23.658 27.0913 22.9524C27.3323 22.4794 27.4214 21.9879 27.4618 21.4937C27.5 21.0255 27.5 20.457 27.5 19.7981V12.7017C27.5 12.0428 27.5 11.4743 27.4618 11.0061C27.4214 10.5119 27.3323 10.0204 27.0913 9.54742C26.7318 8.84181 26.1581 8.26813 25.4525 7.90861C24.9795 7.66762 24.488 7.57847 23.9938 7.53809C23.5256 7.49984 22.9571 7.49986 22.2982 7.49988L16.7678 7.49988L15.7319 6.46389C15.3726 6.10391 15.0558 5.78652 14.6738 5.55248C14.3383 5.34687 13.9725 5.19536 13.5899 5.1035Z" fill="#BCE0DF"/>
<path d="M18.75 13.75C18.75 13.0596 18.1904 12.5 17.5 12.5C16.8096 12.5 16.25 13.0596 16.25 13.75V18.75C16.25 19.4404 16.8096 20 17.5 20C18.1904 20 18.75 19.4404 18.75 18.75V13.75Z" fill="#71AFAC"/>
<path d="M13.75 16.25C13.75 15.5596 13.1904 15 12.5 15C11.8096 15 11.25 15.5596 11.25 16.25V18.75C11.25 19.4404 11.8096 20 12.5 20C13.1904 20 13.75 19.4404 13.75 18.75V16.25Z" fill="#71AFAC"/>
</svg>
