<svg width="31" height="29" viewBox="0 0 31 29" fill="none" xmlns="http://www.w3.org/2000/svg">
<rect x="0.76767" y="0.530063" width="29.8258" height="28.47" rx="5.13683" fill="#F7FDFD"/>
<path d="M11.5142 11.2675C11.3567 11.1826 11.1661 11.1869 11.0125 11.2786C10.8589 11.3704 10.7648 11.5362 10.7648 11.7151V18.1548C10.7648 18.4355 10.9924 18.6632 11.2732 18.6632C11.554 18.6632 11.7816 18.4355 11.7816 18.1548V12.5663L15.4383 14.5352C15.5887 14.6163 15.7699 14.6163 15.9203 14.5352L19.577 12.5663V18.1548C19.577 18.4355 19.8046 18.6632 20.0854 18.6632C20.3661 18.6632 20.5938 18.4355 20.5938 18.1548V11.7151C20.5938 11.5362 20.4997 11.3704 20.3461 11.2786C20.1924 11.1869 20.0019 11.1826 19.8443 11.2675L15.6793 13.5102L11.5142 11.2675Z" fill="#71AFAC"/>
<path fill-rule="evenodd" clip-rule="evenodd" d="M19.2791 9.15405C16.884 8.9399 14.4746 8.9399 12.0795 9.15405L11.0509 9.24601C9.94764 9.34466 9.05621 10.1875 8.89597 11.2836C8.5584 13.5926 8.5584 15.9384 8.89597 18.2474C9.05621 19.3434 9.94764 20.1863 11.0509 20.2849L12.0795 20.3769C14.4746 20.591 16.884 20.591 19.2791 20.3769L20.3077 20.2849C21.411 20.1863 22.3024 19.3434 22.4626 18.2474C22.8002 15.9384 22.8002 13.5926 22.4626 11.2836C22.3024 10.1875 21.411 9.34466 20.3077 9.24601L19.2791 9.15405ZM12.17 10.1668C14.5049 9.95803 16.8537 9.95803 19.1886 10.1668L20.2171 10.2588C20.8517 10.3155 21.3644 10.8003 21.4565 11.4307C21.7799 13.6421 21.7799 15.8888 21.4565 18.1003C21.3644 18.7307 20.8517 19.2154 20.2171 19.2722L19.1886 19.3641C16.8537 19.5729 14.5049 19.5729 12.17 19.3641L11.1415 19.2722C10.5069 19.2154 9.99422 18.7307 9.90206 18.1003C9.57875 15.8888 9.57875 13.6421 9.90206 11.4307C9.99422 10.8003 10.5069 10.3155 11.1415 10.2588L12.17 10.1668Z" fill="#71AFAC"/>
</svg>
