<svg width="74" height="70" viewBox="0 0 74 70" fill="none" xmlns="http://www.w3.org/2000/svg">
<rect x="0.333374" width="73.3333" height="70" rx="10" fill="white"/>
<path d="M26.7596 26.3994C26.3722 26.1908 25.9037 26.2012 25.526 26.4268C25.1483 26.6524 24.917 27.06 24.917 27.4999V43.3333C24.917 44.0236 25.4766 44.5833 26.167 44.5833C26.8573 44.5833 27.417 44.0236 27.417 43.3333V29.5927L36.4077 34.4339C36.7776 34.6331 37.2229 34.6331 37.5929 34.4339L46.5836 29.5927V43.3333C46.5836 44.0236 47.1433 44.5833 47.8336 44.5833C48.524 44.5833 49.0836 44.0236 49.0836 43.3333V27.4999C49.0836 27.06 48.8523 26.6524 48.4746 26.4268C48.0969 26.2012 47.6284 26.1908 47.241 26.3994L37.0003 31.9136L26.7596 26.3994Z" fill="#71AFAC"/>
<path fill-rule="evenodd" clip-rule="evenodd" d="M45.8513 21.203C39.9624 20.6765 34.0382 20.6765 28.1493 21.203L25.6204 21.4291C22.9077 21.6717 20.7159 23.744 20.322 26.4389C19.492 32.1161 19.492 37.8838 20.322 43.561C20.7159 46.2559 22.9077 48.3282 25.6204 48.5708L28.1493 48.7969C34.0382 49.3234 39.9624 49.3234 45.8513 48.7969L48.3802 48.5708C51.0929 48.3282 53.2847 46.2559 53.6786 43.561C54.5086 37.8838 54.5086 32.1161 53.6786 26.4389C53.2847 23.744 51.0929 21.6717 48.3802 21.4291L45.8513 21.203ZM28.372 23.6931C34.1127 23.1798 39.8879 23.1798 45.6286 23.6931L48.1575 23.9192C49.7177 24.0587 50.9783 25.2506 51.2049 26.8006C51.9999 32.2379 51.9999 37.762 51.2049 43.1993C50.9783 44.7493 49.7177 45.9412 48.1575 46.0807L45.6286 46.3068C39.8879 46.8201 34.1127 46.8201 28.372 46.3068L25.8431 46.0807C24.2829 45.9412 23.0223 44.7493 22.7957 43.1993C22.0007 37.762 22.0007 32.2379 22.7957 26.8006C23.0223 25.2506 24.2829 24.0587 25.8431 23.9192L28.372 23.6931Z" fill="#71AFAC"/>
</svg>
