<svg width="27" height="27" viewBox="0 0 27 27" fill="none" xmlns="http://www.w3.org/2000/svg">
<path fill-rule="evenodd" clip-rule="evenodd" d="M15.5065 2.85136L16.9369 4.07033C17.1622 4.26227 17.4422 4.37827 17.7372 4.40181L19.6106 4.55131C21.125 4.67216 22.3276 5.87473 22.4484 7.38915L22.5979 9.26255C22.6215 9.55753 22.7375 9.83757 22.9294 10.0628L24.1484 11.4932C25.1338 12.6495 25.1338 14.3502 24.1484 15.5065L22.9294 16.9369C22.7375 17.1622 22.6215 17.4422 22.5979 17.7372L22.4484 19.6106C22.3276 21.125 21.125 22.3276 19.6106 22.4484L17.7372 22.5979C17.4422 22.6215 17.1622 22.7375 16.9369 22.9294L15.5065 24.1484C14.3502 25.1338 12.6495 25.1338 11.4932 24.1484L10.0628 22.9294C9.83757 22.7375 9.55753 22.6215 9.26255 22.5979L7.38915 22.4484C5.87473 22.3276 4.67216 21.125 4.55131 19.6106L4.40181 17.7372C4.37827 17.4422 4.26227 17.1622 4.07033 16.9369L2.85136 15.5065C1.86595 14.3502 1.86595 12.6495 2.85136 11.4932L4.07033 10.0628C4.26227 9.83757 4.37827 9.55753 4.40181 9.26255L4.55131 7.38915C4.67216 5.87473 5.87473 4.67216 7.38915 4.55131L9.26255 4.40181C9.55753 4.37827 9.83757 4.26227 10.0628 4.07033L11.4932 2.85136C12.6495 1.86595 14.3502 1.86595 15.5065 2.85136Z" fill="#71AFAC"/>
<path d="M8.52637 14.2104L11.8657 16.5275C12.2933 16.8242 12.8769 16.7434 13.2078 16.3417L18.4737 9.94727" stroke="white" stroke-linecap="round"/>
</svg>
