<svg width="35" height="35" viewBox="0 0 35 35" fill="none" xmlns="http://www.w3.org/2000/svg">
<path d="M4.375 10.2083C4.375 6.98667 6.98667 4.375 10.2083 4.375H24.7917C28.0133 4.375 30.625 6.98667 30.625 10.2083V24.7917C30.625 28.0133 28.0133 30.625 24.7917 30.625H10.2083C6.98667 30.625 4.375 28.0133 4.375 24.7917V10.2083Z" fill="#C9E6E5"/>
<path fill-rule="evenodd" clip-rule="evenodd" d="M25.5221 10.9375C26.3276 10.9375 26.9805 10.2846 26.9805 9.47921C26.9805 8.67379 26.3276 8.02087 25.5221 8.02087C24.7167 8.02087 24.0638 8.67379 24.0638 9.47921C24.0638 10.2846 24.7167 10.9375 25.5221 10.9375ZM14.5846 17.5C14.5846 15.8892 15.8905 14.5834 17.5013 14.5834C19.1121 14.5834 20.418 15.8892 20.418 17.5C20.418 19.1109 19.1121 20.4167 17.5013 20.4167C15.8905 20.4167 14.5846 19.1109 14.5846 17.5ZM17.5013 11.6667C14.2796 11.6667 11.668 14.2784 11.668 17.5C11.668 20.7217 14.2796 23.3334 17.5013 23.3334C20.723 23.3334 23.3346 20.7217 23.3346 17.5C23.3346 14.2784 20.723 11.6667 17.5013 11.6667Z" fill="#71AFAC"/>
</svg>
