<svg width="31" height="32" viewBox="0 0 31 32" fill="none" xmlns="http://www.w3.org/2000/svg">
<g clip-path="url(#clip0_499_14005)">
<path d="M0.0175781 10.7333C0.0175781 6.93673 0.0175781 5.03843 0.7447 3.5935C1.35744 2.37588 2.31921 1.38308 3.49879 0.750577C4.89855 0 6.73753 0 10.4155 0H20.6197C24.2976 0 26.1366 0 27.5364 0.750577C28.7159 1.38308 29.6777 2.37588 30.2905 3.5935C31.0176 5.03843 31.0176 6.93673 31.0176 10.7333V21.2667C31.0176 25.0633 31.0176 26.9616 30.2905 28.4065C29.6777 29.6241 28.7159 30.6169 27.5364 31.2494C26.1366 32 24.2976 32 20.6197 32H10.4155C6.73753 32 4.89855 32 3.49879 31.2494C2.31921 30.6169 1.35744 29.6241 0.7447 28.4065C0.0175781 26.9616 0.0175781 25.0633 0.0175781 21.2667V10.7333Z" fill="url(#paint0_radial_499_14005)"/>
<path d="M0.0175781 10.7333C0.0175781 6.93673 0.0175781 5.03843 0.7447 3.5935C1.35744 2.37588 2.31921 1.38308 3.49879 0.750577C4.89855 0 6.73753 0 10.4155 0H20.6197C24.2976 0 26.1366 0 27.5364 0.750577C28.7159 1.38308 29.6777 2.37588 30.2905 3.5935C31.0176 5.03843 31.0176 6.93673 31.0176 10.7333V21.2667C31.0176 25.0633 31.0176 26.9616 30.2905 28.4065C29.6777 29.6241 28.7159 30.6169 27.5364 31.2494C26.1366 32 24.2976 32 20.6197 32H10.4155C6.73753 32 4.89855 32 3.49879 31.2494C2.31921 30.6169 1.35744 29.6241 0.7447 28.4065C0.0175781 26.9616 0.0175781 25.0633 0.0175781 21.2667V10.7333Z" fill="url(#paint1_radial_499_14005)"/>
<path d="M15.4999 4.36353C12.4385 4.36353 12.0543 4.37734 10.8519 4.43383C9.65187 4.49056 8.83274 4.68668 8.11601 4.97443C7.37461 5.27165 6.74571 5.66922 6.11915 6.31625C5.49212 6.96304 5.10698 7.61225 4.81813 8.37734C4.53867 9.11746 4.34845 9.96328 4.29443 11.2016C4.24065 12.4428 4.22656 12.8396 4.22656 15.9999C4.22656 19.1601 4.24018 19.5555 4.29467 20.7967C4.34985 22.0355 4.53984 22.8811 4.81836 23.621C5.10651 24.3863 5.49165 25.0355 6.11844 25.6823C6.74477 26.3296 7.37367 26.7281 8.1146 27.0253C8.8318 27.3131 9.65116 27.5092 10.851 27.5659C12.0534 27.6224 12.4373 27.6362 15.4985 27.6362C18.5601 27.6362 18.9431 27.6224 20.1455 27.5659C21.3456 27.5092 22.1656 27.3131 22.8828 27.0253C23.624 26.7281 24.252 26.3296 24.8783 25.6823C25.5053 25.0355 25.8904 24.3863 26.1793 23.6212C26.4564 22.8811 26.6466 22.0353 26.703 20.797C26.757 19.5558 26.7711 19.1601 26.7711 15.9999C26.7711 12.8396 26.757 12.443 26.703 11.2018C26.6466 9.96304 26.4564 9.11746 26.1793 8.37758C25.8904 7.61225 25.5053 6.96304 24.8783 6.31625C24.2513 5.66898 23.6242 5.2714 22.8821 4.97443C22.1635 4.68668 21.3439 4.49056 20.1439 4.43383C18.9415 4.37734 18.5587 4.36353 15.4964 4.36353H15.4999ZM14.4887 6.46049C14.7888 6.46001 15.1237 6.46049 15.4999 6.46049C18.5096 6.46049 18.8663 6.47165 20.0549 6.5274C21.1539 6.57928 21.7504 6.76886 22.1478 6.92813C22.6738 7.13904 23.0489 7.39116 23.4432 7.79843C23.8377 8.20571 24.0819 8.59359 24.2867 9.13662C24.441 9.54631 24.6249 10.1621 24.6749 11.2966C24.7289 12.5233 24.7407 12.8918 24.7407 15.9972C24.7407 19.1027 24.7289 19.4712 24.6749 20.6978C24.6247 21.8324 24.441 22.4481 24.2867 22.8578C24.0824 23.4009 23.8377 23.7875 23.4432 24.1946C23.0486 24.6018 22.6741 24.8539 22.1478 25.0649C21.7509 25.2249 21.1539 25.4139 20.0549 25.4658C18.8666 25.5216 18.5096 25.5337 15.4999 25.5337C12.4899 25.5337 12.1332 25.5216 10.9449 25.4658C9.84585 25.4135 9.24935 25.2239 8.85176 25.0646C8.32572 24.8537 7.94997 24.6016 7.55544 24.1943C7.16091 23.787 6.91667 23.4001 6.71189 22.8569C6.5576 22.4472 6.37372 21.8314 6.3237 20.6969C6.26968 19.4702 6.25888 19.1017 6.25888 15.9943C6.25888 12.8869 6.26968 12.5204 6.3237 11.2937C6.37395 10.1592 6.5576 9.5434 6.71189 9.13322C6.9162 8.59019 7.16091 8.20231 7.55544 7.79504C7.94997 7.38777 8.32572 7.13565 8.85176 6.92425C9.24912 6.76425 9.84585 6.57516 10.9449 6.52304C11.9848 6.47456 12.3878 6.46001 14.4887 6.45759V6.46049ZM21.517 8.39262C20.7702 8.39262 20.1643 9.01734 20.1643 9.78849C20.1643 10.5594 20.7702 11.1849 21.517 11.1849C22.2638 11.1849 22.8697 10.5594 22.8697 9.78849C22.8697 9.01758 22.2638 8.39213 21.517 8.39213V8.39262ZM15.4999 10.0241C12.303 10.0241 9.71105 12.6998 9.71105 15.9999C9.71105 19.3 12.303 21.9744 15.4999 21.9744C18.6968 21.9744 21.2878 19.3 21.2878 15.9999C21.2878 12.6998 18.6965 10.0241 15.4997 10.0241H15.4999ZM15.4999 12.1211C17.5749 12.1211 19.2573 13.8576 19.2573 15.9999C19.2573 18.1419 17.5749 19.8787 15.4999 19.8787C13.4246 19.8787 11.7424 18.1419 11.7424 15.9999C11.7424 13.8576 13.4246 12.1211 15.4999 12.1211Z" fill="white"/>
</g>
<defs>
<radialGradient id="paint0_radial_499_14005" cx="0" cy="0" r="1" gradientUnits="userSpaceOnUse" gradientTransform="translate(8.25199 34.4647) rotate(-90) scale(31.7144 28.5751)">
<stop stop-color="#FFDD55"/>
<stop offset="0.1" stop-color="#FFDD55"/>
<stop offset="0.5" stop-color="#FF543E"/>
<stop offset="1" stop-color="#C837AB"/>
</radialGradient>
<radialGradient id="paint1_radial_499_14005" cx="0" cy="0" r="1" gradientUnits="userSpaceOnUse" gradientTransform="translate(-5.17509 2.30523) rotate(79.0257) scale(14.1596 56.677)">
<stop stop-color="#3771C8"/>
<stop offset="0.128" stop-color="#3771C8"/>
<stop offset="1" stop-color="#6600FF" stop-opacity="0"/>
</radialGradient>
<clipPath id="clip0_499_14005">
<rect width="31" height="32" fill="white"/>
</clipPath>
</defs>
</svg>
