<svg width="26" height="17" viewBox="0 0 26 17" fill="none" xmlns="http://www.w3.org/2000/svg">
<path d="M24.3408 11.3389H16.7112V8.17096C16.7112 7.77504 16.3679 7.43176 15.972 7.43176H9.108C8.71208 7.43176 8.3688 7.77502 8.3688 8.17096V11.3126H0.7392C0.343275 11.3126 0 11.6559 0 12.0518V15.8535C0 16.2494 0.343257 16.5927 0.7392 16.5927H24.3408C24.7367 16.5927 25.08 16.2494 25.08 15.8535V12.0782C25.08 11.6559 24.7367 11.339 24.3408 11.339V11.3389Z" fill="#C9E6E5"/>
<path d="M10.6129 3.68292C10.745 3.78844 10.7978 3.947 10.745 4.1317L10.428 5.50455C10.3488 5.87414 10.7448 6.1909 11.088 5.97965L12.3025 5.24045C12.4346 5.16127 12.6193 5.16127 12.7513 5.24045L13.9658 5.97965C14.3091 6.19088 14.705 5.87413 14.6258 5.50455L14.2826 4.10535C14.2562 3.94698 14.3089 3.7886 14.4146 3.65657L15.497 2.73248C15.7874 2.4684 15.6291 1.99328 15.233 1.96697L13.8601 1.86127C13.7017 1.83493 13.5434 1.75575 13.4905 1.59719L12.936 0.277193C12.7777 -0.0923976 12.276 -0.0923976 12.1177 0.277193L11.5632 1.59719C11.5103 1.75556 11.352 1.86127 11.1936 1.86127L9.76808 1.96697C9.37215 1.99331 9.21358 2.49492 9.504 2.73248L10.6129 3.68292Z" fill="#71AFAC"/>
<path d="M2.24391 7.59013C2.37595 7.69565 2.4288 7.85421 2.37595 8.03891L2.03269 9.43811C1.95351 9.8077 2.34944 10.1245 2.69269 9.91322L3.90719 9.17402C4.03923 9.09483 4.22393 9.09483 4.35597 9.17402L5.57046 9.91322C5.91372 10.1244 6.30966 9.8077 6.23046 9.43811L5.88721 8.03891C5.86087 7.88054 5.91354 7.69565 6.01924 7.59013L7.10169 6.66604C7.3921 6.40196 7.23373 5.92684 6.83762 5.90053L5.41211 5.79501C5.25374 5.76868 5.09537 5.68949 5.04252 5.53094L4.48802 4.21094C4.32965 3.84135 3.82802 3.84135 3.66967 4.21094L3.11518 5.53094C3.06232 5.68931 2.90395 5.79501 2.74558 5.79501L1.32008 5.90053C0.924152 5.92687 0.765582 6.42849 1.056 6.66604L2.24391 7.59013Z" fill="#71AFAC"/>
<path d="M18.9817 7.59013C19.1137 7.69565 19.1666 7.85421 19.1137 8.03891L18.7705 9.43811C18.6913 9.8077 19.0872 10.1245 19.4305 9.91322L20.645 9.17402C20.777 9.09483 20.9617 9.09483 21.0938 9.17402L22.3083 9.91322C22.6515 10.1244 23.0475 9.8077 22.9683 9.43811L22.625 8.03891C22.5987 7.88054 22.6513 7.69565 22.757 7.59013L23.8395 6.66604C24.1299 6.40196 23.9715 5.92684 23.5754 5.90053L22.1499 5.79501C21.9915 5.76868 21.8332 5.68949 21.7803 5.53094L21.2258 4.21094C21.0674 3.84135 20.5658 3.84135 20.4075 4.21094L19.853 5.53094C19.8001 5.68931 19.6417 5.79501 19.4834 5.79501L18.0579 5.90053C17.6619 5.92687 17.5034 6.42849 17.7938 6.66604L18.9817 7.59013Z" fill="#71AFAC"/>
</svg>
