<svg width="39" height="31" viewBox="0 0 39 31" fill="none" xmlns="http://www.w3.org/2000/svg">
<path fill-rule="evenodd" clip-rule="evenodd" d="M37.3918 3.13741C36.3969 1.55313 34.6339 0.5 32.625 0.5H6.375L6.00132 0.512215C4.14862 0.633726 2.54078 1.65223 1.60798 3.13762C1.35928 3.53362 1.52164 4.04045 1.91923 4.28656L18.5128 14.5588L18.7199 14.6697C19.2854 14.9286 19.9491 14.8916 20.4866 14.5588L37.0808 4.28639L37.2043 4.1952C37.5093 3.929 37.613 3.48941 37.3918 3.13741ZM38.238 9.50302C38.1357 8.86141 37.3989 8.49972 36.819 8.85873L22.4606 17.7474L22.1151 17.9448C20.3616 18.8659 18.2397 18.8001 16.539 17.7474L2.18096 8.85897L2.0447 8.78872C1.44531 8.53798 0.75 8.97403 0.75 9.65611V24.875L0.759549 25.2055C0.930636 28.1584 3.37936 30.5 6.375 30.5H32.625L32.9555 30.4905C35.9084 30.3194 38.25 27.8707 38.25 24.875V9.65585L38.238 9.50302Z" fill="#71AFAC"/>
</svg>
