<svg width="243" height="243" viewBox="0 0 243 243" fill="none" xmlns="http://www.w3.org/2000/svg">
<g id="Icon">
<g id="Border" opacity="0.06">
<rect id="Shape" x="0.288574" y="0.430664" width="241.846" height="241.846" rx="16" fill="#71AFAC"/>
</g>
<g id="Icon_Best Offers">
<path id="path" fill-rule="evenodd" clip-rule="evenodd" d="M118.188 131.131H112.176C110.506 131.131 109.153 132.485 109.153 134.154C109.153 135.824 110.506 137.178 112.176 137.178H130.3C131.97 137.178 133.323 135.824 133.323 134.154C133.323 132.485 131.97 131.131 130.3 131.131H124.235V92.6334C124.235 89.9875 121.076 88.6182 119.145 90.427L111.587 97.5061C110.369 98.6475 110.306 100.561 111.447 101.779C112.589 102.998 114.502 103.06 115.72 101.919L118.188 99.6071V131.131ZM121.212 161.408C94.4979 161.408 72.8423 139.753 72.8423 113.039C72.8423 86.3256 94.4979 64.6699 121.212 64.6699C147.925 64.6699 169.581 86.3256 169.581 113.039C169.581 139.753 147.925 161.408 121.212 161.408Z" fill="#71AFAC"/>
<path id="path_2" opacity="0.3" fill-rule="evenodd" clip-rule="evenodd" d="M176.407 165.901L164.742 145.696C156.131 157.157 143.099 165.106 128.179 167.013L139.754 187.062C140.783 188.844 143.253 189.1 144.625 187.567L156.695 174.081L174.409 170.371C176.423 169.949 177.436 167.683 176.407 165.901ZM103.596 186.97L115.062 167.111C100.086 165.427 86.9501 157.664 78.1786 146.349L66.9433 165.809C65.9146 167.59 66.9278 169.857 68.9417 170.279L86.6555 173.989L98.7256 187.475C100.098 189.008 102.567 188.752 103.596 186.97Z" fill="#71AFAC"/>
</g>
</g>
</svg>
