<svg width="14" height="13" viewBox="0 0 14 13" fill="none" xmlns="http://www.w3.org/2000/svg">
<path fill-rule="evenodd" clip-rule="evenodd" d="M12.611 4.35082L13.77 2.43752H0.229977L1.37975 4.35999C1.78447 4.17601 2.20759 4.01042 2.62155 3.88171C4.01055 3.44019 5.54661 3.21944 6.99995 3.21944C8.4533 3.21944 9.98954 3.4402 11.3784 3.88171C11.7923 4.01052 12.2062 4.16686 12.6109 4.35085L12.611 4.35082ZM11.1944 4.46124C9.85146 4.02889 8.35205 3.82652 6.99998 3.82652C5.6479 3.82652 4.1484 4.02888 2.80551 4.46124C1.95927 4.73717 1.16821 5.09597 0.533505 5.54663H13.4758C12.832 5.09588 12.05 4.73717 11.1946 4.46124H11.1944ZM8.31531 8.79373V6.16306H5.68464V8.79373H8.31531ZM7.31264 7.59794L7.48738 8.22342H6.51234L6.68707 7.59794C6.57665 7.506 6.51234 7.37719 6.51234 7.22084C6.51234 6.95407 6.73309 6.73333 6.99985 6.73333C7.26661 6.73333 7.48736 6.95408 7.48736 7.22084C7.48736 7.37719 7.42295 7.506 7.31262 7.59794H7.31264ZM13.9998 6.16301H8.93155V9.09726C8.93155 9.272 8.79359 9.41005 8.628 9.41005H5.381C5.20626 9.41005 5.06822 9.27209 5.06822 9.09726V6.16301H0V12.8596H14L13.9998 6.16301ZM0.018141 1.83052H13.9906C13.9446 1.38901 13.8066 1.01183 13.5675 0.708281C13.3007 0.377104 12.8868 0.128824 12.3257 0H1.67393C1.11284 0.12881 0.708117 0.377104 0.432122 0.708281C0.192983 1.01183 0.0550199 1.38894 0.0181639 1.83052H0.018141Z" fill="#94A3B8"/>
</svg>
