<svg width="27" height="21" viewBox="0 0 27 21" fill="red" xmlns="http://www.w3.org/2000/svg">
<path fill-rule="evenodd" clip-rule="evenodd" d="M25.6493 1.84619C24.9529 0.737192 23.7187 0 22.3125 0H3.93752L3.67595 0.00855037C2.37905 0.0936081 1.25357 0.806563 0.600607 1.84633C0.426517 2.12353 0.540167 2.47832 0.818482 2.65059L12.434 9.84113L12.5789 9.91879C12.9748 10.1 13.4394 10.0741 13.8157 9.84113L25.4315 2.65048L25.518 2.58664C25.7315 2.4003 25.8041 2.09259 25.6493 1.84619ZM26.2416 6.30213C26.17 5.85301 25.6543 5.59983 25.2483 5.85113L15.1974 12.0732L14.9556 12.2114C13.7281 12.8562 12.2428 12.8101 11.0523 12.0732L1.00167 5.8513L0.906293 5.80213C0.48672 5.62661 0 5.93184 0 6.4093V17.0625L0.00668406 17.2939C0.126446 19.3609 1.84055 21 3.9375 21H22.3125L22.5439 20.9933C24.6108 20.8736 26.25 19.1595 26.25 17.0625V6.40912L26.2416 6.30213Z" fill="white"/>
</svg>
