<svg width="512" height="492" viewBox="0 0 512 492" fill="none" xmlns="http://www.w3.org/2000/svg">
<g id="mobile">
<path id="Shape" fill-rule="evenodd" clip-rule="evenodd" d="M337.92 40.96C370.64 40.96 397.387 66.5379 399.256 98.7899L399.36 102.4V389.12C399.36 421.841 373.782 448.587 341.53 450.456L337.92 450.56H174.08C141.36 450.56 114.613 424.982 112.744 392.73L112.64 389.12V102.4C112.64 69.6795 138.218 42.933 170.47 41.0643L174.08 40.96H337.92ZM320.853 71.68H191.147C187.376 71.68 184.32 74.7364 184.32 78.5067C184.32 97.358 199.602 112.64 218.453 112.64H293.547C312.398 112.64 327.68 97.358 327.68 78.5067C327.68 74.7364 324.624 71.68 320.853 71.68Z" fill="#D1D5DB"/>
</g>
</svg>
