<svg width="22" height="22" viewBox="0 0 22 22" fill="none" xmlns="http://www.w3.org/2000/svg">
<path d="M21.1608 7.54881C19.3465 2.86721 14.5752 0.0224052 9.55761 0.649606C4.5624 1.27697 0.575198 5.35361 0.059997 10.3264C-0.455164 15.2544 2.38968 19.936 6.95921 21.728C7.13843 21.7952 7.33998 21.8401 7.54157 21.8401C7.96721 21.8401 8.37033 21.6832 8.68393 21.3696L20.8023 9.25116C21.2505 8.8032 21.3848 8.13132 21.1608 7.5488L21.1608 7.54881ZM2.2104 10.5505C2.63604 6.56333 5.8168 3.29293 9.82641 2.80013C10.2072 2.75528 10.5656 2.73294 10.9464 2.73294C13.7464 2.73294 16.3224 4.0545 17.9576 6.2273C14.8664 6.27214 11.7976 7.57138 9.40081 9.9681C7.00409 12.3425 5.70488 15.4113 5.66 18.5025C3.21844 16.6881 1.87436 13.7313 2.21048 10.5505L2.2104 10.5505ZM7.81041 19.1521C7.67603 16.4417 8.81837 13.5745 10.924 11.4689C13.0745 9.31845 15.8744 8.22097 18.6072 8.35533L7.81041 19.1521Z" fill="#71AFAC"/>
</svg>
