<svg width="67" height="67" viewBox="0 0 67 67" fill="none" xmlns="http://www.w3.org/2000/svg">
<circle cx="33.5" cy="33.5" r="33.5" fill="white"/>
<path d="M22.6667 25.6333C22.6667 23.2531 22.6667 22.063 23.1299 21.1539C23.5374 20.3542 24.1875 19.704 24.9872 19.2965C25.8964 18.8333 27.0865 18.8333 29.4667 18.8333H37.7889C38.4819 18.8333 38.8284 18.8333 39.1545 18.9116C39.4436 18.981 39.72 19.0955 39.9735 19.2508C40.2594 19.4261 40.5044 19.6711 40.9945 20.1611L44.0056 23.1722C44.4956 23.6622 44.7406 23.9072 44.9158 24.1932C45.0712 24.4467 45.1857 24.7231 45.2551 25.0122C45.3334 25.3382 45.3334 25.6847 45.3334 26.3777V40.3666C45.3334 42.7469 45.3334 43.937 44.8701 44.8461C44.4627 45.6458 43.8125 46.296 43.0128 46.7034C42.1037 47.1666 40.9136 47.1666 38.5334 47.1666H29.4667C27.0865 47.1666 25.8964 47.1666 24.9872 46.7034C24.1875 46.296 23.5374 45.6458 23.1299 44.8461C22.6667 43.937 22.6667 42.7469 22.6667 40.3666V25.6333Z" fill="#BCE0DF"/>
<path d="M29.75 33C28.9676 33 28.3333 33.6343 28.3333 34.4167C28.3333 35.1991 28.9676 35.8333 29.75 35.8333H38.25C39.0324 35.8333 39.6666 35.1991 39.6666 34.4167C39.6666 33.6343 39.0324 33 38.25 33H29.75Z" fill="#71AFAC"/>
<path d="M29.75 38.6667C28.9676 38.6667 28.3333 39.3009 28.3333 40.0833C28.3333 40.8657 28.9676 41.5 29.75 41.5H34C34.7824 41.5 35.4166 40.8657 35.4166 40.0833C35.4166 39.3009 34.7824 38.6667 34 38.6667H29.75Z" fill="#71AFAC"/>
<path d="M36.8333 20.8368C36.8333 19.7303 37.7303 18.8333 38.8368 18.8333V18.8333C39.3681 18.8333 39.8777 19.0444 40.2534 19.4201L44.7465 23.9132C45.1222 24.2889 45.3333 24.7985 45.3333 25.3298V25.3298C45.3333 26.4363 44.4363 27.3333 43.3298 27.3333H39.6666C38.1018 27.3333 36.8333 26.0648 36.8333 24.5V20.8368Z" fill="#71AFAC"/>
</svg>
