<svg width="20" height="20" viewBox="0 0 20 20" fill="none" xmlns="http://www.w3.org/2000/svg">
<path fill-rule="evenodd" clip-rule="evenodd" d="M18 7.96958C18 3.5681 14.4319 0 10.0304 0C5.61873 0 2.04641 3.58403 2.06086 7.99568L2.06791 10.1473C2.06969 10.692 1.84919 11.2139 1.45736 11.5924L0.42864 12.586C0.15471 12.8506 0 13.2151 0 13.5959C0 14.3714 0.62863 15 1.40408 15H18.5858C19.3668 15 20 14.3668 20 13.5858C20 13.2107 19.851 12.851 19.5858 12.5858L18.5858 11.5858C18.2107 11.2107 18 10.702 18 10.1716V7.96958ZM13.357 18.1758C13.7129 17.6278 13.2374 17 12.584 17H7.41595L7.3088 17.0057C6.71224 17.0695 6.3068 17.6582 6.64294 18.1758C7.35604 19.2738 8.5932 20 10 20C11.4067 20 12.6439 19.2738 13.357 18.1758Z" fill="white"/>
</svg>
