<svg width="24" height="26" viewBox="0 0 24 26" fill="none" xmlns="http://www.w3.org/2000/svg">
<path d="M19.174 13.2147C19.4028 13.7641 19.1429 14.3949 18.5935 14.6237L14.6146 16.2809L16.6861 21.2546C16.9149 21.804 16.655 22.4348 16.1056 22.6637C15.5563 22.8925 14.9254 22.6326 14.6966 22.0832L12.6251 17.1095L8.64614 18.7667C8.09676 18.9955 7.46591 18.7357 7.2371 18.1863L7.10283 17.8639C6.41021 16.201 6.59453 14.3019 7.59402 12.8031L7.82984 12.4495C8.02974 12.1497 8.0666 11.7699 7.92808 11.4373L7.25938 9.83179C7.1653 9.60591 6.99716 9.41877 6.78259 9.30116L4.42028 8.00629C4.20572 7.88868 4.03757 7.70155 3.94349 7.47567L3.26022 5.83513C3.03141 5.28575 3.29128 4.6549 3.84066 4.42609L11.7986 1.11168C12.3479 0.882863 12.9788 1.14273 13.2076 1.69211L13.8909 3.33266C13.985 3.55853 13.9994 3.8097 13.9317 4.04485L13.187 6.63378C13.1193 6.86893 13.1337 7.1201 13.2278 7.34598L13.8965 8.95152C14.035 9.28411 14.3306 9.52547 14.6842 9.5947L15.1013 9.67638C16.8692 10.0225 18.3471 11.2293 19.0397 12.8923L19.174 13.2147Z" fill="#71AFAC"/>
</svg>
