<svg width="30" height="30" viewBox="0 0 30 30" fill="none" xmlns="http://www.w3.org/2000/svg">
<path d="M7.5 13.75C7.5 13.0596 6.94036 12.5 6.25 12.5C5.55964 12.5 5 13.0596 5 13.75C5 18.8495 8.81711 23.0575 13.75 23.6726V26.25C13.75 26.9404 14.3096 27.5 15 27.5C15.6904 27.5 16.25 26.9404 16.25 26.25V23.6726C21.1829 23.0575 25 18.8495 25 13.75C25 13.0596 24.4404 12.5 23.75 12.5C23.0596 12.5 22.5 13.0596 22.5 13.75C22.5 17.8921 19.1421 21.25 15 21.25C10.8579 21.25 7.5 17.8921 7.5 13.75Z" fill="#BCE0DF"/>
<path d="M10 7.5C10 4.73858 12.2386 2.5 15 2.5C17.7614 2.5 20 4.73858 20 7.5V13.75C20 16.5114 17.7614 18.75 15 18.75C12.2386 18.75 10 16.5114 10 13.75V7.5Z" fill="#71AFAC"/>
</svg>
