<svg width="30" height="30" viewBox="0 0 50 50" fill="none" xmlns="http://www.w3.org/2000/svg">
<path d="M25.0013 4.16675C13.4954 4.16675 4.16797 13.4942 4.16797 25.0001C4.16797 36.506 13.4954 45.8334 25.0013 45.8334C36.5072 45.8334 45.8346 36.506 45.8346 25.0001C45.8346 13.4942 36.5072 4.16675 25.0013 4.16675Z" fill="#E4F2F2"/>
<path fill-rule="evenodd" clip-rule="evenodd" d="M17.2782 17.2769C18.0918 16.4633 19.4108 16.4633 20.2244 17.2769L25.0013 22.0538L29.7782 17.2769C30.5918 16.4633 31.9109 16.4633 32.7244 17.2769C33.538 18.0905 33.538 19.4096 32.7244 20.2232L27.9476 25.0001L32.7244 29.7769C33.538 30.5905 33.538 31.9096 32.7244 32.7232C31.9109 33.5368 30.5918 33.5368 29.7782 32.7232L25.0013 27.9464L20.2244 32.7232C19.4108 33.5368 18.0918 33.5368 17.2782 32.7232C16.4646 31.9096 16.4646 30.5905 17.2782 29.7769L22.055 25.0001L17.2782 20.2232C16.4646 19.4096 16.4646 18.0905 17.2782 17.2769Z" fill="#71AFAC"/>
</svg>
