<svg width="18" height="18" viewBox="0 0 18 18" fill="none" xmlns="http://www.w3.org/2000/svg">
<path d="M3.65665 8.13477H4.13131C4.47656 8.8913 4.99482 9.55696 5.64467 10.0785C6.29451 10.6001 7.05793 10.9632 7.8739 11.1386V12.8885H6.56321C6.36894 12.8885 6.18263 12.9653 6.04526 13.102C5.90789 13.2388 5.83071 13.4242 5.83071 13.6176V14.5742H5.17634C5.11371 14.5734 5.05156 14.5851 4.99359 14.6087C4.93562 14.6323 4.88302 14.6673 4.83891 14.7116C4.79481 14.7558 4.7601 14.8085 4.73686 14.8664C4.71362 14.9243 4.70232 14.9862 4.70364 15.0486V17.5353C4.70364 17.6585 4.75282 17.7767 4.84037 17.8638C4.92792 17.951 5.04667 17.9999 5.17048 17.9999H12.8237C12.8856 18.001 12.9472 17.9897 13.0047 17.9668C13.0623 17.9439 13.1146 17.9099 13.1588 17.8666C13.203 17.8234 13.2381 17.7718 13.262 17.7149C13.286 17.658 13.2983 17.5969 13.2983 17.5353V15.0486C13.2983 14.9253 13.2491 14.8071 13.1616 14.72C13.074 14.6328 12.9553 14.5839 12.8315 14.5839H12.1712V13.6273C12.1712 13.4339 12.0941 13.2485 11.9567 13.1118C11.8193 12.975 11.633 12.8982 11.4387 12.8982H10.1281V11.1386C10.944 10.9632 11.7074 10.6001 12.3573 10.0785C13.0071 9.55696 13.5254 8.8913 13.8706 8.13477H14.3453C14.8254 8.13477 15.3008 8.04062 15.7443 7.85768C16.1879 7.67475 16.5909 7.40662 16.9303 7.06863C17.2697 6.73063 17.5388 6.32938 17.7224 5.88781C17.9059 5.44624 18.0003 4.973 18 4.49512V2.2845C18 2.12981 17.9383 1.98145 17.8284 1.87206C17.7185 1.76268 17.5694 1.70123 17.414 1.70123H14.3453V0.583277C14.3453 0.428582 14.2836 0.280224 14.1737 0.170838C14.0638 0.0614523 13.9147 0 13.7593 0H4.24069C4.08528 0 3.93623 0.0614523 3.82633 0.170838C3.71643 0.280224 3.65469 0.428582 3.65469 0.583277V1.70317H0.586002C0.430584 1.70317 0.281533 1.76462 0.171636 1.87401C0.0617398 1.98339 5.22331e-07 2.13175 5.22331e-07 2.28645V4.49512C-0.000256238 4.97316 0.0941505 5.44656 0.277823 5.88826C0.461496 6.32996 0.730833 6.73129 1.07043 7.06931C1.41004 7.40734 1.81324 7.67542 2.25701 7.85824C2.70077 8.04106 3.17638 8.13503 3.65665 8.13477ZM14.3453 5.94359V3.54438H16.1502V4.49512C16.1497 4.97142 15.9593 5.42807 15.621 5.76487C15.2826 6.10166 14.8238 6.2911 14.3453 6.29162H14.3336C14.3394 6.17691 14.3453 6.06025 14.3453 5.94359ZM6.71557 4.3182L8.03407 4.12377C8.07071 4.11844 8.1055 4.10433 8.13544 4.08265C8.16538 4.06098 8.18959 4.03239 8.20597 3.99934L8.79197 2.8114C8.81081 2.77325 8.84001 2.74112 8.87626 2.71865C8.91251 2.69618 8.95436 2.68427 8.99707 2.68427C9.03978 2.68427 9.08163 2.69618 9.11788 2.71865C9.15413 2.74112 9.18333 2.77325 9.20217 2.8114L9.78817 3.99934C9.80455 4.03239 9.82876 4.06098 9.8587 4.08265C9.88864 4.10433 9.92343 4.11844 9.96006 4.12377L11.2786 4.3182C11.321 4.32413 11.3608 4.34181 11.3936 4.3692C11.4264 4.3966 11.4508 4.43261 11.4641 4.47315C11.4773 4.51368 11.4788 4.5571 11.4685 4.59845C11.4581 4.6398 11.4363 4.67743 11.4055 4.70705L10.4523 5.63251C10.4267 5.65747 10.4073 5.68807 10.3958 5.72184C10.3843 5.75562 10.3809 5.79162 10.3859 5.82694L10.6105 7.13348C10.6177 7.17533 10.6129 7.21833 10.5967 7.25761C10.5806 7.29689 10.5537 7.3309 10.5192 7.35578C10.4846 7.38066 10.4438 7.39542 10.4012 7.3984C10.3587 7.40137 10.3162 7.39245 10.2785 7.37262L9.10646 6.75629C9.07363 6.7391 9.03709 6.73011 9 6.73011C8.9629 6.73011 8.92637 6.7391 8.89354 6.75629L7.72154 7.37262C7.68384 7.39245 7.64131 7.40137 7.59877 7.3984C7.55624 7.39542 7.51538 7.38066 7.48084 7.35578C7.44629 7.3309 7.41942 7.29689 7.40328 7.25761C7.38713 7.21833 7.38235 7.17533 7.38947 7.13348L7.61411 5.82694C7.61913 5.79162 7.61573 5.75562 7.6042 5.72184C7.59266 5.68807 7.5733 5.65747 7.54769 5.63251L6.59447 4.70705C6.56377 4.67782 6.54188 4.64065 6.53123 4.59972C6.52058 4.55879 6.5216 4.51572 6.53417 4.47533C6.54675 4.43495 6.57039 4.39885 6.60243 4.3711C6.63447 4.34334 6.67365 4.32502 6.71557 4.3182ZM1.85176 3.54049H3.65665V5.94359C3.65665 6.06025 3.65665 6.17691 3.66837 6.29162H3.65665C3.17812 6.2911 2.71934 6.10166 2.38097 5.76487C2.0426 5.42807 1.85228 4.97142 1.85176 4.49512V3.54049Z" fill="#71AFAC"/>
</svg>
