<svg width="31" height="29" viewBox="0 0 31 29" fill="none" xmlns="http://www.w3.org/2000/svg">
<rect x="0.473022" y="0.53008" width="29.8258" height="28.47" rx="5.13683" fill="#F7FDFD"/>
<path d="M18.7641 15.7818C18.7641 16.3236 18.3249 16.7629 17.783 16.7629C17.2411 16.7629 16.8019 16.3236 16.8019 15.7818C16.8019 15.2399 17.2411 14.8007 17.783 14.8007C18.3249 14.8007 18.7641 15.2399 18.7641 15.7818Z" fill="#71AFAC"/>
<path d="M12.9838 16.7629C13.5256 16.7629 13.9649 16.3236 13.9649 15.7818C13.9649 15.2399 13.5256 14.8007 12.9838 14.8007C12.4419 14.8007 12.0026 15.2399 12.0026 15.7818C12.0026 16.3236 12.4419 16.7629 12.9838 16.7629Z" fill="#71AFAC"/>
<path d="M13.25 17.9027C13.0125 17.7529 12.6986 17.824 12.5488 18.0614C12.399 18.2989 12.47 18.6129 12.7075 18.7627L12.9413 18.9102C14.4328 19.851 16.3322 19.851 17.8236 18.9102L18.0574 18.7627C18.2949 18.6129 18.366 18.2989 18.2162 18.0614C18.0664 17.824 17.7524 17.7529 17.5149 17.9027L17.2811 18.0502C16.1211 18.7819 14.6438 18.7819 13.4838 18.0502L13.25 17.9027Z" fill="#71AFAC"/>
<path fill-rule="evenodd" clip-rule="evenodd" d="M20.7812 7.81695C20.1889 7.81695 19.6723 8.14138 19.3994 8.62225L16.959 8.12164C16.722 8.07302 16.4835 8.19815 16.3889 8.42081C16.1104 9.07602 15.6926 10.069 15.344 10.9187C15.2206 11.2195 15.1054 11.5036 15.0079 11.749C13.6207 11.8048 12.3352 12.1673 11.2838 12.7555C10.9213 12.1485 10.2579 11.7414 9.49849 11.7414C8.35074 11.7414 7.42031 12.6718 7.42031 13.8196C7.42031 14.6976 7.9645 15.4476 8.73361 15.7523C8.64484 16.0767 8.59763 16.4145 8.59763 16.7629C8.59763 18.2145 9.41718 19.482 10.6484 20.367C11.8804 21.2525 13.5568 21.7844 15.3851 21.7844C17.2135 21.7844 18.8898 21.2525 20.1218 20.367C21.3531 19.482 22.1726 18.2145 22.1726 16.7629C22.1726 16.4145 22.1254 16.0767 22.0367 15.7523C22.8055 15.4477 23.35 14.6978 23.35 13.8196C23.35 12.6718 22.4195 11.7414 21.2718 11.7414C20.5124 11.7414 19.849 12.1485 19.4865 12.7555C18.5198 12.2147 17.3552 11.8647 16.0957 11.7684C16.1551 11.6216 16.2186 11.4659 16.2847 11.3046C16.5687 10.6124 16.8995 9.82307 17.1624 9.20133L19.2083 9.62099C19.3138 10.3954 19.9778 10.9922 20.7812 10.9922C21.6581 10.9922 22.3689 10.2814 22.3689 9.40457C22.3689 8.52775 21.6581 7.81695 20.7812 7.81695ZM20.2104 9.40457C20.2104 9.08931 20.466 8.83374 20.7812 8.83374C21.0965 8.83374 21.3521 9.08931 21.3521 9.40457C21.3521 9.71983 21.0965 9.97539 20.7812 9.97539C20.466 9.97539 20.2104 9.71983 20.2104 9.40457ZM15.3851 12.7582C15.4897 12.7582 15.5936 12.7601 15.6967 12.764C15.6957 12.7835 15.6938 12.798 15.6927 12.8049C15.6911 12.8164 15.6894 12.8243 15.6887 12.8273L15.6878 12.8313L15.6896 12.8249C15.6933 12.8123 15.6996 12.7925 15.7091 12.7644C17.217 12.8229 18.5569 13.2862 19.5284 13.9845C20.5698 14.7329 21.1558 15.722 21.1558 16.7629C21.1558 17.8038 20.5698 18.7928 19.5284 19.5413C18.4879 20.2892 17.0246 20.7676 15.3851 20.7676C13.7456 20.7676 12.2824 20.2892 11.2418 19.5413C10.2005 18.7928 9.61442 17.8038 9.61442 16.7629C9.61442 15.722 10.2005 14.7329 11.2418 13.9845C12.2824 13.2366 13.7456 12.7582 15.3851 12.7582ZM8.4371 13.8196C8.4371 13.2334 8.9123 12.7582 9.49849 12.7582C9.90319 12.7582 10.2559 12.9849 10.435 13.3193C9.89316 13.7456 9.443 14.2499 9.12388 14.8131C8.72241 14.6617 8.4371 14.2734 8.4371 13.8196ZM21.6464 14.8131C21.3273 14.2499 20.8771 13.7456 20.3353 13.3193C20.5143 12.9849 20.8671 12.7582 21.2718 12.7582C21.858 12.7582 22.3332 13.2334 22.3332 13.8196C22.3332 14.2733 22.0481 14.6616 21.6464 14.8131Z" fill="#71AFAC"/>
</svg>
