<svg width="74" height="70" viewBox="0 0 74 70" fill="none" xmlns="http://www.w3.org/2000/svg">
<rect x="0.666626" width="73.3333" height="70" rx="10" fill="white"/>
<path d="M45.6413 37.4998C45.6413 38.8321 44.5613 39.9121 43.229 39.9121C41.8967 39.9121 40.8167 38.8321 40.8167 37.4998C40.8167 36.1675 41.8967 35.0875 43.229 35.0875C44.5613 35.0875 45.6413 36.1675 45.6413 37.4998Z" fill="#71AFAC"/>
<path d="M31.429 39.9121C32.7612 39.9121 33.8412 38.8321 33.8412 37.4998C33.8412 36.1675 32.7612 35.0875 31.429 35.0875C30.0967 35.0875 29.0167 36.1675 29.0167 37.4998C29.0167 38.8321 30.0967 39.9121 31.429 39.9121Z" fill="#71AFAC"/>
<path d="M32.0835 42.7145C31.4997 42.3462 30.7277 42.521 30.3594 43.1049C29.9911 43.6888 30.1658 44.4607 30.7497 44.829L31.3246 45.1916C34.9917 47.5048 39.6618 47.5048 43.3288 45.1916L43.9037 44.829C44.4876 44.4607 44.6624 43.6888 44.2941 43.1049C43.9257 42.521 43.1538 42.3462 42.5699 42.7145L41.995 43.0772C39.1429 44.8763 35.5106 44.8763 32.6584 43.0772L32.0835 42.7145Z" fill="#71AFAC"/>
<path fill-rule="evenodd" clip-rule="evenodd" d="M50.6009 17.9165C49.1444 17.9165 47.8742 18.7142 47.2034 19.8965L41.2029 18.6656C40.6202 18.5461 40.034 18.8538 39.8013 19.4012C39.1166 21.0122 38.0892 23.4538 37.2322 25.5429C36.9288 26.2824 36.6455 26.9809 36.4058 27.5842C32.9951 27.7216 29.8344 28.6127 27.2492 30.0589C26.3579 28.5666 24.7268 27.5656 22.8596 27.5656C20.0377 27.5656 17.75 29.8533 17.75 32.6753C17.75 34.8342 19.088 36.6782 20.979 37.4273C20.7608 38.225 20.6447 39.0555 20.6447 39.9121C20.6447 43.4813 22.6597 46.5977 25.687 48.7735C28.7162 50.9508 32.8378 52.2586 37.3333 52.2586C41.8288 52.2586 45.9503 50.9508 48.9796 48.7735C52.0068 46.5977 54.0219 43.4813 54.0219 39.9121C54.0219 39.0555 53.9058 38.225 53.6876 37.4273C55.578 36.6785 56.9166 34.8346 56.9166 32.6753C56.9166 29.8533 54.629 27.5656 51.807 27.5656C49.9398 27.5656 48.3087 28.5666 47.4174 30.0589C45.0406 28.7293 42.1772 27.8689 39.0804 27.632C39.2264 27.2711 39.3824 26.8884 39.5451 26.4918C40.2434 24.7897 41.0568 22.849 41.7032 21.3203L46.7333 22.3521C46.9929 24.2563 48.6255 25.7235 50.6009 25.7235C52.7567 25.7235 54.5044 23.9759 54.5044 21.82C54.5044 19.6642 52.7567 17.9165 50.6009 17.9165ZM49.1973 21.82C49.1973 21.0449 49.8257 20.4165 50.6009 20.4165C51.376 20.4165 52.0044 21.0449 52.0044 21.82C52.0044 22.5951 51.376 23.2235 50.6009 23.2235C49.8257 23.2235 49.1973 22.5951 49.1973 21.82ZM37.3333 30.0656C37.5905 30.0656 37.8459 30.0704 38.0994 30.0798C38.097 30.1279 38.0921 30.1635 38.0896 30.1806C38.0855 30.2087 38.0813 30.2282 38.0797 30.2357L38.0774 30.2455L38.0819 30.2296C38.0909 30.1986 38.1064 30.1499 38.1299 30.081C41.8373 30.2246 45.1318 31.3639 47.5205 33.0807C50.0809 34.921 51.5219 37.3529 51.5219 39.9121C51.5219 42.4713 50.0809 44.9032 47.5205 46.7435C44.962 48.5824 41.3643 49.7586 37.3333 49.7586C33.3022 49.7586 29.7045 48.5824 27.1461 46.7435C24.5857 44.9032 23.1447 42.4713 23.1447 39.9121C23.1447 37.3529 24.5857 34.921 27.1461 33.0807C29.7045 31.2418 33.3022 30.0656 37.3333 30.0656ZM20.25 32.6753C20.25 31.234 21.4184 30.0656 22.8596 30.0656C23.8547 30.0656 24.722 30.6231 25.1622 31.4453C23.83 32.4934 22.7232 33.7334 21.9386 35.1181C20.9515 34.7459 20.25 33.7912 20.25 32.6753ZM52.728 35.1181C51.9434 33.7334 50.8366 32.4935 49.5044 31.4453C49.9446 30.6231 50.8119 30.0656 51.807 30.0656C53.2483 30.0656 54.4166 31.234 54.4166 32.6753C54.4166 33.7908 53.7158 34.7456 52.728 35.1181Z" fill="#71AFAC"/>
</svg>
