<svg width="21" height="22" viewBox="0 0 21 22" fill="none" xmlns="http://www.w3.org/2000/svg">
<path fill-rule="evenodd" clip-rule="evenodd" d="M10.7258 0C11.5328 0 12.255 0.484154 12.5664 1.2176L12.6231 1.36754L13.0107 2.53021C13.1929 3.07694 13.6089 3.50673 14.1124 3.78709L14.345 3.92159C14.7847 4.18557 15.2925 4.33011 15.7969 4.27773L15.9858 4.2487L17.1875 4.00279C17.9782 3.84099 18.7828 4.17053 19.2349 4.82665L19.3205 4.96218L19.9415 6.03775C20.3433 6.73358 20.2873 7.59647 19.8137 8.23211L19.7059 8.36469L18.8909 9.28375C18.509 9.71445 18.3439 10.2888 18.353 10.8644L18.353 11.1356C18.3449 11.6472 18.4745 12.1578 18.7716 12.5675L18.8909 12.7162L19.7059 13.6352C20.2389 14.2364 20.3572 15.093 20.0206 15.8107L19.9415 15.9622L19.3205 17.0378C18.917 17.7367 18.1366 18.12 17.3457 18.023L17.1875 17.9971L15.9859 17.7512C15.4206 17.6356 14.8397 17.7814 14.345 18.0784L14.1124 18.2129C13.6648 18.4621 13.2864 18.8294 13.0799 19.2919L13.0107 19.4698L12.6231 20.6325C12.3679 21.3981 11.6802 21.9301 10.8859 21.9936L10.7258 22H9.48379C8.67673 22 7.95456 21.5158 7.64313 20.7824L7.58642 20.6325L7.19887 19.4698C7.01662 18.9231 6.60065 18.4933 6.09714 18.2129L5.86451 18.0784C5.42477 17.8144 4.91696 17.6698 4.41253 17.7222L4.22366 17.7512L3.02197 17.9971C2.23129 18.1589 1.42672 17.8294 0.974576 17.1733L0.888954 17.0378L0.267973 15.9622C-0.133762 15.2664 -0.0778578 14.4035 0.395752 13.7678L0.503619 13.6352L1.31864 12.7161C1.70055 12.2854 1.86561 11.7111 1.85649 11.1355L1.8565 10.8644C1.8646 10.3528 1.73509 9.84215 1.43798 9.4325L1.31865 9.28381L0.503618 8.36469C-0.0294606 7.76353 -0.147685 6.90695 0.188877 6.18927L0.267973 6.03775L0.888954 4.96218C1.29248 4.26325 2.07286 3.87991 2.86376 3.97693L3.02197 4.00278L4.22374 4.24871C4.78902 4.36439 5.36987 4.21857 5.86457 3.9216L6.09714 3.78709C6.5447 3.53788 6.9231 3.1706 7.12966 2.70807L7.19887 2.53021L7.58642 1.36754C7.84164 0.601903 8.52931 0.0698959 9.32361 0.00638581L9.48379 0H10.7258ZM10.1048 8C8.44798 8 7.10483 9.34315 7.10483 11C7.10483 12.6569 8.44798 14 10.1048 14C11.7617 14 13.1048 12.6569 13.1048 11C13.1048 9.34315 11.7617 8 10.1048 8Z" fill="white"/>
</svg>
