<svg width="243" height="243" viewBox="0 0 243 243" fill="none" xmlns="http://www.w3.org/2000/svg">
<g id="Icon">
<g id="Border" opacity="0.06">
<rect id="Shape" x="0.0864258" y="0.430664" width="241.846" height="241.846" rx="16" fill="#71AFAC"/>
</g>
<g id="Icon_Protection">
<path id="Path" fill-rule="evenodd" clip-rule="evenodd" d="M176.452 77.6998L122.037 58.0498C121.373 57.8102 120.647 57.8102 119.983 58.0498L65.5676 77.6998C64.3696 78.1324 63.5713 79.2695 63.5713 80.5432V121.355C63.5713 153.403 82.7112 174.669 120.226 184.736C120.746 184.876 121.294 184.874 121.813 184.731C159.316 174.393 178.448 153.134 178.448 121.355V80.5432C178.448 79.2695 177.65 78.1324 176.452 77.6998ZM100.14 116.067C101.349 114.916 103.263 114.963 104.414 116.173L116.643 129.025L142.324 101.167C143.456 99.9397 145.368 99.8619 146.596 100.994C147.823 102.125 147.901 104.038 146.769 105.265L118.901 135.496C117.716 136.781 115.692 136.797 114.488 135.531L100.033 120.341C98.8825 119.131 98.93 117.218 100.14 116.067Z" fill="#71AFAC"/>
</g>
</g>
</svg>
