<svg width="24" height="24" viewBox="0 0 24 24" fill="none" xmlns="http://www.w3.org/2000/svg">
<g id="settings">
<path id="Shape" fill-rule="evenodd" clip-rule="evenodd" d="M12.7258 1C13.5328 1 14.255 1.48415 14.5664 2.2176L14.6231 2.36754L15.0107 3.53021C15.1929 4.07694 15.6089 4.50673 16.1124 4.78709L16.345 4.92159C16.7847 5.18557 17.2925 5.33011 17.7969 5.27773L17.9858 5.2487L19.1875 5.00279C19.9782 4.84099 20.7828 5.17053 21.2349 5.82665L21.3205 5.96218L21.9415 7.03775C22.3433 7.73358 22.2873 8.59647 21.8137 9.23211L21.7059 9.36469L20.8909 10.2838C20.509 10.7144 20.3439 11.2888 20.353 11.8644L20.353 12.1356C20.3449 12.6472 20.4745 13.1578 20.7716 13.5675L20.8909 13.7162L21.7059 14.6352C22.2389 15.2364 22.3572 16.093 22.0206 16.8107L21.9415 16.9622L21.3205 18.0378C20.917 18.7367 20.1366 19.12 19.3457 19.023L19.1875 18.9971L17.9859 18.7512C17.4206 18.6356 16.8397 18.7814 16.345 19.0784L16.1124 19.2129C15.6648 19.4621 15.2864 19.8294 15.0799 20.2919L15.0107 20.4698L14.6231 21.6325C14.3679 22.3981 13.6802 22.9301 12.8859 22.9936L12.7258 23H11.4838C10.6767 23 9.95456 22.5158 9.64313 21.7824L9.58642 21.6325L9.19887 20.4698C9.01662 19.9231 8.60065 19.4933 8.09714 19.2129L7.86451 19.0784C7.42477 18.8144 6.91696 18.6698 6.41253 18.7222L6.22366 18.7512L5.02197 18.9971C4.23129 19.1589 3.42672 18.8294 2.97458 18.1733L2.88895 18.0378L2.26797 16.9622C1.86624 16.2664 1.92214 15.4035 2.39575 14.7678L2.50362 14.6352L3.31864 13.7161C3.70055 13.2854 3.86561 12.7111 3.85649 12.1355L3.8565 11.8644C3.8646 11.3528 3.73509 10.8421 3.43798 10.4325L3.31865 10.2838L2.50362 9.36469C1.97054 8.76353 1.85232 7.90695 2.18888 7.18927L2.26797 7.03775L2.88895 5.96218C3.29248 5.26325 4.07286 4.87991 4.86376 4.97693L5.02197 5.00278L6.22374 5.24871C6.78902 5.36439 7.36987 5.21857 7.86457 4.9216L8.09714 4.78709C8.5447 4.53788 8.9231 4.1706 9.12966 3.70807L9.19887 3.53021L9.58642 2.36754C9.84164 1.6019 10.5293 1.0699 11.3236 1.00639L11.4838 1H12.7258ZM12.1048 9C10.448 9 9.10483 10.3431 9.10483 12C9.10483 13.6569 10.448 15 12.1048 15C13.7617 15 15.1048 13.6569 15.1048 12C15.1048 10.3431 13.7617 9 12.1048 9Z" fill="#94A3B8"/>
</g>
</svg>
