<svg width="30" height="30" viewBox="0 0 30 30" fill="none" xmlns="http://www.w3.org/2000/svg">
<path d="M21.25 11.25C20.3424 11.25 19.5101 10.9276 18.8614 10.391L12.4255 14.2525C12.4744 14.4941 12.5 14.744 12.5 15C12.5 15.256 12.4744 15.5059 12.4255 15.7475L18.8614 19.609C19.5101 19.0724 20.3424 18.75 21.25 18.75C23.3211 18.75 25 20.4289 25 22.5C25 24.5711 23.3211 26.25 21.25 26.25C19.1789 26.25 17.5 24.5711 17.5 22.5C17.5 22.244 17.5257 21.994 17.5745 21.7524L11.1387 17.8909C10.49 18.4275 9.65766 18.75 8.75 18.75C6.67893 18.75 5 17.0711 5 15C5 12.9289 6.67893 11.25 8.75 11.25C9.65766 11.25 10.49 11.5725 11.1387 12.1091L17.5745 8.24761C17.5257 8.00602 17.5 7.75601 17.5 7.5C17.5 5.42893 19.1789 3.75 21.25 3.75C23.3211 3.75 25 5.42893 25 7.5C25 9.57107 23.3211 11.25 21.25 11.25Z" fill="#9CA3AF"/>
</svg>
