<svg width="54" height="54" viewBox="0 0 54 54" fill="none" xmlns="http://www.w3.org/2000/svg">
<path d="M53.1861 33.5314C49.5801 47.9959 34.93 56.7986 20.4638 53.1917C6.00375 49.5856 -2.79902 34.9346 0.80861 20.4713C4.41307 6.00531 19.0632 -2.79811 33.5249 0.807932C47.9899 4.41398 56.7922 19.0666 53.1857 33.5317L53.186 33.5314H53.1861Z" fill="#F3BA2F"/>
<path fill-rule="evenodd" clip-rule="evenodd" d="M26.9996 17.136L20.0081 24.1275L20.0083 24.1272L15.9404 20.0592L26.9996 9L38.0624 20.0625L33.9944 24.1305L26.9996 17.136ZM13.0681 22.9313L9 27L13.0679 31.0673L17.136 26.9991L13.0681 22.9313ZM20.008 29.8729L26.9995 36.864L33.9942 29.8696L38.0643 33.9355L38.0623 33.9376L26.9995 45L15.9403 33.9408L15.9346 33.935L20.008 29.8729ZM40.9324 22.9336L36.8643 27.0017L40.9323 31.0696L45.0003 27.0014L40.9324 22.9336Z" fill="white"/>
<path d="M31.1261 26.9978H31.1278L27.0002 22.8699L23.9493 25.9199V25.9199L23.5988 26.2706L22.8759 26.9936L22.8701 26.9992L22.8759 27.0051L27.0002 31.13L31.1281 27.0021L31.1301 26.9998L31.1264 26.9978" fill="white"/>
</svg>
