<svg width="24" height="24" viewBox="0 0 24 24" fill="none" xmlns="http://www.w3.org/2000/svg">
<path d="M12 4C7.02944 4 3 8.02944 3 13C3 17.9706 7.02944 22 12 22C16.9706 22 21 17.9706 21 13C21 8.02944 16.9706 4 12 4Z" fill="#E4F2F2"/>
<path fill-rule="evenodd" clip-rule="evenodd" d="M9 10C9 9.44772 9.44772 9 10 9H14C14.3688 9 14.7077 9.20298 14.8817 9.52814C15.0557 9.8533 15.0366 10.2478 14.8321 10.5547L11.8685 15H14C14.5523 15 15 15.4477 15 16C15 16.5523 14.5523 17 14 17H10C9.63121 17 9.29235 16.797 9.11833 16.4719C8.94431 16.1467 8.96338 15.7522 9.16795 15.4453L12.1315 11H10C9.44772 11 9 10.5523 9 10Z" fill="#71AFAC"/>
<path d="M4.60006 5.30006C4.15823 5.63143 3.53143 5.54189 3.20006 5.10006C2.86869 4.65823 2.95823 4.03143 3.40006 3.70006L5.40006 2.20006C5.84189 1.86869 6.46869 1.95823 6.80006 2.40006C7.13143 2.84189 7.04189 3.46869 6.60006 3.80006L4.60006 5.30006Z" fill="#71AFAC"/>
<path d="M18.6001 2.20018C18.1582 1.86881 17.5314 1.95835 17.2001 2.40018C16.8687 2.842 16.9582 3.46881 17.4001 3.80018L19.4001 5.30018C19.8419 5.63155 20.4687 5.542 20.8001 5.10018C21.1314 4.65835 21.0419 4.03155 20.6001 3.70018L18.6001 2.20018Z" fill="#71AFAC"/>
</svg>
