<svg width="246" height="243" viewBox="0 0 246 243" fill="none" xmlns="http://www.w3.org/2000/svg">
<g id="Icon">
<g id="Border" opacity="0.06">
<rect id="Shape" x="2.10645" y="0.433594" width="241.846" height="241.846" rx="16" fill="#71AFAC"/>
</g>
<g id="iconspace_Price tag b_25px">
<path id="path" opacity="0.3" fill-rule="evenodd" clip-rule="evenodd" d="M141.078 55.5996L129.001 66.1883L144.763 79.3234C148.209 82.1952 150.201 86.4494 150.201 90.9353V160.657C150.201 169.204 146.26 176.831 140.096 181.819H160.311C171.537 181.819 180.574 172.311 180.574 160.657V90.8434C180.574 88.2313 179.448 85.7461 177.484 84.024L145.064 55.5996C143.923 54.5996 142.218 54.5996 141.078 55.5996ZM114.067 100.194C114.067 105.203 110.006 109.264 104.997 109.264C99.9887 109.264 95.9282 105.203 95.9282 100.194C95.9282 95.1855 99.9887 91.1251 104.997 91.1251C110.006 91.1251 114.067 95.1855 114.067 100.194Z" fill="#71AFAC"/>
<path id="path_2" fill-rule="evenodd" clip-rule="evenodd" d="M65.5547 90.9353C65.5547 88.2438 66.7502 85.6912 68.8179 83.9681L102.919 55.5503C104.04 54.616 105.669 54.616 106.79 55.5503L140.891 83.9681C142.959 85.6912 144.155 88.2438 144.155 90.9353V160.657C144.155 172.344 134.68 181.819 122.993 181.819H86.7162C75.029 181.819 65.5547 172.344 65.5547 160.657V90.9353ZM89.8817 100.196C89.8817 108.544 96.6491 115.311 104.997 115.311C113.345 115.311 120.112 108.544 120.112 100.196C120.112 91.8477 113.345 85.0803 104.997 85.0803C96.6491 85.0803 89.8817 91.8477 89.8817 100.196Z" fill="#71AFAC"/>
</g>
</g>
</svg>
