<svg width="246" height="243" viewBox="0 0 246 243" fill="none" xmlns="http://www.w3.org/2000/svg">
<g id="Icon">
<g id="Border" opacity="0.06">
<rect id="Shape" x="2.71143" y="0.430664" width="241.846" height="241.846" rx="16" fill="#71AFAC"/>
</g>
<g id="Icon_Like">
<path id="Path" fill-rule="evenodd" clip-rule="evenodd" d="M99.1992 99.8648C105.763 90.4551 109.86 79.6576 111.504 67.4337C111.661 66.2693 112.478 65.301 113.599 64.9509C124.903 61.4219 131.33 67.0297 131.224 79.8165C131.203 82.2986 131.09 84.5047 130.848 87.879C130.308 95.4158 130.351 97.4725 131.187 98.8565C131.991 100.187 134.602 100.641 140.776 99.4587C142.724 99.0856 144.678 98.6626 146.843 98.1547C147.798 97.9305 154.68 96.2364 156.44 95.8532C159.795 95.1222 162.203 94.8129 164.321 94.9439C170.057 95.2988 173.101 99.0243 173.626 106.162C174.553 118.732 171.691 143.98 168.835 153.28C165.918 162.784 160.83 166.371 148.616 166.588C140.763 166.727 128.685 166.727 112.326 166.587C108.15 166.489 104.365 165.674 100.999 164.148C101.944 162.175 102.473 159.964 102.473 157.629V109.26C102.473 105.709 101.249 102.445 99.1992 99.8648Z" fill="#71AFAC"/>
<path id="Path_2" opacity="0.3" fill-rule="evenodd" clip-rule="evenodd" d="M81.3109 100.192C76.3021 100.192 72.2417 104.253 72.2417 109.262V157.631C72.2417 162.64 76.3021 166.7 81.3109 166.7H87.3571C92.3659 166.7 96.4263 162.64 96.4263 157.631V109.262C96.4263 104.253 92.3659 100.192 87.3571 100.192H81.3109Z" fill="#71AFAC"/>
</g>
</g>
</svg>
