<svg width="31" height="29" viewBox="0 0 31 29" fill="none" xmlns="http://www.w3.org/2000/svg">
<rect x="0.381386" y="0.53008" width="29.8258" height="28.47" rx="5.13683" fill="#F7FDFD"/>
<path fill-rule="evenodd" clip-rule="evenodd" d="M17.3416 8.89731C17.6862 8.83828 18.0721 8.81857 18.4353 8.88001C19.0839 8.98974 19.6831 9.29121 20.1566 9.74317C20.4662 9.75018 20.7705 9.68919 21.0397 9.60224C21.2675 9.52866 21.4599 9.43981 21.5948 9.36956C21.6619 9.33463 21.7137 9.30483 21.7473 9.28466C21.7641 9.27459 21.7764 9.26697 21.7836 9.26237L21.7901 9.25826C21.9913 9.12423 22.2592 9.15031 22.4306 9.3208C22.602 9.49132 22.6297 9.75902 22.4966 9.96096C22.3558 10.1747 22.1604 10.5557 21.9414 10.9826C21.9069 11.0497 21.8719 11.118 21.8365 11.1869C21.7109 11.4309 21.5821 11.6775 21.462 11.8891C21.3867 12.0219 21.306 12.1568 21.2248 12.2733V12.4589C21.2299 13.1406 21.1517 13.8187 20.9931 14.4784C20.8932 14.8935 20.7615 15.3013 20.5987 15.6981C20.1768 16.7262 19.5542 17.6599 18.7674 18.4447C17.9806 19.2295 17.0453 19.8496 16.0161 20.2689C14.9879 20.6878 13.8866 20.8978 12.7763 20.8867C11.1669 20.8881 9.59129 20.4244 8.23915 19.5513C8.03999 19.4228 7.95614 19.1736 8.03704 18.9508C8.11793 18.7279 8.34209 18.5906 8.57736 18.6197C8.78096 18.6449 8.98595 18.6572 9.19111 18.6565C9.92824 18.6545 10.6513 18.4916 11.3115 18.1848C11.1017 18.0892 10.9013 17.9715 10.7141 17.8326C10.1639 17.4246 9.75453 16.8553 9.54299 16.2038C9.48802 16.0345 9.5256 15.8487 9.64207 15.7141C9.64415 15.7117 9.64626 15.7093 9.64839 15.707C9.52398 15.596 9.40757 15.4752 9.30041 15.3453C8.81823 14.7609 8.55273 14.0278 8.54881 13.2702L8.5488 13.2675L8.54881 13.2336C8.54881 13.0534 8.64422 12.8867 8.79958 12.7954C8.83897 12.7722 8.88071 12.7548 8.92366 12.7431C8.69432 12.2855 8.57505 11.7802 8.57592 11.2675C8.57565 10.6868 8.72735 10.116 9.01596 9.61206C9.09928 9.46656 9.24897 9.3715 9.41608 9.35796C9.58319 9.34442 9.74623 9.41414 9.85189 9.54432C10.5044 10.3483 11.3187 11.006 12.2419 11.4747C12.7165 11.7156 13.2144 11.9039 13.7267 12.037C14.014 12.1117 14.3057 12.169 14.6004 12.2086C14.5875 11.7184 14.6843 11.2284 14.8874 10.7756C15.1855 10.1114 15.6956 9.56493 16.3376 9.22187C16.6096 9.07659 16.9705 8.96087 17.3416 8.89731ZM9.69661 14.0134C9.78449 14.2608 9.91523 14.4928 10.0847 14.6983C10.4178 15.102 10.88 15.3782 11.3933 15.4804C11.622 15.5258 11.7904 15.721 11.8019 15.9538C11.8134 16.1866 11.6652 16.3975 11.4421 16.4653C11.2574 16.5216 11.0682 16.5607 10.8768 16.5825C11.0033 16.7455 11.152 16.8915 11.3198 17.0159C11.7002 17.298 12.159 17.4545 12.6325 17.4636C12.8473 17.4677 13.0364 17.6065 13.1047 17.8102C13.1731 18.0139 13.106 18.2385 12.9371 18.3714C12.2259 18.931 11.4035 19.3212 10.5321 19.5204C11.2544 19.7517 12.0118 19.8708 12.778 19.8699L12.7839 19.8699C13.7601 19.88 14.7285 19.6956 15.6325 19.3273C16.5366 18.959 17.3582 18.4142 18.0494 17.7248C18.7405 17.0354 19.2874 16.2152 19.658 15.3121C19.8011 14.9635 19.9168 14.6053 20.0045 14.2407C20.144 13.6606 20.2127 13.0643 20.208 12.4649L20.208 12.4609V12.1016C20.208 11.9784 20.2528 11.8593 20.334 11.7666C20.381 11.713 20.4631 11.5892 20.5777 11.3873C20.6866 11.1954 20.8071 10.965 20.9324 10.7215C20.94 10.7068 20.9476 10.692 20.9552 10.6771C20.6302 10.7477 20.2617 10.7847 19.8754 10.743C19.7531 10.7297 19.6397 10.6726 19.5563 10.5822C19.2154 10.2125 18.7615 9.96643 18.2657 9.88255C18.0457 9.84533 17.7798 9.85385 17.5133 9.8995C17.2238 9.94909 16.9718 10.0359 16.8168 10.1187C16.3733 10.3556 16.021 10.7331 15.8151 11.1919C15.6092 11.6506 15.5615 12.1648 15.6793 12.6536C15.7168 12.8094 15.6787 12.9739 15.5764 13.0973C15.474 13.2207 15.3195 13.2885 15.1594 13.2805C14.5876 13.2515 14.022 13.1643 13.471 13.0211C12.8881 12.8696 12.3216 12.6555 11.7816 12.3813C10.9866 11.9777 10.2626 11.451 9.63573 10.8221C9.60713 10.9683 9.59261 11.1174 9.59271 11.2675L9.59271 11.2688C9.592 11.6421 9.68361 12.0098 9.85939 12.3392C10.0352 12.6685 10.2896 12.9493 10.6002 13.1565C10.7886 13.2822 10.8712 13.5175 10.8025 13.7334C10.7339 13.9493 10.5307 14.0937 10.3042 14.0876C10.0991 14.082 9.89567 14.057 9.69661 14.0134Z" fill="#71AFAC"/>
</svg>
