<svg width="74" height="70" viewBox="0 0 74 70" fill="none" xmlns="http://www.w3.org/2000/svg">
<rect x="0.666626" width="73.3333" height="70" rx="10" fill="white"/>
<path fill-rule="evenodd" clip-rule="evenodd" d="M42.3692 20.5724C43.2165 20.4273 44.1653 20.3788 45.0583 20.5299C46.653 20.7997 48.1261 21.5409 49.2905 22.6522C50.0517 22.6694 50.7997 22.5194 51.4616 22.3057C52.0218 22.1247 52.495 21.9063 52.8266 21.7336C52.9915 21.6477 53.1188 21.5744 53.2016 21.5248C53.243 21.5001 53.273 21.4813 53.2909 21.47L53.3067 21.4599C53.8014 21.1303 54.4601 21.1945 54.8816 21.6137C55.3031 22.0329 55.371 22.6911 55.0439 23.1876C54.6977 23.7131 54.2172 24.6499 53.6787 25.6995C53.5941 25.8645 53.508 26.0324 53.4207 26.2018C53.1119 26.8018 52.7953 27.4081 52.5001 27.9283C52.3148 28.255 52.1166 28.5866 51.9168 28.8732V29.3295C51.9295 31.0055 51.7372 32.6728 51.3471 34.2949C51.1016 35.3154 50.7778 36.3181 50.3774 37.2937C49.34 39.8215 47.8094 42.1172 45.8748 44.0468C43.9403 45.9764 41.6406 47.5012 39.1102 48.532C36.582 49.562 33.8741 50.0783 31.1444 50.051C27.1872 50.0544 23.3133 48.9143 19.9887 46.7678C19.499 46.4516 19.2929 45.839 19.4918 45.2911C19.6907 44.7432 20.2418 44.4055 20.8203 44.4771C21.3209 44.539 21.8249 44.5693 22.3293 44.5676C24.1417 44.5626 25.9196 44.1621 27.5427 43.4077C27.0268 43.1728 26.5343 42.8833 26.074 42.542C24.7211 41.5388 23.7146 40.1389 23.1945 38.537C23.0594 38.1207 23.1518 37.6641 23.4381 37.3331C23.4432 37.3272 23.4484 37.3213 23.4536 37.3155C23.1478 37.0427 22.8616 36.7458 22.5981 36.4264C21.4125 34.9894 20.7597 33.187 20.7501 31.3241L20.7501 31.3176L20.7501 31.2343C20.7501 30.7912 20.9847 30.3812 21.3667 30.1567C21.4635 30.0997 21.5662 30.0569 21.6717 30.0282C21.1078 28.903 20.8146 27.6606 20.8168 26.4002C20.8161 24.9722 21.1891 23.569 21.8987 22.3298C22.1035 21.9721 22.4716 21.7383 22.8825 21.705C23.2933 21.6717 23.6942 21.8432 23.954 22.1632C25.5583 24.1399 27.5604 25.757 29.8304 26.9095C30.9973 27.5019 32.2215 27.9647 33.4812 28.2921C34.1874 28.4757 34.9048 28.6166 35.6294 28.714C35.5975 27.5086 35.8355 26.3038 36.335 25.1906C37.0679 23.5576 38.322 22.2139 39.9007 21.3704C40.5693 21.0132 41.4568 20.7287 42.3692 20.5724ZM23.5722 33.1516C23.7883 33.7597 24.1097 34.3303 24.5265 34.8354C25.3454 35.828 26.4819 36.5073 27.744 36.7583C28.3061 36.8701 28.7202 37.35 28.7486 37.9224C28.7769 38.4949 28.4123 39.0133 27.864 39.1801C27.4099 39.3184 26.9446 39.4147 26.474 39.4681C26.7849 39.869 27.1507 40.2281 27.5631 40.5338C28.4984 41.2274 29.6266 41.6121 30.7908 41.6345C31.319 41.6447 31.7838 41.9858 31.9518 42.4867C32.1199 42.9875 31.9549 43.54 31.5397 43.8666C29.7911 45.2425 27.7691 46.202 25.6265 46.6918C27.4023 47.2605 29.2647 47.5533 31.1486 47.551L31.1631 47.5509C33.5632 47.5759 35.9442 47.1224 38.167 46.2168C40.3898 45.3112 42.41 43.9718 44.1093 42.2768C45.8087 40.5817 47.1533 38.5651 48.0646 36.3446C48.4163 35.4875 48.7008 34.6067 48.9164 33.7102C49.2594 32.284 49.4283 30.8178 49.4168 29.3441L49.4168 29.3343V28.451C49.4168 28.1479 49.5269 27.8551 49.7266 27.6272C49.8421 27.4954 50.044 27.1912 50.3257 26.6947C50.5935 26.2228 50.8898 25.6563 51.1979 25.0576C51.2166 25.0214 51.2353 24.985 51.2541 24.9485C50.4548 25.122 49.5488 25.213 48.5991 25.1104C48.2983 25.0779 48.0196 24.9374 47.8145 24.715C46.9764 23.8061 45.8603 23.2011 44.6413 22.9949C44.1004 22.9034 43.4464 22.9243 42.7913 23.0365C42.0794 23.1585 41.4599 23.3718 41.0788 23.5754C39.9883 24.1581 39.1221 25.0861 38.6159 26.2141C38.1098 27.3421 37.9923 28.6062 38.282 29.8081C38.3743 30.1913 38.2805 30.5956 38.0289 30.899C37.7773 31.2023 37.3973 31.3693 37.0036 31.3494C35.5979 31.2783 34.2071 31.0638 32.8523 30.7117C31.4192 30.3392 30.0263 29.8127 28.6986 29.1386C26.744 28.1463 24.9639 26.8511 23.4225 25.305C23.3522 25.6643 23.3165 26.0311 23.3168 26.4001L23.3167 26.4033C23.315 27.3212 23.5403 28.2252 23.9724 29.035C24.4046 29.8447 25.0303 30.5351 25.7938 31.0445C26.2572 31.3537 26.4601 31.9321 26.2913 32.463C26.1226 32.9938 25.6229 33.349 25.0661 33.3338C24.5618 33.3201 24.0617 33.2588 23.5722 33.1516Z" fill="#71AFAC"/>
</svg>
