<svg width="32" height="32" viewBox="0 0 32 32" fill="none" xmlns="http://www.w3.org/2000/svg">
<path d="M0 10.7333C0 6.93673 0 5.03843 0.750577 3.5935C1.38308 2.37588 2.37588 1.38308 3.5935 0.750577C5.03843 0 6.93673 0 10.7333 0H21.2667C25.0633 0 26.9616 0 28.4065 0.750577C29.6241 1.38308 30.6169 2.37588 31.2494 3.5935C32 5.03843 32 6.93673 32 10.7333V21.2667C32 25.0633 32 26.9616 31.2494 28.4065C30.6169 29.6241 29.6241 30.6169 28.4065 31.2494C26.9616 32 25.0633 32 21.2667 32H10.7333C6.93673 32 5.03843 32 3.5935 31.2494C2.37588 30.6169 1.38308 29.6241 0.750577 28.4065C0 26.9616 0 25.0633 0 21.2667V10.7333Z" fill="#1EA1F2"/>
<path fill-rule="evenodd" clip-rule="evenodd" d="M24.8802 12.1014C24.8879 12.3013 24.8905 12.5011 24.8905 12.701C24.8905 18.7606 20.6278 25.7561 12.8329 25.7561C10.4384 25.7561 8.2119 24.993 6.33594 23.6938C6.66755 23.7302 7.00433 23.7575 7.34627 23.7575C9.33162 23.7575 11.1602 23.0215 12.6107 21.7859C10.7562 21.7586 9.19037 20.4232 8.65032 18.6062C8.90958 18.6607 9.17657 18.688 9.44961 18.688C9.83462 18.688 10.2084 18.6336 10.5667 18.5246C8.62618 18.1066 7.16453 16.2534 7.16453 14.0275C7.16453 14.0003 7.16453 13.9912 7.16453 13.973C7.73645 14.3091 8.39104 14.518 9.08613 14.5452C7.94746 13.7185 7.19897 12.3104 7.19897 10.7205C7.19897 9.88469 7.40741 9.09426 7.77433 8.41289C9.86389 11.1929 12.9879 13.019 16.5099 13.2098C16.4375 12.8736 16.4005 12.5194 16.4005 12.1651C16.4005 9.63039 18.298 7.57715 20.639 7.57715C21.8578 7.57715 22.9586 8.13141 23.7312 9.02173C24.6984 8.82187 25.6046 8.44032 26.4245 7.9134C26.1067 8.98542 25.4357 9.88464 24.5589 10.4479C25.4168 10.3389 26.2351 10.0938 26.9939 9.73039C26.4245 10.648 25.7079 11.4564 24.8802 12.1014Z" fill="white"/>
</svg>
