<svg width="35" height="35" viewBox="0 0 35 35" fill="none" xmlns="http://www.w3.org/2000/svg">
<path d="M29.1659 11.6693V11.6667L31.9003 8.71609C32.3461 8.23517 31.9452 7.46033 31.2951 7.54631L27.8692 7.99941C26.7998 6.67813 25.1649 5.83337 23.3326 5.83337C20.1109 5.83337 17.4993 8.44505 17.4993 11.6667C17.4993 12.4359 17.6481 13.1703 17.9187 13.8427C18.8033 16.0417 16.8526 19.6875 13.124 23.3333C11.4683 24.9522 7.21237 25.3917 3.72955 25.0728C3.05182 25.0107 2.62634 25.7828 3.15045 26.2169C6.0708 28.6361 10.1211 29.1667 13.8532 29.1667C23.3314 29.1667 29.8936 21.1473 29.1659 11.6693Z" fill="#C9E6E5"/>
<path d="M13.1242 23.3333C6.48741 21.3423 3.47506 13.9146 5.18676 8.19796C5.37309 7.57564 6.21227 7.60919 6.50452 8.18935C9.05359 13.2498 14.2463 13.8542 18.2293 13.8542C26.9793 13.8542 24.7918 26.8336 13.1242 23.3333Z" fill="#71AFAC"/>
</svg>
