<svg width="123" height="123" viewBox="0 0 123 123" fill="none" xmlns="http://www.w3.org/2000/svg">
<path d="M61.19 0.503906C27.3002 0.503906 0 27.83 0 61.752C0 95.674 27.3002 123 61.19 123C95.0799 123 122.38 95.674 122.38 61.752C122.38 27.83 95.0799 0.503906 61.19 0.503906ZM61.19 112.77C33.083 112.77 10.2208 89.7511 10.2208 61.752C10.2208 33.7528 33.083 10.7344 61.19 10.7344C89.2971 10.7344 112.159 33.6182 112.159 61.752C112.159 89.8857 89.2971 112.77 61.19 112.77Z" fill="white"/>
<path d="M89.2966 57.3098L48.4136 33.4837C46.9343 32.676 44.7826 32.676 43.3032 33.4837C41.8239 34.2913 40.748 36.0413 40.748 37.9258V85.5782C40.748 87.4627 41.8239 89.2127 43.3032 90.0203C44.1101 90.5588 45.0515 90.6934 45.8584 90.6934C46.6653 90.6934 47.6067 90.5588 48.4136 90.0203L89.1622 66.1942C90.6415 65.3865 91.7173 63.6366 91.7173 61.752C91.7173 59.8675 90.776 58.1175 89.2966 57.3098Z" fill="white"/>
</svg>
