<svg width="26" height="26" viewBox="0 0 26 26" fill="none" xmlns="http://www.w3.org/2000/svg">
<path fill-rule="evenodd" clip-rule="evenodd" d="M18.418 2.16675C20.1488 2.16675 21.5636 3.51974 21.6625 5.22579L21.668 5.41675V6.68501C22.8671 7.10886 23.7433 8.21652 23.8279 9.53947L23.8346 9.75008V20.5834C23.8346 22.3142 22.4816 23.729 20.7756 23.8279L20.5846 23.8334H5.41797C3.68715 23.8334 2.27234 22.4804 2.17349 20.7744L2.16797 20.5834V5.41675C2.16797 3.68593 3.52097 2.27112 5.22701 2.17227L5.41797 2.16675H18.418ZM20.5846 13.0001H18.418C17.2214 13.0001 16.2513 13.9701 16.2513 15.1667C16.2513 16.3634 17.2214 17.3334 18.418 17.3334H20.5846C21.1829 17.3334 21.668 16.8484 21.668 16.2501V14.0834C21.668 13.4851 21.1829 13.0001 20.5846 13.0001ZM18.418 4.33341H5.41797C4.81966 4.33341 4.33464 4.81844 4.33464 5.41675C4.33464 6.01506 4.81966 6.50008 5.41797 6.50008H19.5013V5.41675C19.5013 4.81844 19.0163 4.33341 18.418 4.33341Z" fill="#71AFAC"/>
</svg>
