<svg width="24" height="24" viewBox="0 0 24 24" fill="none" xmlns="http://www.w3.org/2000/svg">
<path d="M9.31736 4.65956C10.4228 2.44778 13.579 2.44779 14.6844 4.65959L20.6813 16.6589C21.6781 18.6535 20.2276 21 17.9977 21H6.00387C3.77396 21 2.32345 18.6535 3.32035 16.6588L9.31736 4.65956Z" fill="#E4F2F2"/>
<path d="M12 8C11.4477 8 11 8.44772 11 9V13C11 13.5523 11.4477 14 12 14C12.5523 14 13 13.5523 13 13V9C13 8.44772 12.5523 8 12 8Z" fill="#71AFAC"/>
<path d="M12 15C11.4477 15 11 15.4477 11 16C11 16.5523 11.4477 17 12 17C12.5523 17 13 16.5523 13 16C13 15.4477 12.5523 15 12 15Z" fill="#71AFAC"/>
</svg>
