<svg width="31" height="29" viewBox="0 0 31 29" fill="none" xmlns="http://www.w3.org/2000/svg">
<rect x="0.857452" y="0.53008" width="29.8258" height="28.47" rx="5.13683" fill="#F7FDFD"/>
<path fill-rule="evenodd" clip-rule="evenodd" d="M14.6754 12.2957C14.5184 12.2014 14.3228 12.1989 14.1634 12.2892C14.004 12.3794 13.9055 12.5484 13.9055 12.7316V16.7987C13.9055 16.9819 14.004 17.1509 14.1634 17.2411C14.3228 17.3314 14.5184 17.3289 14.6754 17.2347L18.0647 15.2011C18.2179 15.1092 18.3116 14.9437 18.3116 14.7652C18.3116 14.5866 18.2179 14.4211 18.0647 14.3292L14.6754 12.2957ZM16.815 14.7652L14.9223 15.9008V13.6295L16.815 14.7652Z" fill="#71AFAC"/>
<path fill-rule="evenodd" clip-rule="evenodd" d="M19.1797 9.777C16.9098 9.59941 14.6295 9.59941 12.3595 9.777L10.8407 9.89583C9.91704 9.96809 9.16144 10.6603 9.00876 11.5741C8.65576 13.6868 8.65576 15.8435 9.00876 17.9562C9.16144 18.87 9.91704 19.5622 10.8407 19.6345L12.3595 19.7533C14.6295 19.9309 16.9098 19.9309 19.1797 19.7533L20.6986 19.6345C21.6222 19.5622 22.3778 18.87 22.5305 17.9562C22.8835 15.8435 22.8835 13.6868 22.5305 11.5741C22.3778 10.6603 21.6222 9.96809 20.6986 9.89583L19.1797 9.777ZM12.4389 10.7907C14.656 10.6172 16.8832 10.6172 19.1004 10.7907L20.6192 10.9095C21.0772 10.9453 21.4519 11.2886 21.5276 11.7417C21.862 13.7435 21.862 15.7869 21.5276 17.7887C21.4519 18.2418 21.0772 18.585 20.6192 18.6208L19.1004 18.7396C16.8833 18.9131 14.656 18.9131 12.4389 18.7396L10.92 18.6208C10.462 18.585 10.0874 18.2418 10.0116 17.7887C9.67718 15.7869 9.67718 13.7435 10.0116 11.7417C10.0874 11.2886 10.462 10.9453 10.92 10.9095L12.4389 10.7907Z" fill="#71AFAC"/>
</svg>
