<svg width="74" height="70" viewBox="0 0 74 70" fill="none" xmlns="http://www.w3.org/2000/svg">
<rect x="0.333252" width="73.3333" height="70" rx="10" fill="white"/>
<path fill-rule="evenodd" clip-rule="evenodd" d="M34.3098 28.9283C33.9237 28.6967 33.4427 28.6906 33.0508 28.9125C32.6589 29.1343 32.4167 29.5499 32.4167 30.0002V40.0002C32.4167 40.4506 32.6589 40.8661 33.0508 41.088C33.4427 41.3098 33.9237 41.3038 34.3098 41.0721L42.6432 36.0721C43.0197 35.8462 43.25 35.4393 43.25 35.0002C43.25 34.5611 43.0197 34.1543 42.6432 33.9283L34.3098 28.9283ZM39.5705 35.0002L34.9167 37.7925V32.208L39.5705 35.0002Z" fill="#71AFAC"/>
<path fill-rule="evenodd" clip-rule="evenodd" d="M45.3845 22.7357C39.8034 22.299 34.1968 22.299 28.6157 22.7357L24.8812 23.0279C22.6102 23.2055 20.7524 24.9075 20.377 27.1543C19.5091 32.3489 19.5091 37.6515 20.377 42.8462C20.7524 45.0929 22.6102 46.7949 24.8812 46.9726L28.6157 47.2647C34.1968 47.7014 39.8034 47.7014 45.3845 47.2647L49.119 46.9726C51.3899 46.7949 53.2478 45.0929 53.6232 42.8462C54.4911 37.6515 54.4911 32.3489 53.6232 27.1543C53.2478 24.9075 51.3899 23.2055 49.119 23.0279L45.3845 22.7357ZM28.8107 25.2281C34.262 24.8016 39.7382 24.8016 45.1895 25.2281L48.924 25.5202C50.05 25.6083 50.9712 26.4522 51.1573 27.5663C51.9797 32.4881 51.9797 37.5123 51.1573 42.4342C50.9712 43.5482 50.05 44.3921 48.924 44.4802L45.1895 44.7724C39.7382 45.1988 34.262 45.1988 28.8107 44.7724L25.0762 44.4802C23.9502 44.3921 23.029 43.5482 22.8428 42.4342C22.0205 37.5123 22.0205 32.4881 22.8428 27.5663C23.029 26.4522 23.9502 25.6083 25.0762 25.5202L28.8107 25.2281Z" fill="#71AFAC"/>
</svg>
